<svg width="641" height="64" viewBox="0 0 641 64" fill="none" xmlns="http://www.w3.org/2000/svg">
<g clip-path="url(#clip0_9017_196885)">
<rect width="64" height="64" transform="translate(640.046 64) rotate(-180)" fill="#0A1934"/>
<path d="M595.175 39.18C598.955 39.18 600.655 35.92 600.655 31.72C600.655 27.56 599.035 24.76 595.395 24.76C592.195 24.76 590.315 26.9 590.315 29.56C590.315 31.84 591.955 34.08 594.935 34.08C596.435 34.08 597.395 33.48 598.015 32.66H598.095C598.095 35.3 597.055 36.78 595.175 36.78C593.915 36.78 593.195 36.12 593.015 35.28H590.415C590.675 37.4 592.335 39.18 595.175 39.18ZM595.395 31.86C593.855 31.86 592.955 30.88 592.955 29.52C592.955 28.08 593.995 27.14 595.395 27.14C596.855 27.14 597.795 28.1 597.795 29.52C597.795 30.88 596.875 31.86 595.395 31.86ZM607.919 39.18C611.679 39.18 613.219 36.14 613.219 31.96C613.219 27.8 611.679 24.76 607.919 24.76C604.159 24.76 602.619 27.8 602.619 31.96C602.619 36.14 604.159 39.18 607.919 39.18ZM607.919 36.8C605.959 36.8 605.359 35.02 605.359 31.96C605.359 28.92 605.979 27.14 607.919 27.14C609.859 27.14 610.479 28.92 610.479 31.96C610.479 35.02 609.879 36.8 607.919 36.8ZM620.478 39.18C624.238 39.18 625.778 36.14 625.778 31.96C625.778 27.8 624.238 24.76 620.478 24.76C616.718 24.76 615.178 27.8 615.178 31.96C615.178 36.14 616.718 39.18 620.478 39.18ZM620.478 36.8C618.518 36.8 617.918 35.02 617.918 31.96C617.918 28.92 618.538 27.14 620.478 27.14C622.418 27.14 623.038 28.92 623.038 31.96C623.038 35.02 622.438 36.8 620.478 36.8Z" fill="white"/>
<rect width="64" height="64" transform="translate(576.046 64) rotate(-180)" fill="#0E254E"/>
<path d="M534.411 31.62V31.54C535.531 30.96 536.211 29.86 536.211 28.46C536.211 26.2 534.291 24.76 531.491 24.76C528.691 24.76 526.771 26.2 526.771 28.46C526.771 29.86 527.451 30.96 528.571 31.54V31.62C527.131 32.22 526.351 33.36 526.351 34.98C526.351 37.64 528.431 39.16 531.491 39.18C534.551 39.16 536.631 37.64 536.631 34.98C536.631 33.36 535.851 32.22 534.411 31.62ZM531.491 27.1C532.651 27.1 533.491 27.68 533.491 28.76C533.491 29.88 532.651 30.46 531.491 30.48C530.351 30.46 529.491 29.88 529.491 28.76C529.491 27.68 530.331 27.1 531.491 27.1ZM531.491 36.84C529.991 36.82 529.091 36.08 529.091 34.8C529.091 33.64 529.931 32.82 531.491 32.8C533.051 32.82 533.891 33.64 533.891 34.8C533.891 36.08 532.991 36.82 531.491 36.84ZM543.783 39.18C547.543 39.18 549.083 36.14 549.083 31.96C549.083 27.8 547.543 24.76 543.783 24.76C540.023 24.76 538.483 27.8 538.483 31.96C538.483 36.14 540.023 39.18 543.783 39.18ZM543.783 36.8C541.823 36.8 541.223 35.02 541.223 31.96C541.223 28.92 541.843 27.14 543.783 27.14C545.723 27.14 546.343 28.92 546.343 31.96C546.343 35.02 545.743 36.8 543.783 36.8ZM556.341 39.18C560.101 39.18 561.641 36.14 561.641 31.96C561.641 27.8 560.101 24.76 556.341 24.76C552.581 24.76 551.041 27.8 551.041 31.96C551.041 36.14 552.581 39.18 556.341 39.18ZM556.341 36.8C554.381 36.8 553.781 35.02 553.781 31.96C553.781 28.92 554.401 27.14 556.341 27.14C558.281 27.14 558.901 28.92 558.901 31.96C558.901 35.02 558.301 36.8 556.341 36.8Z" fill="white"/>
<rect width="64" height="64" transform="translate(512.046 64) rotate(-180)" fill="#133167"/>
<path d="M463.777 39H466.637L472.417 27.54V25H462.557V27.44H469.657V27.52L463.777 38.8V39ZM479.177 39.18C482.937 39.18 484.477 36.14 484.477 31.96C484.477 27.8 482.937 24.76 479.177 24.76C475.417 24.76 473.877 27.8 473.877 31.96C473.877 36.14 475.417 39.18 479.177 39.18ZM479.177 36.8C477.217 36.8 476.617 35.02 476.617 31.96C476.617 28.92 477.237 27.14 479.177 27.14C481.117 27.14 481.737 28.92 481.737 31.96C481.737 35.02 481.137 36.8 479.177 36.8ZM491.736 39.18C495.496 39.18 497.036 36.14 497.036 31.96C497.036 27.8 495.496 24.76 491.736 24.76C487.976 24.76 486.436 27.8 486.436 31.96C486.436 36.14 487.976 39.18 491.736 39.18ZM491.736 36.8C489.776 36.8 489.176 35.02 489.176 31.96C489.176 28.92 489.796 27.14 491.736 27.14C493.676 27.14 494.296 28.92 494.296 31.96C494.296 35.02 493.696 36.8 491.736 36.8Z" fill="white"/>
<rect width="64" height="64" transform="translate(448.046 64) rotate(-180)" fill="#0E457B"/>
<path d="M403.575 39.18C406.775 39.18 408.655 37.04 408.655 34.38C408.655 32.1 407.015 29.86 404.035 29.86C402.535 29.86 401.575 30.46 400.935 31.28H400.855C400.855 28.64 401.915 27.16 403.795 27.16C405.035 27.16 405.775 27.82 405.955 28.66H408.555C408.295 26.54 406.635 24.76 403.795 24.76C400.015 24.76 398.315 28.02 398.315 32.22C398.315 36.38 399.935 39.18 403.575 39.18ZM403.575 36.8C402.115 36.8 401.155 35.84 401.155 34.42C401.155 33.06 402.095 32.08 403.575 32.08C405.115 32.08 406.015 33.06 406.015 34.42C406.015 35.86 404.975 36.8 403.575 36.8ZM415.919 39.18C419.679 39.18 421.219 36.14 421.219 31.96C421.219 27.8 419.679 24.76 415.919 24.76C412.159 24.76 410.619 27.8 410.619 31.96C410.619 36.14 412.159 39.18 415.919 39.18ZM415.919 36.8C413.959 36.8 413.359 35.02 413.359 31.96C413.359 28.92 413.979 27.14 415.919 27.14C417.859 27.14 418.479 28.92 418.479 31.96C418.479 35.02 417.879 36.8 415.919 36.8ZM428.478 39.18C432.238 39.18 433.778 36.14 433.778 31.96C433.778 27.8 432.238 24.76 428.478 24.76C424.718 24.76 423.178 27.8 423.178 31.96C423.178 36.14 424.718 39.18 428.478 39.18ZM428.478 36.8C426.518 36.8 425.918 35.02 425.918 31.96C425.918 28.92 426.538 27.14 428.478 27.14C430.418 27.14 431.038 28.92 431.038 31.96C431.038 35.02 430.438 36.8 428.478 36.8Z" fill="white"/>
<rect width="64" height="64" transform="translate(384.046 64) rotate(-180)" fill="#125495"/>
<path d="M339.97 39.18C343.25 39.18 345.05 37.1 345.05 34.3C345.05 31.68 343.21 29.72 340.39 29.72C339.27 29.72 338.37 30.04 337.75 30.58H337.67L337.93 27.4H344.11V25H335.71L335.17 33.02H337.79C338.31 32.36 338.97 31.94 339.97 31.94C341.65 31.94 342.33 33.12 342.33 34.3C342.33 35.56 341.67 36.8 339.97 36.8C338.43 36.8 337.73 35.86 337.65 34.9H334.95C334.95 37.24 336.97 39.18 339.97 39.18ZM352.205 39.18C355.965 39.18 357.505 36.14 357.505 31.96C357.505 27.8 355.965 24.76 352.205 24.76C348.445 24.76 346.905 27.8 346.905 31.96C346.905 36.14 348.445 39.18 352.205 39.18ZM352.205 36.8C350.245 36.8 349.645 35.02 349.645 31.96C349.645 28.92 350.265 27.14 352.205 27.14C354.145 27.14 354.765 28.92 354.765 31.96C354.765 35.02 354.165 36.8 352.205 36.8ZM364.763 39.18C368.523 39.18 370.063 36.14 370.063 31.96C370.063 27.8 368.523 24.76 364.763 24.76C361.003 24.76 359.463 27.8 359.463 31.96C359.463 36.14 361.003 39.18 364.763 39.18ZM364.763 36.8C362.803 36.8 362.203 35.02 362.203 31.96C362.203 28.92 362.823 27.14 364.763 27.14C366.703 27.14 367.323 28.92 367.323 31.96C367.323 35.02 366.723 36.8 364.763 36.8Z" fill="white"/>
<rect width="64" height="64" transform="translate(320.046 64) rotate(-180)" fill="#4176AA"/>
<path d="M276.908 39H279.608V36.32H281.348V33.94H279.608V25H276.208L270.668 33.7V36.32H276.908V39ZM273.308 33.94V33.86L276.828 28.22H276.908V33.94H273.308ZM288.146 39.18C291.906 39.18 293.446 36.14 293.446 31.96C293.446 27.8 291.906 24.76 288.146 24.76C284.386 24.76 282.846 27.8 282.846 31.96C282.846 36.14 284.386 39.18 288.146 39.18ZM288.146 36.8C286.186 36.8 285.586 35.02 285.586 31.96C285.586 28.92 286.206 27.14 288.146 27.14C290.086 27.14 290.706 28.92 290.706 31.96C290.706 35.02 290.106 36.8 288.146 36.8ZM300.705 39.18C304.465 39.18 306.005 36.14 306.005 31.96C306.005 27.8 304.465 24.76 300.705 24.76C296.945 24.76 295.405 27.8 295.405 31.96C295.405 36.14 296.945 39.18 300.705 39.18ZM300.705 36.8C298.745 36.8 298.145 35.02 298.145 31.96C298.145 28.92 298.765 27.14 300.705 27.14C302.645 27.14 303.265 28.92 303.265 31.96C303.265 35.02 302.665 36.8 300.705 36.8Z" fill="white"/>
<rect width="64" height="64" transform="translate(256.046 64) rotate(-180)" fill="#608CB8"/>
<path d="M211.482 39.18C214.982 39.18 216.542 37.16 216.542 34.84C216.542 33.24 215.522 32 214.162 31.58V31.5C215.342 31.04 216.102 30.08 216.102 28.52C216.102 26.26 214.022 24.76 211.402 24.76C208.462 24.76 206.542 26.42 206.502 29.14H209.202C209.222 27.94 209.882 27.12 211.342 27.12C212.682 27.12 213.342 27.88 213.342 28.78C213.342 29.84 212.622 30.54 211.222 30.54H210.042V32.88H211.262C213.042 32.88 213.782 33.72 213.782 34.86C213.782 35.98 213.062 36.82 211.462 36.82C209.562 36.82 208.982 35.74 208.962 34.76H206.282C206.282 37.68 208.502 39.18 211.482 39.18ZM223.792 39.18C227.552 39.18 229.092 36.14 229.092 31.96C229.092 27.8 227.552 24.76 223.792 24.76C220.032 24.76 218.492 27.8 218.492 31.96C218.492 36.14 220.032 39.18 223.792 39.18ZM223.792 36.8C221.832 36.8 221.232 35.02 221.232 31.96C221.232 28.92 221.852 27.14 223.792 27.14C225.732 27.14 226.352 28.92 226.352 31.96C226.352 35.02 225.752 36.8 223.792 36.8ZM236.351 39.18C240.111 39.18 241.651 36.14 241.651 31.96C241.651 27.8 240.111 24.76 236.351 24.76C232.591 24.76 231.051 27.8 231.051 31.96C231.051 36.14 232.591 39.18 236.351 39.18ZM236.351 36.8C234.391 36.8 233.791 35.02 233.791 31.96C233.791 28.92 234.411 27.14 236.351 27.14C238.291 27.14 238.911 28.92 238.911 31.96C238.911 35.02 238.311 36.8 236.351 36.8Z" fill="black"/>
<rect width="64" height="64" transform="translate(192.046 64) rotate(-180)" fill="#92B0CE"/>
<path d="M143.214 39H152.794V36.58H146.814V36.5L150.154 33.16C151.834 31.46 152.574 30.28 152.574 28.8C152.574 26.44 150.714 24.76 147.914 24.76C145.034 24.76 143.174 26.48 143.174 29.34H145.794C145.794 27.82 146.694 27.14 147.914 27.14C149.154 27.14 149.834 27.86 149.834 28.88C149.834 29.94 149.274 30.66 147.834 32.1L143.214 36.82V39ZM159.96 39.18C163.72 39.18 165.26 36.14 165.26 31.96C165.26 27.8 163.72 24.76 159.96 24.76C156.2 24.76 154.66 27.8 154.66 31.96C154.66 36.14 156.2 39.18 159.96 39.18ZM159.96 36.8C158 36.8 157.4 35.02 157.4 31.96C157.4 28.92 158.02 27.14 159.96 27.14C161.9 27.14 162.52 28.92 162.52 31.96C162.52 35.02 161.92 36.8 159.96 36.8ZM172.519 39.18C176.279 39.18 177.819 36.14 177.819 31.96C177.819 27.8 176.279 24.76 172.519 24.76C168.759 24.76 167.219 27.8 167.219 31.96C167.219 36.14 168.759 39.18 172.519 39.18ZM172.519 36.8C170.559 36.8 169.959 35.02 169.959 31.96C169.959 28.92 170.579 27.14 172.519 27.14C174.459 27.14 175.079 28.92 175.079 31.96C175.079 35.02 174.479 36.8 172.519 36.8Z" fill="#333333"/>
<rect width="64" height="64" transform="translate(128.046 64) rotate(-180)" fill="#B6CADE"/>
<path d="M83.559 39H86.259V25H83.539L80.059 27.6V30.2H80.259L83.479 27.76H83.559V39ZM94.0151 39.18C97.7751 39.18 99.3151 36.14 99.3151 31.96C99.3151 27.8 97.7751 24.76 94.0151 24.76C90.2551 24.76 88.7151 27.8 88.7151 31.96C88.7151 36.14 90.2551 39.18 94.0151 39.18ZM94.0151 36.8C92.0551 36.8 91.4551 35.02 91.4551 31.96C91.4551 28.92 92.0751 27.14 94.0151 27.14C95.9551 27.14 96.5751 28.92 96.5751 31.96C96.5751 35.02 95.9751 36.8 94.0151 36.8ZM106.574 39.18C110.334 39.18 111.874 36.14 111.874 31.96C111.874 27.8 110.334 24.76 106.574 24.76C102.814 24.76 101.274 27.8 101.274 31.96C101.274 36.14 102.814 39.18 106.574 39.18ZM106.574 36.8C104.614 36.8 104.014 35.02 104.014 31.96C104.014 28.92 104.634 27.14 106.574 27.14C108.514 27.14 109.134 28.92 109.134 31.96C109.134 35.02 108.534 36.8 106.574 36.8Z" fill="#333333"/>
<rect width="64" height="64" transform="translate(64.0457 64) rotate(-180)" fill="#E7EEF4"/>
<path d="M25.4657 39.18C28.7457 39.18 30.5457 37.1 30.5457 34.3C30.5457 31.68 28.7057 29.72 25.8857 29.72C24.7657 29.72 23.8657 30.04 23.2457 30.58H23.1657L23.4257 27.4H29.6057V25H21.2057L20.6657 33.02H23.2857C23.8057 32.36 24.4657 31.94 25.4657 31.94C27.1457 31.94 27.8257 33.12 27.8257 34.3C27.8257 35.56 27.1657 36.8 25.4657 36.8C23.9257 36.8 23.2257 35.86 23.1457 34.9H20.4457C20.4457 37.24 22.4657 39.18 25.4657 39.18ZM37.7007 39.18C41.4607 39.18 43.0007 36.14 43.0007 31.96C43.0007 27.8 41.4607 24.76 37.7007 24.76C33.9407 24.76 32.4007 27.8 32.4007 31.96C32.4007 36.14 33.9407 39.18 37.7007 39.18ZM37.7007 36.8C35.7407 36.8 35.1407 35.02 35.1407 31.96C35.1407 28.92 35.7607 27.14 37.7007 27.14C39.6407 27.14 40.2607 28.92 40.2607 31.96C40.2607 35.02 39.6607 36.8 37.7007 36.8Z" fill="#333333"/>
</g>
<defs>
<clipPath id="clip0_9017_196885">
<rect x="640.046" y="64" width="640" height="64" rx="4" transform="rotate(-180 640.046 64)" fill="white"/>
</clipPath>
</defs>
</svg>
