<svg width="354" height="218" viewBox="0 0 354 218" fill="none" xmlns="http://www.w3.org/2000/svg">
<rect width="354" height="217" transform="translate(0 0.370392)" fill="white"/>
<path fill-rule="evenodd" clip-rule="evenodd" d="M85.237 124.24H85.167L81.334 135.164H89.072L85.237 124.24ZM82.321 118.928H88.312L98.707 145.406H92.827L90.553 139.34H79.818L77.5 145.406H72L82.321 118.928V118.928Z" fill="white" fill-opacity="0.05"/>
<path d="M85.237 124.24L86.1805 123.909L85.9458 123.24H85.237V124.24ZM85.167 124.24V123.24H84.4581L84.2234 123.909L85.167 124.24ZM81.334 135.164L80.3904 134.833L79.9233 136.164H81.334V135.164ZM89.072 135.164V136.164H90.4829L90.0155 134.833L89.072 135.164ZM88.312 118.928L89.2428 118.563L88.9937 117.928H88.312V118.928ZM98.707 145.406V146.406H100.174L99.6378 145.041L98.707 145.406ZM92.827 145.406L91.8906 145.757L92.1339 146.406H92.827V145.406ZM90.553 139.34L91.4894 138.989L91.2461 138.34H90.553V139.34ZM79.818 139.34V138.34H79.1296L78.8839 138.983L79.818 139.34ZM77.5 145.406V146.406H78.1884L78.4341 145.763L77.5 145.406ZM72 145.406L71.0683 145.043L70.5369 146.406H72V145.406ZM85.237 123.24H85.167V125.24H85.237V123.24ZM84.2234 123.909L80.3904 134.833L82.2776 135.495L86.1106 124.571L84.2234 123.909ZM81.334 136.164H89.072V134.164H81.334V136.164ZM90.0155 134.833L86.1805 123.909L84.2935 124.572L88.1285 135.496L90.0155 134.833ZM82.321 119.928H88.312V117.928H82.321V119.928ZM87.3812 119.294L97.7762 145.772L99.6378 145.041L89.2428 118.563L87.3812 119.294ZM98.707 144.406H92.827V146.406H98.707V144.406ZM93.7634 145.055L91.4894 138.989L89.6166 139.691L91.8906 145.757L93.7634 145.055ZM90.553 138.34H79.818V140.34H90.553V138.34ZM78.8839 138.983L76.5659 145.049L78.4341 145.763L80.7521 139.697L78.8839 138.983ZM77.5 144.406H72V146.406H77.5V144.406ZM72.9317 145.77L83.2527 119.292L81.3893 118.565L71.0683 145.043L72.9317 145.77Z" fill="#00253D"/>
<path fill-rule="evenodd" clip-rule="evenodd" d="M102.539 145.406H107.625V116.951H102.539V145.406Z" fill="white" fill-opacity="0.05" stroke="#00253D" stroke-width="2"/>
<path fill-rule="evenodd" clip-rule="evenodd" d="M115.4 129.591H111.646V125.869H115.4V121.962L120.481 120.329V125.869H124.999V129.591H120.481V138.691C120.481 140.361 120.938 141.913 122.872 141.913C123.78 141.913 124.655 141.731 125.189 141.388L125.336 145.406C124.277 145.71 123.099 145.862 121.578 145.862C117.601 145.862 115.4 143.395 115.4 139.526V129.591" fill="white" fill-opacity="0.05"/>
<path d="M115.4 129.591H111.646V125.869H115.4V121.962L120.481 120.329V125.869H124.999V129.591H120.481V138.691C120.481 140.361 120.938 141.913 122.872 141.913C123.78 141.913 124.655 141.731 125.189 141.388L125.336 145.406C124.277 145.71 123.099 145.862 121.578 145.862C117.601 145.862 115.4 143.395 115.4 139.526V129.591" stroke="#00253D" stroke-width="2"/>
<path fill-rule="evenodd" clip-rule="evenodd" d="M147.189 145.406H142.372V142.746H142.297C140.74 144.648 138.54 145.862 135.887 145.862C131.257 145.862 129.248 142.599 129.248 138.198V125.869H134.33V136.302C134.33 138.691 134.362 141.913 137.627 141.913C141.307 141.913 142.103 137.933 142.103 135.429V125.869H147.189V145.406" fill="white" fill-opacity="0.05"/>
<path d="M147.189 145.406H142.372V142.746H142.297C140.74 144.648 138.54 145.862 135.887 145.862C131.257 145.862 129.248 142.599 129.248 138.198V125.869H134.33V136.302C134.33 138.691 134.362 141.913 137.627 141.913C141.307 141.913 142.103 137.933 142.103 135.429V125.869H147.189V145.406" stroke="#00253D" stroke-width="2"/>
<path fill-rule="evenodd" clip-rule="evenodd" d="M164.792 129.969C163.236 129.436 162.098 129.133 160.239 129.133C158.872 129.133 157.241 129.623 157.241 131.292C157.241 134.405 166.082 132.429 166.082 139.484C166.082 144.04 162.022 145.862 157.883 145.862C155.95 145.862 153.978 145.524 152.116 145.029L152.422 140.854C154.017 141.649 155.688 142.146 157.432 142.146C158.721 142.146 160.767 141.649 160.767 139.754C160.767 135.92 151.932 138.542 151.932 131.486C151.932 127.27 155.607 125.416 159.591 125.416C161.985 125.416 163.541 125.793 165.131 126.137L164.792 129.969" fill="white" fill-opacity="0.05"/>
<path d="M164.792 129.969C163.236 129.436 162.098 129.133 160.239 129.133C158.872 129.133 157.241 129.623 157.241 131.292C157.241 134.405 166.082 132.429 166.082 139.484C166.082 144.04 162.022 145.862 157.883 145.862C155.95 145.862 153.978 145.524 152.116 145.029L152.422 140.854C154.017 141.649 155.688 142.146 157.432 142.146C158.721 142.146 160.767 141.649 160.767 139.754C160.767 135.92 151.932 138.542 151.932 131.486C151.932 127.27 155.607 125.416 159.591 125.416C161.985 125.416 163.541 125.793 165.131 126.137L164.792 129.969" stroke="#00253D" stroke-width="2"/>
<path fill-rule="evenodd" clip-rule="evenodd" d="M194.192 124.049C192.143 123.103 189.485 122.642 187.362 122.642C181.178 122.642 177.765 126.82 177.765 132.243C177.765 137.632 181.106 141.687 186.748 141.687C188.196 141.687 189.336 141.535 190.248 141.311V134.405H184.629V130.235H195.329V144.496C192.521 145.255 189.601 145.862 186.748 145.862C178.177 145.862 172.227 141.575 172.227 132.619C172.227 123.555 177.765 118.472 186.748 118.472C189.827 118.472 192.258 118.891 194.53 119.572L194.192 124.049" fill="white" fill-opacity="0.05"/>
<path d="M194.192 124.049C192.143 123.103 189.485 122.642 187.362 122.642C181.178 122.642 177.765 126.82 177.765 132.243C177.765 137.632 181.106 141.687 186.748 141.687C188.196 141.687 189.336 141.535 190.248 141.311V134.405H184.629V130.235H195.329V144.496C192.521 145.255 189.601 145.862 186.748 145.862C178.177 145.862 172.227 141.575 172.227 132.619C172.227 123.555 177.765 118.472 186.748 118.472C189.827 118.472 192.258 118.891 194.53 119.572L194.192 124.049" stroke="#00253D" stroke-width="2"/>
<path fill-rule="evenodd" clip-rule="evenodd" d="M201.127 125.869H205.633V130.309H205.716C205.948 128.486 208.038 125.416 211.067 125.416C211.553 125.416 212.088 125.416 212.627 125.563V130.686C212.165 130.421 211.253 130.271 210.345 130.271C206.211 130.271 206.211 135.429 206.211 138.241V145.406H201.127V125.869" fill="white" fill-opacity="0.05"/>
<path d="M201.127 125.869H205.633V130.309H205.716C205.948 128.486 208.038 125.416 211.067 125.416C211.553 125.416 212.088 125.416 212.627 125.563V130.686C212.165 130.421 211.253 130.271 210.345 130.271C206.211 130.271 206.211 135.429 206.211 138.241V145.406H201.127V125.869" stroke="#00253D" stroke-width="2"/>
<path fill-rule="evenodd" clip-rule="evenodd" d="M224.897 141.913C228.809 141.913 229.831 138.425 229.831 135.164C229.831 132.171 228.237 129.359 224.897 129.359C221.598 129.359 220.003 132.243 220.003 135.164C220.003 138.388 221.031 141.913 224.897 141.913ZM224.897 125.416C230.704 125.416 235.141 129.319 235.141 135.767C235.141 141.388 231.385 145.862 224.897 145.862C218.452 145.862 214.698 141.388 214.698 135.767C214.698 129.319 219.138 125.416 224.897 125.416V125.416Z" fill="white" fill-opacity="0.05"/>
<path d="M224.897 142.913C227.221 142.913 228.778 141.842 229.696 140.265C230.569 138.763 230.831 136.869 230.831 135.164H228.831C228.831 136.721 228.582 138.201 227.967 139.259C227.396 140.241 226.486 140.913 224.897 140.913V142.913ZM230.831 135.164C230.831 133.506 230.392 131.826 229.414 130.536C228.412 129.213 226.885 128.359 224.897 128.359V130.359C226.249 130.359 227.19 130.912 227.82 131.743C228.474 132.607 228.831 133.83 228.831 135.164H230.831ZM224.897 128.359C222.916 128.359 221.402 129.243 220.412 130.568C219.445 131.863 219.003 133.538 219.003 135.164H221.003C221.003 133.87 221.359 132.642 222.014 131.765C222.647 130.918 223.579 130.359 224.897 130.359V128.359ZM219.003 135.164C219.003 136.853 219.267 138.744 220.134 140.247C221.043 141.824 222.587 142.913 224.897 142.913V140.913C223.341 140.913 222.439 140.24 221.867 139.248C221.253 138.183 221.003 136.7 221.003 135.164H219.003ZM224.897 126.416C227.575 126.416 229.875 127.314 231.5 128.891C233.12 130.464 234.141 132.782 234.141 135.767H236.141C236.141 132.304 234.944 129.447 232.893 127.456C230.848 125.471 228.026 124.416 224.897 124.416V126.416ZM234.141 135.767C234.141 138.355 233.279 140.619 231.731 142.23C230.19 143.833 227.901 144.862 224.897 144.862V146.862C228.382 146.862 231.214 145.655 233.173 143.616C235.126 141.584 236.141 138.8 236.141 135.767H234.141ZM224.897 144.862C221.917 144.862 219.639 143.835 218.103 142.231C216.56 140.62 215.698 138.356 215.698 135.767H213.698C213.698 138.8 214.713 141.583 216.659 143.614C218.611 145.653 221.432 146.862 224.897 146.862V144.862ZM215.698 135.767C215.698 132.782 216.72 130.463 218.336 128.89C219.956 127.312 222.245 126.416 224.897 126.416V124.416C221.79 124.416 218.98 125.472 216.94 127.457C214.896 129.448 213.698 132.304 213.698 135.767H215.698Z" fill="#00253D"/>
<mask id="mask0_1433_188387" style="mask-type:alpha" maskUnits="userSpaceOnUse" x="237" y="124" width="46" height="31">
<path fill-rule="evenodd" clip-rule="evenodd" d="M238.898 125.416H281.05V153.309H238.898V125.416Z" fill="white" stroke="white" stroke-width="2"/>
</mask>
<g mask="url(#mask0_1433_188387)">
<path fill-rule="evenodd" clip-rule="evenodd" d="M256.843 145.406H252.023V142.746H251.951C250.392 144.648 248.195 145.862 245.539 145.862C240.914 145.862 238.898 142.599 238.898 138.198V125.869H243.99V136.302C243.99 138.691 244.021 141.913 247.29 141.913C250.962 141.913 251.767 137.933 251.767 135.429V125.869H256.843V145.406" fill="white" fill-opacity="0.05"/>
<path d="M256.843 145.406H252.023V142.746H251.951C250.392 144.648 248.195 145.862 245.539 145.862C240.914 145.862 238.898 142.599 238.898 138.198V125.869H243.99V136.302C243.99 138.691 244.021 141.913 247.29 141.913C250.962 141.913 251.767 137.933 251.767 135.429V125.869H256.843V145.406" stroke="#00253D" stroke-width="2"/>
<path fill-rule="evenodd" clip-rule="evenodd" d="M266.971 135.581C266.971 138.352 268.079 141.913 271.457 141.913C274.797 141.913 275.739 138.273 275.739 135.581C275.739 132.963 274.827 129.359 271.524 129.359C268.272 129.359 266.971 132.853 266.971 135.581ZM261.854 125.869H266.719V128.642H266.786C267.93 126.738 269.856 125.416 272.862 125.416C278.858 125.416 281.051 130.194 281.051 135.581C281.051 140.932 278.858 145.862 272.743 145.862C270.582 145.862 268.799 145.331 267.012 143.165H266.94V153.37H261.854V125.869V125.869Z" fill="white" fill-opacity="0.05"/>
<path d="M266.719 125.869H267.719V124.869H266.719V125.869ZM266.719 128.642H265.719V129.642H266.719V128.642ZM266.786 128.642V129.642H267.351L267.643 129.157L266.786 128.642ZM267.012 143.165L267.783 142.529L267.483 142.165H267.012V143.165ZM266.94 143.165V142.165H265.94V143.165H266.94ZM266.94 153.37V154.37H267.94V153.37H266.94ZM261.854 153.37H260.854V154.37H261.854V153.37ZM265.971 135.581C265.971 137.074 266.265 138.843 267.076 140.279C267.914 141.76 269.334 142.913 271.457 142.913V140.913C270.201 140.913 269.378 140.286 268.817 139.294C268.23 138.256 267.971 136.86 267.971 135.581H265.971ZM271.457 142.913C273.584 142.913 274.954 141.713 275.736 140.221C276.492 138.778 276.739 137.016 276.739 135.581H274.739C274.739 136.839 274.514 138.243 273.964 139.293C273.44 140.293 272.669 140.913 271.457 140.913V142.913ZM276.739 135.581C276.739 134.185 276.499 132.45 275.756 131.026C274.987 129.552 273.634 128.359 271.524 128.359V130.359C272.716 130.359 273.471 130.969 273.983 131.951C274.522 132.983 274.739 134.36 274.739 135.581H276.739ZM271.524 128.359C269.468 128.359 268.039 129.491 267.171 130.931C266.323 132.338 265.971 134.084 265.971 135.581H267.971C267.971 134.351 268.268 132.986 268.884 131.963C269.48 130.975 270.327 130.359 271.524 130.359V128.359ZM261.854 126.869H266.719V124.869H261.854V126.869ZM265.719 125.869V128.642H267.719V125.869H265.719ZM266.719 129.642H266.786V127.642H266.719V129.642ZM267.643 129.157C268.607 127.552 270.21 126.416 272.862 126.416V124.416C269.501 124.416 267.252 125.925 265.928 128.127L267.643 129.157ZM272.862 126.416C275.551 126.416 277.283 127.465 278.383 129.049C279.521 130.687 280.051 133 280.051 135.581H282.051C282.051 132.776 281.483 130.006 280.026 127.908C278.531 125.756 276.168 124.416 272.862 124.416V126.416ZM280.051 135.581C280.051 138.144 279.522 140.487 278.367 142.16C277.249 143.779 275.486 144.862 272.743 144.862V146.862C276.114 146.862 278.505 145.481 280.013 143.297C281.483 141.167 282.051 138.37 282.051 135.581H280.051ZM272.743 144.862C271.743 144.862 270.904 144.739 270.131 144.407C269.364 144.078 268.595 143.513 267.783 142.529L266.24 143.802C267.216 144.984 268.231 145.768 269.342 146.245C270.448 146.72 271.581 146.862 272.743 146.862V144.862ZM267.012 142.165H266.94V144.165H267.012V142.165ZM265.94 143.165V153.37H267.94V143.165H265.94ZM266.94 152.37H261.854V154.37H266.94V152.37ZM262.854 153.37V125.869H260.854V153.37H262.854Z" fill="#00253D"/>
</g>
<path fill-rule="evenodd" clip-rule="evenodd" d="M152.484 85.8894L145.807 91.7454L136 100.374L148.695 100.377L169.204 100.374L169.116 100.349L152.484 85.8894ZM200.144 85.9604C198.138 86.0644 188.08 86.6814 180.916 88.8294C169.161 92.3584 168.943 98.2224 169.21 100.374H216.561L200.144 85.9604ZM176.279 65.0374L170.57 70.0214L152.518 85.8584H200.035L176.279 65.0374V65.0374Z" fill="white" fill-opacity="0.05"/>
<path d="M152.484 85.8894L153.14 85.1347L152.481 84.5618L151.825 85.1376L152.484 85.8894ZM145.807 91.7454L145.148 90.9936L145.146 90.9946L145.807 91.7454ZM136 100.374L135.339 99.6236L133.35 101.374L136 101.374L136 100.374ZM148.695 100.377L148.695 101.377L148.695 101.377L148.695 100.377ZM169.204 100.374L169.204 101.374L169.477 99.4124L169.204 100.374ZM169.116 100.349L168.46 101.104L168.628 101.25L168.843 101.311L169.116 100.349ZM200.144 85.9604L200.804 85.2089L200.498 84.9407L200.092 84.9617L200.144 85.9604ZM180.916 88.8294L180.629 87.8715L180.628 87.8716L180.916 88.8294ZM169.21 100.374L168.218 100.498L168.326 101.374H169.21V100.374ZM216.561 100.374V101.374H219.216L217.221 99.6229L216.561 100.374ZM170.57 70.0214L169.912 69.2681L169.911 69.2697L170.57 70.0214ZM152.518 85.8584L151.859 85.1067L149.862 86.8584H152.518V85.8584ZM200.035 85.8584V86.8584H202.693L200.694 85.1063L200.035 85.8584ZM151.825 85.1376L145.148 90.9936L146.466 92.4972L153.143 86.6412L151.825 85.1376ZM145.146 90.9946L135.339 99.6236L136.661 101.125L146.468 92.4961L145.146 90.9946ZM136 101.374L148.695 101.377L148.695 99.3774L136 99.3744L136 101.374ZM148.695 101.377L169.204 101.374L169.204 99.3744L148.695 99.3774L148.695 101.377ZM169.477 99.4124L169.389 99.3874L168.843 101.311L168.931 101.336L169.477 99.4124ZM169.772 99.5947L153.14 85.1347L151.828 86.644L168.46 101.104L169.772 99.5947ZM200.092 84.9617C198.093 85.0654 187.923 85.6846 180.629 87.8715L181.203 89.7873C188.237 87.6782 198.183 87.0634 200.196 86.959L200.092 84.9617ZM180.628 87.8716C174.615 89.6768 171.391 92.1277 169.73 94.5532C168.059 96.9926 168.065 99.2661 168.218 100.498L170.202 100.251C170.088 99.3307 170.07 97.5962 171.38 95.6833C172.699 93.7566 175.462 91.5109 181.204 89.7872L180.628 87.8716ZM169.21 101.374H216.561V99.3744H169.21V101.374ZM217.221 99.6229L200.804 85.2089L199.484 86.7118L215.901 101.126L217.221 99.6229ZM175.621 64.2841L169.912 69.2681L171.228 70.7747L176.937 65.7907L175.621 64.2841ZM169.911 69.2697L151.859 85.1067L153.177 86.6101L171.229 70.7731L169.911 69.2697ZM152.518 86.8584H200.035V84.8584H152.518V86.8584ZM200.694 85.1063L176.938 64.2853L175.62 65.7894L199.376 86.6104L200.694 85.1063Z" fill="#00253D"/>
</svg>
