<svg xmlns="http://www.w3.org/2000/svg" width="211" height="137" fill="none"><g clip-path="url(#a)"><path fill="#DBE9F7" d="M149 30.3Zm14.4 8.4a.2.2 0 0 0 .1 0h.1v-.1h-.2Zm7.2 4.2h.4v-.2a.3.3 0 0 0-.3 0v.1Zm7.2 4.1h.3c.1 0 .1 0 0 0h-.3Zm7.3 4.2h.3V51h-.4v.1Zm7.3 4.2h.2v-.1h-.2c-.1 0-.1 0 0 .1Zm7.3 4.2c.1 0 .1 0 0 0 0-.1 0-.1 0 0Zm-65.3-29.3h.2c0-.1-.1-.1-.2 0Zm7.2 4.2h.4v-.2h-.4l-.1.1v.1Zm7.1 4.3h.6v-.2l-.2-.2h-.4v.4ZM156 43h.5l.1-.2v-.1l-.3-.1h-.5l-.1.2.1.2Zm7.1 4.2a.8.8 0 0 0 .7 0l.1-.2v-.2l-.2-.1a.8.8 0 0 0-.4 0h-.2l-.2.2v.2l.2.1Zm7.3 4.2a.9.9 0 0 0 .7 0l.1-.2V51l-.3-.1h-.6l-.2.1v.3l.3.1Zm7.2 4.2h.8l.1-.2v-.2l-.3-.1h-.6l-.1.3.1.2Zm7.3 4.1h.6c.2 0 .2-.2 0-.3a.7.7 0 0 0-.6 0c-.2 0-.2.2 0 .3Zm7.3 4.2h.5l.1-.2v-.1h-.6v.3Zm7.3 4.1h.4v-.2h-.4v.2Zm7.4 4.1h.1-.1Zm-87-41.8h.4v-.1h-.4v.1Zm7.1 4.3h.7v-.2l-.1-.2h-.2a.7.7 0 0 0-.3 0h-.1l-.1.2v.2Zm7 4.3h.9c.2-.2.2-.4 0-.5a.9.9 0 0 0-.8 0c-.2.1-.2.3 0 .5Zm7.3 4.1.5.2.5-.1.2-.3c0-.1 0-.2-.2-.3a1 1 0 0 0-.5-.1 1 1 0 0 0-.5 0l-.2.4s0 .2.2.3Zm7.1 4.3.4.1h.5c.1 0 .3 0 .3-.2l.2-.2c0-.1 0-.2-.2-.3l-.3-.1h-.5a1 1 0 0 0-.4 0l-.1.2-.1.2v.2l.2.1Zm7.2 4.2.6.2c.3 0 .5 0 .7-.2l.2-.3c0-.2 0-.3-.2-.4l-.7-.2c-.2 0-.5 0-.6.2-.1 0-.2 0-.3.2v.4l.3.1Zm7.2 4.2c.4.2 1 .2 1.3 0 .4-.2.4-.5 0-.7-.3-.2-.9-.2-1.3 0-.3.2-.3.5 0 .7Zm7.3 4.3h1.3l.2-.5c0-.1 0-.2-.2-.3l-.7-.2c-.2 0-.5 0-.6.2l-.2.1-.1.2v.2l.3.2Zm7.3 4 .4.2h.5l.4-.2.1-.3-.1-.2-.4-.2h-.5l-.4.1-.2.3c0 .2 0 .3.2.4Zm7.4 4.2h1l.2-.2v-.3l-.1-.2h-.3a1.2 1.2 0 0 0-.6 0h-.2l-.2.2v.3l.2.2Zm7.2 4.2h.7l.2-.1.1-.2V72h-.3a1 1 0 0 0-.4-.1h-.3l-.1.3.1.3Zm7.4 4h.2a.6.6 0 0 0 .4 0l.1-.1V76h-.7a.1.1 0 0 0 0 .3Zm7.4 4.1h.3v-.1h-.3v.1ZM105.4 30.3h.3v-.1h-.3c-.1 0-.1 0 0 .1Zm7 4.3h.7c.2 0 .2-.2 0-.4a.7.7 0 0 0-.7 0c-.2.2-.2.3 0 .4Zm7.1 4.3.5.1.5-.1.2-.3s0-.2-.2-.3a1 1 0 0 0-.5 0 1 1 0 0 0-.5 0l-.1.2v.3l.1.1Zm7.1 4.3c.4.2 1 .2 1.3 0 .3-.2.3-.6 0-.8-.4-.2-1-.2-1.3 0-.3.2-.3.6 0 .8Zm7.2 4.2c.4.2 1 .2 1.4 0 .4-.2.4-.6 0-.8-.4-.3-1-.3-1.4 0-.4.2-.4.6 0 .8Zm7.2 4.2c.1.2.4.2.7.2.3 0 .6 0 .8-.2.3 0 .4-.3.4-.4 0-.2-.1-.4-.4-.5l-.8-.2c-.3 0-.6 0-.8.2-.2.1-.3.3-.3.5l.3.4Zm7.1 4.3.7.1h.7c.2 0 .4-.1.5-.3l.2-.3c0-.2 0-.3-.2-.4-.1-.2-.3-.2-.6-.3a2 2 0 0 0-.7 0c-.2 0-.4 0-.6.2l-.2.2-.1.3v.2l.3.3Zm7.3 4.1a2 2 0 0 0 1.7 0c.5-.2.5-.7 0-1a2 2 0 0 0-1.7 0c-.5.3-.5.8 0 1Zm7.2 4.2.7.2h.7c.2 0 .4-.2.5-.3l.2-.4-.2-.4-.5-.2a2 2 0 0 0-.8 0l-.6.1-.2.3-.1.2v.3l.3.2Zm7.4 4.2c.4.2 1 .2 1.5 0 .5-.3.5-.7 0-1-.4-.2-1.1-.2-1.6 0-.4.3-.4.7 0 1Zm7.3 4.1c.4.3 1 .3 1.4 0 .4-.2.4-.6 0-.8-.4-.3-1-.3-1.4 0-.4.2-.4.6 0 .8Zm7.3 4.1.6.2c.3 0 .5 0 .7-.2l.2-.3c0-.2 0-.3-.2-.4l-.7-.1-.6.1-.2.2v.4l.2.1Zm7.4 4.1c.3.2.7.2 1 0 .2-.1.2-.4 0-.5a1 1 0 0 0-1 0c-.3.1-.3.4 0 .5Zm7.4 4.1h.7v-.3a.7.7 0 0 0-.7 0c-.2 0-.2.2 0 .3Zm7.4 4.2h.4v-.2l-.2-.1h-.2v.2ZM90.9 30.3a.3.3 0 0 0 .3 0v-.1h-.3v.1Zm7.1 4.3h.6c.2 0 .2-.2 0-.3a.7.7 0 0 0-.7 0c-.2 0-.2.2 0 .3Zm7 4.4h1c.3-.2.3-.5 0-.7h-1c-.3.2-.3.5 0 .6Zm7 4.2.8.2.6-.2c.1-.1.2-.2.1-.3 0-.2-.1-.3-.2-.3l-.6-.2h-.6l-.2.4c0 .2 0 .3.2.4Zm7.2 4.3c.4.2 1.2.2 1.6 0 .5-.3.5-.7 0-1-.4-.2-1.2-.2-1.6 0-.5.3-.5.7 0 1Zm7.1 4.2c.3.2.6.3 1 .3.3 0 .7-.1.9-.3.3-.1.4-.3.4-.5s-.2-.4-.4-.6l-.4-.1a2.2 2.2 0 0 0-1.5.1c-.2.2-.4.4-.4.6 0 .2.2.4.4.5Zm7.1 4.3.8.2h.9c.2-.1.5-.2.6-.4.2 0 .3-.3.3-.4 0-.2 0-.4-.2-.5a1 1 0 0 0-.7-.3h-.9a2 2 0 0 0-.7.2 1 1 0 0 0-.4.2v.7l.3.3Zm7.2 4.2.8.2h1l.7-.4.2-.5c0-.1 0-.3-.2-.5l-.7-.3h-1c-.3 0-.5 0-.8.2-.2.2-.4.4-.4.6 0 .3.2.5.4.7Zm7.3 4.2c.6.3 1.6.3 2.2 0 .6-.4.6-1 0-1.3-.6-.4-1.6-.4-2.2 0-.7.3-.7 1 0 1.3Zm7.2 4.1c.3.2.5.3.8.3h1c.2-.1.5-.2.6-.4.2-.1.3-.3.3-.5s0-.3-.3-.5c-.1-.1-.4-.3-.7-.3h-.9c-.3 0-.5 0-.8.2-.3.1-.4.4-.4.6 0 .2.1.5.4.6Zm7.3 4.2c.6.3 1.5.3 2.1 0 .6-.3.6-.9 0-1.2-.6-.3-1.5-.3-2 0-.6.3-.6.9 0 1.2Zm7.4 4.1c.2.2.6.3 1 .3l.9-.3.3-.2V76l-.3-.3a2 2 0 0 0-1-.2 2 2 0 0 0-1 .2l-.3.6c0 .2.1.4.4.5Zm7.4 4.2.8.1c.3 0 .6 0 .8-.2.2 0 .3-.3.3-.4 0-.2 0-.4-.3-.5l-.8-.2c-.3 0-.6 0-.8.2-.3.1-.4.3-.4.5 0 .1.1.3.4.4Zm7.3 4 .4.2a1.6 1.6 0 0 0 .7 0l.3-.2c.1 0 .2-.2.1-.3l-.3-.3-.5-.2h-.6c-.2.2-.3.3-.3.5 0 .1 0 .2.2.3Zm7.5 4.1.2.1a1.2 1.2 0 0 0 .6 0h.2l.2-.4s0-.2-.2-.3a1 1 0 0 0-.5-.1 1 1 0 0 0-.5.1l-.2.2v.3l.2.1Zm7.4 4.1.2.1h.3l.2-.1.1-.2-.3-.1h-.5l-.2.2s0 .2.2.2Zm7.4 4.1h.1a.3.3 0 0 0 .2 0v-.1l-.1-.1h-.2v.1Zm-130.4-67h.2c0-.1-.1-.1-.2 0Zm7.1 4.3h.6v-.4h-.7v.5Zm7 4.3c.3.2.7.2 1 0 .3-.2.3-.4 0-.6a1 1 0 0 0-1 0c-.2.2-.2.4 0 .6Zm7.1 4.3.3.1a1.6 1.6 0 0 0 1 0c.2-.2.3-.3.3-.5 0-.1 0-.3-.3-.4l-.3-.1a1.6 1.6 0 0 0-.7 0l-.3.1c-.2.1-.3.3-.3.4 0 .2 0 .3.3.4Zm7.1 4.3.6.2h.7l.6-.3.2-.4-.2-.4-.6-.3a2 2 0 0 0-.7 0c-.3 0-.5 0-.7.2-.2.1-.3.3-.3.5s.1.4.4.5Zm7 4.3.8.2h.8l.7-.4.2-.4c0-.2 0-.4-.2-.5l-.7-.3h-.8a2 2 0 0 0-.8.2 1 1 0 0 0-.3.3l-.1.3.1.3.3.3Zm7.1 4.2.9.3h1l.7-.4c.2-.2.3-.3.3-.5l-.3-.6c-.2-.1-.4-.3-.8-.3h-1c-.2 0-.5 0-.8.2-.3.2-.4.4-.4.7 0 .2.1.5.4.6Zm7.2 4.3 1 .3 1-.1c.3 0 .6-.2.8-.4l.3-.6c0-.2 0-.4-.3-.6a2 2 0 0 0-.8-.4h-1c-.4 0-.8.1-1 .3-.4.2-.6.4-.6.7 0 .3.2.6.6.8Zm7.2 4.2c.3.2.8.3 1.3.3s1 0 1.4-.3c.3-.2.5-.5.5-.8 0-.3-.2-.5-.5-.7-.4-.3-.9-.4-1.4-.4-.5 0-1 .1-1.3.4-.4.2-.6.4-.6.7 0 .3.2.6.6.8Zm7.2 4.2c.2.2.6.3 1 .3h1l.8-.5c.2-.1.3-.3.3-.5 0-.3 0-.5-.3-.6a2 2 0 0 0-.8-.4h-1c-.4 0-.8 0-1 .2-.4.2-.6.5-.6.8 0 .2.2.5.6.7Zm7.2 4.2 1 .3 1-.1c.4 0 .7-.2.9-.4l.3-.6-.3-.6a2 2 0 0 0-.8-.4h-1.1c-.4 0-.7.1-1 .3-.3.2-.5.4-.5.7 0 .3.2.6.5.8ZM155 77c.2.2.6.3 1 .3h1l.8-.4.3-.6-.3-.6a2 2 0 0 0-.8-.4h-1c-.4 0-.8 0-1 .2-.4.2-.6.5-.6.8 0 .3.2.5.6.7Zm7.3 4.1.9.3h1l.7-.4.3-.5-.3-.6c-.2-.1-.5-.3-.8-.3h-1c-.3 0-.6 0-.8.2l-.3.3-.2.4s0 .2.2.3l.3.3Zm7.4 4.1c.2.2.5.2.8.3h.8l.7-.4.2-.5c0-.1 0-.3-.3-.4-.1-.2-.3-.3-.6-.3h-.9a2 2 0 0 0-.7.2 1 1 0 0 0-.3.2l-.1.4.1.3.3.2Zm7.4 4.1.7.2h.7c.2 0 .4-.2.5-.3.2 0 .2-.2.2-.4 0-.1 0-.3-.2-.4l-.5-.2a2 2 0 0 0-.7 0l-.7.1c-.2.2-.3.3-.3.5s.1.4.3.5Zm7.4 4.1.4.1a1.6 1.6 0 0 0 1 0c.2-.2.3-.3.3-.5l-.3-.4-.3-.1a1.6 1.6 0 0 0-.7 0l-.4.1-.2.4c0 .2 0 .3.2.4Zm7.5 4.1h1c.2-.2.2-.4 0-.6a1 1 0 0 0-1 0c-.3.2-.3.4 0 .6Zm7.4 4 .3.1h.3v-.1l.1-.1v-.1l-.4-.1h-.3v.3Zm7.5 4.1h.1c0-.1 0-.1-.1 0ZM62 30.3Zm7 4.2h.5v-.2H69c-.1.1-.1.2 0 .2Zm7.1 4.4h.8c.2-.2.2-.4 0-.5a.9.9 0 0 0-.8 0c-.2.1-.2.3 0 .5Zm7 4.3c.4.2 1 .2 1.3 0 .3-.2.3-.6 0-.8-.4-.2-1-.2-1.3 0-.3.2-.3.6 0 .8Zm7.1 4.3c.4.2 1.2.2 1.6 0 .5-.3.5-.7 0-1-.4-.2-1.2-.2-1.6 0-.5.3-.5.7 0 1Zm7 4.3.8.2h.8l.7-.4.2-.4c0-.2 0-.3-.2-.5l-.7-.3H98a2 2 0 0 0-.8.2c-.2.1-.4.4-.4.6 0 .2.2.4.4.6Zm7.1 4.2c.7.4 1.8.4 2.4 0 .7-.3.7-1 0-1.3-.7-.4-1.7-.4-2.4 0s-.7 1 0 1.4Zm7.1 4.3c.7.5 2 .5 2.7 0 .8-.4.8-1.1 0-1.5a3 3 0 0 0-2.7 0c-.8.4-.8 1.1 0 1.5Zm7.1 4.3c.3.2.7.3 1 .3h1.3l1-.5c.2-.2.3-.4.3-.7 0-.2-.1-.4-.4-.6a2 2 0 0 0-.9-.5h-1.2c-.4 0-.8.1-1 .3-.5.2-.7.5-.7.8 0 .3.2.7.6.9Zm7.2 4.2 1.1.4h1.3c.4-.2.8-.3 1-.6.3-.2.4-.4.4-.7 0-.2-.1-.5-.4-.7l-1-.5h-1.3a3 3 0 0 0-1.1.3 1 1 0 0 0-.7 1c0 .3.2.6.7.8Zm7.2 4.2c.9.5 2.3.5 3.2 0 .9-.5.9-1.3 0-1.8s-2.3-.5-3.2 0c-.9.5-.9 1.3 0 1.8Zm7.3 4.2 1.1.4 1.3-.1 1-.5c.3-.2.4-.5.4-.7 0-.3-.1-.5-.4-.7-.2-.3-.6-.4-1-.5h-1.3a3 3 0 0 0-1.1.3c-.5.2-.7.5-.7.9 0 .3.2.7.7.9Zm7.3 4.1 1 .4h1.3l1-.5c.2-.2.3-.5.3-.7 0-.3 0-.5-.3-.7l-1-.5h-1.2a2 2 0 0 0-1.1.3c-.4.2-.6.5-.6.9 0 .3.2.6.6.8Zm7.4 4.1c.7.5 2 .5 2.7 0 .8-.4.8-1.1 0-1.5a3 3 0 0 0-2.7 0c-.8.4-.8 1.1 0 1.5Zm7.4 4.1c.2.2.5.3.8.3h1l.8-.4.3-.6c0-.2 0-.4-.3-.5l-.8-.4a3 3 0 0 0-1 0c-.3 0-.6 0-.8.2-.4.2-.5.5-.5.7 0 .3.1.6.5.7Zm7.4 4.1.7.2h.9c.3 0 .5-.2.6-.3.2-.2.3-.3.3-.5l-.3-.4c-.1-.2-.3-.3-.6-.4h-.9a2 2 0 0 0-.7.2c-.3.2-.4.4-.4.6 0 .2.1.5.4.6Zm7.5 4.1c.4.2 1.1.2 1.6 0 .4-.3.4-.7 0-1-.5-.2-1.2-.2-1.6 0-.5.3-.5.7 0 1Zm7.4 4.1h1.2l.3-.4c0-.2 0-.3-.3-.4l-.6-.2c-.3 0-.5 0-.7.2l-.2.2v.4l.3.2Zm7.4 4h.9c.2-.1.2-.3 0-.5a.9.9 0 0 0-.8 0c-.3.2-.3.4 0 .5Zm7.5 4.1h.4c.1-.1.1-.2 0-.2a.3.3 0 0 0-.4 0v.2ZM61.8 38.8h.5v-.3h-.5c-.2 0-.2.2 0 .3Zm7 4.3.5.1.5-.1.1-.3s0-.2-.2-.2a1.1 1.1 0 0 0-1 0l-.1.2c0 .1 0 .2.2.3Zm7 4.3c.4.2 1 .2 1.4 0 .4-.2.4-.6 0-.8-.4-.3-1-.3-1.4 0-.4.2-.4.6 0 .8Zm7 4.3.4.2a2.2 2.2 0 0 0 1.5-.2c.3-.1.4-.3.4-.5s-.1-.4-.4-.6l-.4-.1a2.2 2.2 0 0 0-1.5.1c-.2.2-.4.4-.4.6 0 .2.2.4.4.5Zm7 4.3.9.3h1l.7-.4c.2-.2.3-.3.3-.5l-.3-.6-.7-.3h-1c-.3 0-.6 0-.9.2l-.3.3-.1.4v.3l.4.3Zm7.1 4.3c.8.5 2 .5 2.7 0 .8-.4.8-1.1 0-1.5a3 3 0 0 0-2.7 0c-.8.4-.8 1.1 0 1.5Zm7.1 4.3c.8.5 2.2.5 3 0 1-.5 1-1.3 0-1.8-.8-.5-2.2-.5-3 0-.9.5-.9 1.3 0 1.8Zm7 4.3 1.3.4 1.4-.1 1-.5c.3-.2.5-.5.5-.8 0-.3-.2-.5-.4-.8l-1.1-.5a4 4 0 0 0-1.4 0c-.5 0-1 .1-1.3.3l-.5.5a1 1 0 0 0-.2.5c0 .2 0 .4.2.5l.5.5Zm7.2 4.2c.4.3.8.4 1.3.4h1.5c.5-.1.9-.3 1.1-.6.3-.2.5-.5.5-.8 0-.3-.2-.6-.5-.8-.2-.3-.6-.5-1.1-.6h-1.5c-.5 0-1 .1-1.3.4-.2 0-.4.3-.6.4a1 1 0 0 0-.2.6l.2.6.6.4Zm7.2 4.3c1 .6 2.7.6 3.7 0s1-1.6 0-2.2c-1-.6-2.7-.6-3.7 0s-1 1.6 0 2.2Zm7.3 4.1c.3.2.8.4 1.3.4h1.5c.5-.2.9-.3 1.2-.6.3-.2.4-.5.4-.8 0-.3-.1-.6-.4-.9l-1.2-.5c-.5-.1-1-.2-1.5-.1-.5 0-1 .2-1.3.4a1 1 0 0 0-.6.5 1 1 0 0 0-.2.6c0 .2 0 .4.2.5.1.2.3.4.6.5Zm7.3 4.2c.4.2.8.3 1.3.3h1.4l1.1-.5c.3-.3.4-.6.4-.8a1 1 0 0 0-.4-.8 2 2 0 0 0-1-.5c-.5-.2-1-.2-1.5-.1-.5 0-1 .2-1.3.4-.4.2-.7.6-.7 1 0 .3.3.7.7 1Zm7.4 4 1.2.4h1.2l1-.6c.3-.2.4-.4.4-.7 0-.2-.1-.5-.4-.7l-1-.5h-1.2a3 3 0 0 0-1.2.3l-.5.4-.1.5.1.5.5.4Zm7.4 4.1c.3.2.7.3 1 .3h1.2l.9-.4c.2-.2.3-.5.3-.7l-.3-.6c-.2-.2-.5-.3-.9-.4l-1.1-.1c-.4 0-.8.2-1 .3l-.5.4-.1.4.1.5.4.3Zm7.5 4.1.9.3 1-.1.7-.4c.2-.1.3-.3.3-.5s-.1-.4-.3-.5l-.8-.4h-1c-.3 0-.6 0-.8.2-.3.2-.5.4-.5.7 0 .3.2.5.5.7Zm7.5 4.1a3 3 0 0 0 1.9 0c.5-.4.5-.9 0-1.2-.5-.3-1.4-.3-2 0-.5.3-.5.8 0 1.1Zm7.5 4 .7.2.8-.2.3-.3v-.4l-.5-.3a1.7 1.7 0 0 0-1.2 0l-.3.3-.1.4.3.3Zm7.4 4c.3.2.8.2 1 0 .3-.1.3-.4 0-.5-.2-.2-.7-.2-1 0-.3.1-.3.4 0 .5Zm7.5 4.1h.6v-.3h-.6l-.1.1v.2ZM47.4 38.7h.2v-.1a.2.2 0 0 0-.2 0Zm7 4.3h.7c.2-.1.2-.3 0-.4a.7.7 0 0 0-.7 0c-.1.1-.1.3 0 .4Zm7.1 4.3.4.2h.4l.4-.2.2-.3s0-.2-.2-.3l-.3-.1h-.5a1 1 0 0 0-.4 0l-.3.4.3.3Zm7 4.3c.2.2.5.2.8.2.3 0 .6 0 .8-.2.2 0 .3-.3.3-.4 0-.2-.1-.4-.3-.5l-.8-.2c-.3 0-.6 0-.8.2-.2.1-.4.3-.4.5l.4.4Zm7 4.4.7.2h.9l.7-.4.2-.4c0-.2 0-.4-.2-.5a1 1 0 0 0-.7-.3h-.9a2 2 0 0 0-.7.2 1 1 0 0 0-.4.2v.7l.4.3Zm7 4.3 1 .3h1l.8-.5c.2-.2.4-.4.4-.6 0-.2-.2-.4-.4-.6a2 2 0 0 0-.8-.4h-1c-.4 0-.7.1-1 .3-.3.2-.5.4-.5.7 0 .3.2.6.5.8Zm7 4.3c.3.2.7.3 1.1.3h1.2l1-.5.4-.6c0-.3-.2-.5-.4-.7-.2-.2-.5-.4-1-.5h-1.1a3 3 0 0 0-1.1.2l-.5.4-.2.5c0 .2 0 .3.2.5l.4.4Zm7 4.3c1 .5 2.5.5 3.5 0 .9-.5.9-1.4 0-2-1-.5-2.5-.5-3.5 0-.9.6-.9 1.5 0 2Zm7.1 4.3c.2.2.5.3.9.4a4.4 4.4 0 0 0 3-.3l.7-.5.2-.7a1 1 0 0 0-.3-.6 2 2 0 0 0-.7-.5c-.5-.3-1.2-.4-1.9-.4-.6 0-1.3.2-1.8.5-.4.3-.7.6-.7 1s.2.8.6 1.1Zm7.1 4.3c.4.2 1 .4 1.5.4a5 5 0 0 0 1.7 0 4 4 0 0 0 1.3-.7c.3-.2.5-.6.5-.9 0-.3-.2-.7-.5-1a3 3 0 0 0-1.3-.6 5 5 0 0 0-1.7 0 4 4 0 0 0-1.5.4 2 2 0 0 0-.6.5c-.2.2-.2.4-.2.7 0 .2 0 .4.2.6l.6.6Zm7.2 4.2c1.1.7 3 .7 4.2 0 1.2-.7 1.2-1.8 0-2.4-1.2-.7-3-.7-4.2 0-1.2.6-1.2 1.7 0 2.4Zm7.3 4.1c.4.3 1 .4 1.5.5a5 5 0 0 0 1.7 0 4 4 0 0 0 1.3-.7c.3-.3.5-.6.5-1 0-.3-.2-.6-.5-.9a3 3 0 0 0-1.3-.6 5 5 0 0 0-1.7-.1 4 4 0 0 0-1.5.4 2 2 0 0 0-.6.6l-.3.6c0 .3.1.5.3.7.1.2.3.4.6.5Zm7.4 4.2.9.3a4.4 4.4 0 0 0 3-.3l.7-.5.2-.6a1 1 0 0 0-.3-.7 2 2 0 0 0-.7-.5 5.2 5.2 0 0 0-3.7.1c-.4.3-.7.7-.7 1 0 .5.2.8.6 1.1Zm7.4 4c.4.2.8.4 1.3.4h1.4l1-.6c.4-.2.5-.5.5-.8 0-.2-.1-.5-.4-.8l-1-.5h-1.5c-.5 0-.9.1-1.2.3a1 1 0 0 0-.6.5 1 1 0 0 0-.2.5c0 .2 0 .4.2.6l.5.4Zm7.5 4c.3.3.7.4 1 .4h1.3l1-.5c.2-.2.4-.4.4-.6a1 1 0 0 0-.3-.7l-1-.5h-1.2a3 3 0 0 0-1.1.2l-.5.4-.2.5.1.5.5.4Zm7.5 4.1c.2.2.6.3 1 .3h1l.8-.4.3-.6c0-.2 0-.5-.3-.6a2 2 0 0 0-.8-.4h-1c-.4 0-.8 0-1 .2-.4.2-.6.5-.6.8 0 .2.2.5.6.7Zm7.4 4.1.8.2h.9l.6-.3c.2-.2.3-.3.3-.5s0-.4-.3-.5l-.6-.3h-.9a2 2 0 0 0-.8.2c-.2.1-.4.3-.4.6 0 .2.2.4.4.6Zm7.6 4c.1.2.4.2.7.2.3 0 .6 0 .9-.2l.2-.4c0-.2-.1-.4-.3-.5l-.8-.2c-.3 0-.6 0-.8.2-.2.1-.3.3-.3.5 0 .1 0 .3.3.4Zm7.4 4.1.4.1h.5l.4-.2.1-.3-.1-.2-.4-.2h-.5l-.4.1c-.2 0-.2.2-.2.3 0 .2 0 .3.2.4Zm7.5 4a.8.8 0 0 0 .6 0l.2-.2-.1-.2a.8.8 0 0 0-.7 0l-.1.2v.2Zm7.5 4.1a.2.2 0 0 0 .1 0h.1v-.1h-.2ZM40.2 42.9h.2v-.2h-.2l-.1.1Zm7 4.3a.8.8 0 0 0 .6 0l.2-.2-.1-.2-.2-.1a.8.8 0 0 0-.4 0H47l-.1.2v.2l.2.1Zm7 4.3.4.2h.5l.4-.2.2-.3c0-.1 0-.2-.2-.3a1 1 0 0 0-.4-.2h-.5l-.5.1-.1.2-.1.2v.2l.3.1Zm7 4.4c.4.2 1.2.2 1.7 0 .5-.3.5-.8 0-1-.5-.3-1.3-.3-1.7 0-.5.2-.5.7 0 1Zm7 4.3.8.2h.9l.7-.4c.2-.1.2-.3.2-.5 0-.1 0-.3-.2-.5l-.7-.3h-1a2 2 0 0 0-.7.2c-.3.2-.5.4-.5.6 0 .3.2.5.5.7Zm7 4.3c.3.2.8.3 1.3.3s1 0 1.4-.3c.3-.2.5-.5.5-.8 0-.3-.2-.5-.5-.7-.4-.3-.9-.4-1.4-.4-.5 0-1 .1-1.3.4-.4.2-.6.4-.6.7 0 .3.2.6.6.8Zm7 4.3 1.1.4h1.3l1-.6c.3-.2.4-.4.4-.7 0-.3-.1-.5-.4-.7l-1-.5h-1.3a3 3 0 0 0-1.1.3c-.4.2-.7.6-.7 1 0 .3.3.6.7.8Zm7 4.3a4 4 0 0 0 3.6 0c1-.5 1-1.5 0-2a4 4 0 0 0-3.6 0c-1 .5-1 1.5 0 2Zm7 4.4c.4.2 1 .4 1.5.4a5 5 0 0 0 1.7 0 4 4 0 0 0 1.3-.7c.3-.3.5-.6.5-1 0-.3-.2-.6-.5-.9l-1.3-.6a5 5 0 0 0-1.7 0c-.6 0-1 .2-1.5.4-.5.3-.8.7-.8 1.2 0 .4.3.8.8 1.2Zm7.1 4.3a5 5 0 0 0 4.5 0c1.2-.7 1.2-2 0-2.6a5 5 0 0 0-4.5 0c-1.3.7-1.3 1.9 0 2.6Zm7.1 4.2c1.3.8 3.4.8 4.7 0 1.3-.7 1.3-2 0-2.7a5.2 5.2 0 0 0-4.7 0c-1.3.7-1.3 2 0 2.7Zm7.4 4.1c.4.3 1 .5 1.6.5h1.8c.6-.2 1.1-.4 1.5-.8.3-.3.5-.6.5-1 0-.3-.2-.7-.5-1-.4-.3-.9-.5-1.5-.7h-1.8c-.6 0-1.2.2-1.7.4-.5.4-.9.8-.9 1.3s.4 1 1 1.3Zm7.4 4.1c.4.3 1 .4 1.5.5a5 5 0 0 0 1.7-.1 4 4 0 0 0 1.3-.6c.3-.3.5-.6.5-1 0-.3-.2-.6-.5-1l-1.3-.5a5 5 0 0 0-1.7-.1 4 4 0 0 0-1.5.4c-.6.3-.9.8-.9 1.2 0 .5.3 1 .9 1.2Zm7.5 4.1c.3.2.8.3 1.3.4l1.5-.1c.5-.1.9-.3 1.2-.6.3-.2.4-.5.4-.8a1 1 0 0 0-.4-.8c-.3-.3-.7-.5-1.2-.6H134c-.5 0-1 .1-1.3.3l-.6.5a1 1 0 0 0-.2.6c0 .2 0 .4.2.6l.6.5Zm7.4 4 1.2.4 1.3-.1c.5-.1.8-.3 1-.5.3-.2.4-.5.4-.7 0-.3-.1-.5-.4-.8-.2-.2-.6-.3-1-.4-.4-.1-.9-.2-1.3-.1a3 3 0 0 0-1.2.4c-.2 0-.4.2-.5.4l-.1.5.1.5.5.4Zm7.5 4.1c.8.4 2 .4 2.8 0 .7-.5.7-1.2 0-1.6a3 3 0 0 0-2.8 0c-.7.4-.7 1.1 0 1.6Zm7.5 4c.6.4 1.6.4 2.3 0 .6-.4.6-1 0-1.3a3 3 0 0 0-2.3 0c-.6.4-.6 1 0 1.3Zm7.5 4.1.6.2h.8l.5-.4c.2 0 .2-.2.2-.4l-.2-.4-.5-.2h-.8l-.6.1-.4.5c0 .2.2.4.4.6Zm7.5 4 .5.1h.5l.4-.2.1-.3-.1-.3a1 1 0 0 0-.4-.2h-.5c-.2 0-.4 0-.5.2l-.2.1v.4l.2.2Zm7.5 4c.2.1.5.1.8 0 .2 0 .2-.3 0-.4a.8.8 0 0 0-.8 0c-.2.1-.2.3 0 .4Zm7.4 4.1h.2a.3.3 0 0 0 .1 0l.1-.1-.1-.1a.3.3 0 0 0-.2 0v.1ZM32.9 47l.1.1h.2V47l-.2-.1v.2Zm7.1 4.4h.7l.1-.2V51l-.3-.1h-.6l-.1.2v.2l.1.1Zm6.9 4.3.6.2c.3 0 .5 0 .7-.2.2 0 .3-.2.3-.3 0-.2-.1-.3-.3-.4l-.7-.2c-.2 0-.4 0-.6.2-.2 0-.3.2-.3.4l.3.3Zm7 4.3a2 2 0 0 0 1.8 0c.4-.2.4-.7 0-1a2 2 0 0 0-1.8 0c-.5.3-.5.8 0 1Zm7 4.4c.6.3 1.6.3 2.2 0 .7-.4.7-1 0-1.3-.6-.4-1.6-.4-2.2 0-.6.3-.6 1 0 1.3Zm7 4.3c.3.2.6.3 1 .3H70c.4 0 .7-.2 1-.4l.3-.6c0-.3-.1-.5-.4-.7-.2-.2-.5-.3-.9-.4h-1c-.4 0-.7.1-1 .3-.3.2-.5.5-.5.8 0 .2.2.5.5.7ZM75 73c.8.5 2.2.5 3.1 0 1-.5 1-1.3 0-1.8-.9-.5-2.3-.5-3.2 0-.9.5-.9 1.3 0 1.8Zm6.9 4.4c1 .6 2.7.6 3.7 0s1-1.6 0-2.2c-1-.6-2.7-.6-3.7 0s-1 1.6 0 2.2Zm7 4.3 1.5.5a5 5 0 0 0 1.7-.1l1.4-.7c.3-.3.5-.6.5-1 0-.3-.2-.6-.5-.9-.3-.3-.8-.5-1.4-.6a5 5 0 0 0-1.7-.1 4 4 0 0 0-1.5.4c-.6.4-.9.8-.9 1.3 0 .4.3.9.9 1.2ZM96 86c1.2.8 3.3.8 4.6 0 1.3-.7 1.3-2 0-2.7a5.2 5.2 0 0 0-4.7 0c-1.3.7-1.3 2 0 2.7Zm7 4.3c1.4.8 3.6.8 5 0s1.4-2.1 0-3a5.6 5.6 0 0 0-5 0c-1.4.9-1.4 2.2 0 3Zm7.4 4.1c.4.3 1 .5 1.7.5h1.9c.6-.2 1.1-.5 1.5-.8.4-.3.6-.7.6-1 0-.4-.2-.8-.6-1.1-.4-.3-.9-.6-1.5-.7-.6-.2-1.3-.2-2-.1-.6 0-1.2.2-1.6.5-.7.4-1 .8-1 1.3 0 .6.3 1 1 1.4Zm7.5 4c1.1.7 3 .7 4.2 0 1.2-.6 1.2-1.8 0-2.4-1.1-.7-3-.7-4.2 0-1.2.6-1.2 1.8 0 2.4Zm7.5 4.1c1 .6 2.7.6 3.7 0s1-1.6 0-2.2c-1-.6-2.7-.6-3.7 0s-1 1.6 0 2.2Zm7.5 4c.9.5 2.3.5 3.2 0 1-.5 1-1.3 0-1.9-.9-.5-2.3-.5-3.2 0-1 .6-1 1.4 0 2Zm7.5 4.1c.7.4 2 .4 2.7 0 .8-.5.8-1.2 0-1.6a3 3 0 0 0-2.7 0c-.8.4-.8 1.1 0 1.6Zm7.4 4c.7.4 1.7.4 2.3 0 .7-.4.7-1 0-1.3-.6-.4-1.6-.4-2.3 0-.6.3-.6 1 0 1.3Zm7.6 4 .6.2h.7c.3 0 .4-.2.6-.3l.2-.4c0-.1 0-.3-.2-.4l-.6-.2h-.7l-.6.1c-.3.2-.4.3-.4.5s.1.4.4.5Zm7.4 4.1c.4.2 1 .2 1.3 0 .4-.2.4-.6 0-.8-.3-.2-.9-.2-1.3 0-.3.2-.3.6 0 .8Zm7.5 4c.3.2.6.2.8 0 .3-.1.3-.3 0-.4a.9.9 0 0 0-.8 0c-.2 0-.2.3 0 .4Zm7.5 4.1h.3v-.2h-.3v.2ZM25.7 51.2h.2l-.1-.1h-.1v.1Zm7 4.4h.8v-.4l-.3-.1h-.5l-.1.1v.4Zm7 4.4h.2a1.5 1.5 0 0 0 1 0c.2-.2.3-.3.3-.5l-.3-.3-.3-.1a1.5 1.5 0 0 0-1 0l-.1.2-.1.2v.2l.3.2Zm7 4.2.6.2h.7c.2 0 .4-.2.5-.3.2-.1.2-.2.2-.4l-.2-.4-.5-.2a2 2 0 0 0-.7 0l-.6.1-.3.3-.1.2.1.3.3.2Zm7 4.4.8.2h.9l.7-.4.2-.5c0-.2 0-.3-.2-.5-.2-.1-.4-.3-.7-.3h-1c-.2 0-.5 0-.7.2a1 1 0 0 0-.4.3v.7l.4.3Zm7 4.3 1 .3h1l.8-.5.3-.6c0-.2 0-.4-.3-.6a2 2 0 0 0-.8-.4h-1c-.4 0-.8.1-1 .3-.4.2-.6.4-.6.7 0 .3.2.6.6.8Zm7 4.3 1.1.4 1.3-.1 1-.5c.3-.2.4-.5.4-.7 0-.3-.1-.5-.4-.7-.2-.3-.6-.4-1-.5h-1.3a3 3 0 0 0-1.1.3c-.2 0-.4.2-.5.4l-.2.5c0 .2 0 .3.2.5l.5.4Zm7 4.3c.3.2.8.4 1.3.4h1.5c.5-.2.9-.3 1.2-.6.3-.2.4-.5.4-.8 0-.3-.1-.6-.4-.9l-1.2-.5c-.4-.1-1-.2-1.5-.1-.5 0-1 .2-1.3.4l-.6.5a1 1 0 0 0-.2.6c0 .2 0 .4.2.5.1.2.3.4.6.5Zm7 4.3c.4.3 1 .4 1.5.5l1.7-.1a4 4 0 0 0 1.3-.6c.3-.3.5-.6.5-1 0-.3-.2-.6-.5-.9-.4-.3-.8-.5-1.3-.6-.6-.1-1.1-.2-1.7 0-.6 0-1 .1-1.5.4-.5.3-.8.7-.8 1.1 0 .5.3 1 .8 1.2Zm7.1 4.3c.4.3 1 .5 1.6.5h1.8c.6-.2 1.1-.4 1.5-.7.3-.3.5-.7.5-1 0-.4-.2-.8-.5-1-.4-.4-.9-.6-1.5-.8h-1.8c-.6 0-1.2.2-1.6.4l-.7.6-.3.7c0 .3.1.5.3.7.1.3.4.5.7.6Zm7.2 4.3 1.6.5 2-.1c.5-.1 1-.4 1.4-.7.4-.3.6-.7.6-1 0-.5-.2-.8-.6-1.2-.3-.3-.9-.5-1.5-.7h-1.9c-.6 0-1.2.2-1.7.5-.6.3-1 .8-1 1.3s.4 1 1 1.4Zm7.2 4.1a5.4 5.4 0 0 0 3.5.4c.6-.1 1.1-.4 1.5-.7.3-.3.5-.6.5-1s-.2-.7-.5-1c-.4-.3-.9-.6-1.5-.7-.6-.1-1.2-.2-1.8-.1-.6 0-1.2.2-1.7.5-.6.3-.9.8-.9 1.3s.3 1 1 1.3Zm7.5 4.1 1.5.5a5 5 0 0 0 1.7-.1 4 4 0 0 0 1.3-.7c.3-.2.5-.6.5-1 0-.2-.2-.6-.5-.8-.3-.3-.8-.5-1.3-.7a5 5 0 0 0-1.7 0 4 4 0 0 0-1.5.4c-.6.3-.9.7-.9 1.2 0 .4.3.9.9 1.2Zm7.5 4c.3.2.8.4 1.3.4h1.5c.5-.2.9-.3 1.2-.6.3-.2.4-.5.4-.8 0-.3-.1-.6-.4-.9l-1.2-.5c-.5-.1-1-.2-1.5-.1-.5 0-1 .2-1.3.4-.5.3-.8.7-.8 1 0 .5.3.9.8 1.1Zm7.4 4.1 1.2.4h1.3l1-.6c.3-.2.4-.5.4-.7 0-.3-.1-.5-.4-.7a2 2 0 0 0-1-.5c-.4-.1-.9-.2-1.3-.1a3 3 0 0 0-1.2.4c-.4.2-.7.5-.7.9 0 .3.3.7.7 1Zm7.5 4c.3.2.6.3 1 .3h1l.8-.5.3-.6-.3-.6a2 2 0 0 0-.8-.3l-1.1-.1c-.4 0-.7.1-1 .3l-.3.3-.2.5c0 .1 0 .3.2.4l.4.3Zm7.5 4.1.5.2a2.5 2.5 0 0 0 1.9-.2l.4-.3v-.4l-.1-.3-.4-.3c-.3-.2-.7-.2-1.1-.2-.4 0-.8 0-1 .2-.4.2-.5.4-.5.6 0 .3 0 .5.3.7Zm7.5 4c.2.2.6.2.9.2.3 0 .6 0 .9-.2.2-.1.4-.3.4-.5s-.2-.4-.4-.5l-.9-.2c-.3 0-.7 0-.9.2-.2.1-.4.3-.4.5s.2.4.4.5Zm7.5 4.1.6.1.7-.1c.2-.1.2-.3.2-.4 0-.1 0-.3-.2-.4l-.7-.1-.6.1c-.2.1-.3.3-.3.4l.3.4Zm7.5 4h.8l.1-.2v-.2l-.3-.1h-.6l-.1.3.1.2Zm7.5 4.1h.3v-.2h-.3v.1ZM18.4 55.4h.2v-.1h-.2v.1Zm7.1 4.3h.6c.2 0 .2-.2 0-.3a.7.7 0 0 0-.6 0c-.2 0-.2.2 0 .3Zm7 4.3.2.2a1.3 1.3 0 0 0 1 0l.2-.3v-.3l-.3-.2-.3-.1a1.3 1.3 0 0 0-1 0l-.1.2v.4l.3.2Zm7 4.4c.4.2 1.1.2 1.6 0 .4-.3.4-.7 0-1-.5-.2-1.2-.2-1.6 0-.5.3-.5.7 0 1Zm7 4.3c.5.3 1.5.3 2 0 .6-.3.6-.9 0-1.2-.5-.3-1.5-.3-2 0-.6.3-.6.9 0 1.2Zm7 4.3c.3.2.6.3 1 .3h1l.8-.4.3-.6c0-.2 0-.4-.3-.6a2 2 0 0 0-.8-.4h-1c-.4 0-.7 0-1 .2-.3.2-.5.5-.5.8 0 .3.2.5.5.7Zm7 4.3 1.1.4 1.2-.1c.4 0 .8-.2 1-.5.2-.2.4-.4.4-.6 0-.3-.2-.5-.4-.7l-1-.5h-1.2c-.4 0-.8.1-1 .3l-.6.4-.1.5.1.4.5.4Zm7 4.4c1 .5 2.5.5 3.5 0 1-.6 1-1.5 0-2-1-.6-2.5-.6-3.5 0-1 .5-1 1.4 0 2Zm7.1 4.3.9.3a4.4 4.4 0 0 0 3-.3c.3-.1.6-.3.7-.5l.2-.6a1 1 0 0 0-.3-.7 2 2 0 0 0-.7-.5c-.5-.2-1.2-.4-1.8-.3-.7 0-1.4.1-1.8.4-.5.3-.8.7-.8 1 0 .5.2.8.6 1.1Zm7.1 4.2c.4.3 1 .4 1.5.5a5 5 0 0 0 1.7-.1 4 4 0 0 0 1.3-.6c.3-.3.5-.6.5-1 0-.3-.2-.6-.5-1l-1.3-.5a5 5 0 0 0-1.7-.1 4 4 0 0 0-1.5.4c-.5.3-.9.8-.9 1.2 0 .5.4.9.9 1.2Zm7.2 4.2c1.2.7 3 .7 4.2 0 1.2-.6 1.2-1.7 0-2.4-1.1-.7-3-.7-4.2 0-1.2.7-1.2 1.8 0 2.4Zm7.3 4.2c.4.2 1 .4 1.5.4a5 5 0 0 0 1.7 0 4 4 0 0 0 1.3-.7c.3-.3.5-.6.5-1 0-.3-.2-.6-.5-.9a4 4 0 0 0-1.3-.6 5 5 0 0 0-1.7 0 4 4 0 0 0-1.5.4 2 2 0 0 0-.6.5 1 1 0 0 0-.3.7l.3.6.6.6Zm7.4 4.1c1 .6 2.8.6 3.8 0s1-1.6 0-2.2c-1-.7-2.8-.7-3.8 0-1.1.6-1.1 1.6 0 2.2Zm7.4 4.1c1 .5 2.5.5 3.5 0 1-.6 1-1.5 0-2-1-.6-2.5-.6-3.5 0-1 .5-1 1.4 0 2Zm7.5 4 1 .4h1.3l1-.5c.3-.2.4-.4.5-.7 0-.2-.1-.5-.4-.7l-1-.5h-1.2a3 3 0 0 0-1.2.3c-.3.2-.6.5-.6.9 0 .3.2.6.6.8Zm7.5 4.1c.7.4 1.8.4 2.5 0s.7-1.1 0-1.5c-.7-.4-1.8-.4-2.5 0-.8.4-.8 1 0 1.5Zm7.4 4.1c.6.3 1.6.3 2.2 0 .5-.4.5-1 0-1.3-.6-.3-1.6-.3-2.2 0-.6.3-.6.9 0 1.2Zm7.6 4 .8.2.8-.2c.2-.2.2-.3.2-.5s-.1-.3-.3-.4l-.8-.2-.8.1c-.2.1-.3.3-.3.5s.1.3.3.5Zm7.4 4c.3.2.8.2 1.2 0 .3-.2.3-.5 0-.7h-1.2c-.3.2-.3.5 0 .7Zm7.5 4c.2.2.5.2.7 0 .2 0 .2-.2 0-.3a.7.7 0 0 0-.7 0c-.2 0-.2.3 0 .4ZM11.2 59.6h.1c0-.1 0-.1 0 0-.1 0-.1 0 0 0Zm7.1 4.3h.5v-.3h-.5c-.2 0-.2.2 0 .3Zm7 4.3a1.1 1.1 0 0 0 1 0l.1-.3-.1-.3-.2-.1a1.1 1.1 0 0 0-.6 0h-.3l-.2.2v.4l.3.1Zm7 4.3c.4.3 1 .3 1.5 0 .4-.2.4-.6 0-.8-.4-.3-1.1-.3-1.5 0-.4.2-.4.6 0 .8Zm7 4.3c.3.2.6.2 1 .3a2 2 0 0 0 1-.3c.2-.1.3-.3.3-.5s-.1-.4-.4-.6a2 2 0 0 0-1-.2 2 2 0 0 0-.9.2 1 1 0 0 0-.3.3v.6l.3.2Zm7.1 4.3c.2.2.5.3.8.3h1l.7-.4.3-.5-.3-.6c-.2-.1-.4-.3-.7-.3h-1c-.3 0-.6 0-.8.2-.2 0-.3.2-.4.3l-.1.4.1.3c0 .1.2.3.4.3Zm7 4.3c.8.5 2 .5 2.7 0 .8-.4.8-1.1 0-1.5a3 3 0 0 0-2.7 0c-.8.4-.8 1.1 0 1.5Zm7.1 4.3c.8.5 2.2.5 3 0 1-.5 1-1.3 0-1.8-.8-.5-2.2-.5-3 0-1 .5-1 1.3 0 1.8Zm7 4.3 1.3.4h1.4l1.1-.6c.3-.2.4-.5.4-.8 0-.3-.1-.5-.4-.8l-1-.5h-1.5c-.5 0-1 .1-1.3.3-.4.3-.7.6-.7 1s.3.7.7 1Zm7.2 4.3 1.3.4 1.5-.1c.5-.1 1-.3 1.2-.6.3-.2.4-.5.4-.8a1 1 0 0 0-.4-.8c-.3-.3-.7-.5-1.2-.6H76c-.5 0-1 .1-1.3.3l-.6.5a1 1 0 0 0-.2.6c0 .2 0 .4.2.6l.6.5Zm7.2 4.2c1 .6 2.7.6 3.7 0s1-1.6 0-2.2c-1-.6-2.7-.6-3.7 0s-1 1.6 0 2.2Zm7.3 4.1c.3.2.8.4 1.3.4H92c.5-.2.9-.3 1.2-.6.3-.2.4-.5.4-.8 0-.3-.1-.6-.4-.9l-1.2-.5c-.5-.1-1-.2-1.5 0-.5 0-1 .1-1.3.3-.5.3-.8.7-.8 1 0 .5.3.8.8 1.1Zm7.3 4.2c1 .5 2.5.5 3.5 0 1-.6 1-1.5 0-2-1-.6-2.5-.6-3.5 0-1 .5-1 1.4 0 2Zm7.5 4c.8.5 2.2.5 3 0 1-.4 1-1.3 0-1.8-.8-.5-2.2-.5-3 0-1 .5-1 1.4 0 1.8Zm7.4 4.2 1.3.2c.5 0 1-.1 1.3-.3.4-.2.6-.5.6-.8 0-.3-.1-.6-.5-.8l-.6-.3a3.2 3.2 0 0 0-2.3.2l-.4.4c-.1.2-.2.3-.1.5 0 .2 0 .3.2.5l.5.3Zm7.4 4 .9.3h1l.7-.5c.2-.1.3-.3.3-.5s-.1-.4-.3-.5l-.8-.4h-1c-.3 0-.6 0-.8.2-.3.2-.5.5-.5.7 0 .3.2.5.5.7Zm7.5 4c.5.4 1.4.4 1.9 0 .5-.3.5-.8 0-1-.5-.4-1.4-.4-2 0-.5.2-.5.7 0 1Zm7.5 4.1.7.2c.3 0 .5 0 .7-.2.2-.1.3-.3.3-.4 0-.2-.2-.3-.4-.4l-.6-.2-.8.1c-.2.2-.3.3-.3.5l.4.4Zm7.4 4.1h1c.3-.2.3-.5 0-.6-.2-.2-.7-.2-1 0-.2.1-.2.4 0 .6ZM11.1 68h.4v-.2h-.1a.4.4 0 0 0-.3 0v.2Zm7 4.3.3.1h.4l.2-.1.1-.2v-.2l-.3-.1a1 1 0 0 0-.4 0h-.3l-.1.3.1.2Zm7.1 4.3.4.2h.5l.4-.2.2-.3c0-.1 0-.2-.2-.3a1 1 0 0 0-.4-.2h-.5l-.4.1c-.2.1-.3.2-.3.4l.3.3Zm7.1 4.4.8.1c.3 0 .6 0 .8-.2.2-.1.3-.3.3-.5 0-.1 0-.3-.3-.4-.2-.2-.5-.2-.8-.2-.3 0-.6 0-.8.2-.3 0-.4.3-.4.4 0 .2.1.4.4.5Zm7 4.2c.2.2.4.2.7.3h.8l.7-.4c.2-.1.2-.3.2-.4 0-.2 0-.4-.2-.5a1 1 0 0 0-.7-.3c-.2 0-.5-.1-.8 0a2 2 0 0 0-.7.2 1 1 0 0 0-.4.2v.7l.4.2Zm7 4.3c.2.2.6.3.9.3h1l.8-.4.3-.6c0-.2-.1-.4-.3-.5l-.8-.4a3 3 0 0 0-1 0c-.3 0-.7 0-.9.2-.3.2-.5.5-.5.7 0 .3.2.6.5.7Zm7.1 4.3c.3.2.6.3 1 .3h1.1l1-.4c.2-.2.3-.5.3-.7 0-.2-.1-.4-.4-.6-.2-.2-.5-.3-.9-.4l-1.1-.1c-.4 0-.7.2-1 .3l-.4.4-.2.4c0 .2 0 .3.2.5l.4.3Zm7.1 4.2c.3.2.7.4 1.1.4h1.2l1-.5c.2-.2.4-.4.4-.7l-.4-.7c-.2-.2-.6-.3-1-.4l-1.2-.1c-.4 0-.8.2-1 .3-.5.3-.7.6-.7.9 0 .3.2.6.6.9Zm7.2 4.3 1.1.4 1.3-.1c.5-.1.8-.3 1-.5.3-.2.4-.5.4-.7 0-.3-.1-.5-.4-.7-.2-.3-.6-.4-1-.5-.4-.1-.8-.2-1.3-.1a3 3 0 0 0-1.1.4c-.3 0-.4.2-.5.4l-.2.5c0 .2 0 .3.2.5 0 .2.3.3.5.4Zm7.2 4.2 1.2.4 1.3-.1 1-.5c.3-.2.4-.5.4-.7 0-.3-.1-.5-.4-.8l-1-.5h-1.3a3 3 0 0 0-1.2.3c-.4.3-.7.6-.7 1 0 .3.3.7.7 1Zm7.3 4.2c.3.2.7.3 1.1.3h1.3l1-.5c.3-.2.4-.5.4-.7a1 1 0 0 0-.4-.8l-1-.5h-1.3a3 3 0 0 0-1.1.3l-.5.5-.2.5c0 .1 0 .3.2.5 0 .1.2.3.5.4Zm7.3 4.1 1.1.4 1.2-.1 1-.5c.2-.2.4-.4.4-.7 0-.2-.2-.4-.4-.6-.2-.3-.6-.4-1-.5h-1.2c-.4 0-.8 0-1.1.3-.4.2-.6.5-.6.8 0 .4.2.7.6 1Zm7.4 4.2 1.3.2c.5 0 1-.1 1.3-.3.4-.2.6-.5.6-.8a1 1 0 0 0-.4-.8l-.7-.3a3.2 3.2 0 0 0-2.3.2l-.4.4-.1.5c0 .2 0 .3.2.5l.5.3Zm7.4 4c.2.2.5.3.9.3h1l.7-.4.3-.6c0-.2 0-.4-.3-.5-.1-.2-.4-.3-.7-.4a3 3 0 0 0-1 0c-.4 0-.7 0-1 .2-.2.2-.4.4-.4.7 0 .3.2.5.5.7Zm7.4 4c.2.2.5.3.8.3h.8c.3 0 .5-.2.7-.3l.2-.5c0-.2 0-.3-.2-.5l-.7-.3h-.8a2 2 0 0 0-.8.2c-.3.1-.4.4-.4.6 0 .2.1.4.4.6Zm7.4 4.2.7.2h.7l.5-.3.2-.4c0-.1 0-.3-.2-.4l-.5-.3a2 2 0 0 0-.7 0l-.6.2c-.3.1-.4.3-.4.5s.1.3.3.5Zm7.5 4 .5.2h.5l.4-.3.1-.2-.1-.3a1 1 0 0 0-.4-.2h-1l-.2.3v.4l.2.1ZM4 72.1Zm7 4.3.1.1a.6.6 0 0 0 .3 0h.2V76h-.2a.6.6 0 0 0-.4 0l-.1.2.1.1Zm7 4.3c.3.2.8.2 1 0 .3-.1.3-.4 0-.5a1 1 0 0 0-1 0c-.2.1-.2.4 0 .5Zm7 4.3.7.2.7-.1.2-.2v-.5l-.2-.1-.7-.2-.6.2c-.2.1-.2.2-.3.4l.3.3Zm7.2 4.3c.2.2.5.2.8.2.4 0 .7 0 .9-.2.2-.1.4-.3.4-.5l-.4-.5-.9-.2-.8.2-.4.5c0 .2.2.4.4.5Zm7.1 4.3c.2.2.6.3 1 .3s.7-.1 1-.3c.3-.1.4-.4.4-.6 0-.2-.1-.4-.4-.6l-1-.2c-.4 0-.8 0-1 .2-.3.2-.5.4-.5.6 0 .2.2.5.5.6Zm7 4.3.9.3 1-.1c.3 0 .5-.2.7-.4.2-.1.3-.3.3-.5s0-.4-.3-.5l-.7-.4h-1c-.3 0-.6 0-.9.2-.3.2-.4.4-.4.7 0 .3.1.5.4.7Zm7.1 4.3 1 .3 1-.1c.4 0 .7-.2.9-.4l.3-.6-.3-.6a2 2 0 0 0-.9-.4h-1c-.4 0-.7.1-1 .3-.3.2-.5.4-.5.7 0 .3.2.6.5.8Zm7.3 4.2c.7.4 2 .4 2.7 0 .8-.5.8-1.2 0-1.6a3 3 0 0 0-2.7 0c-.8.4-.8 1.1 0 1.6Zm7.2 4.2c.8.4 2 .4 2.8 0 .7-.5.7-1.2 0-1.6a3 3 0 0 0-2.8 0c-.8.4-.8 1.1 0 1.6Zm7.3 4.1c.2.2.6.3 1 .3h1l.8-.4.3-.6c0-.3 0-.5-.3-.6a2 2 0 0 0-.8-.4h-1c-.4 0-.8 0-1 .2-.4.2-.6.5-.6.8 0 .2.2.5.6.7Zm7.3 4.2a3 3 0 0 0 2.6 0c.7-.4.7-1.1 0-1.5-.8-.4-2-.4-2.6 0-.7.4-.7 1 0 1.5Zm7.3 4.1.9.3h1l.7-.5c.2-.1.3-.3.3-.5s-.1-.4-.3-.5l-.7-.4h-1c-.3 0-.6 0-.9.2-.3.2-.5.5-.5.7 0 .3.2.5.5.7Zm7.4 4c.2.2.5.3.8.3h.8c.3 0 .5-.2.7-.3.2-.2.2-.3.2-.5s0-.3-.2-.5l-.7-.3H98a2 2 0 0 0-.8.2c-.3.2-.4.4-.4.6 0 .2.1.4.4.6Zm7.4 4.2a2 2 0 0 0 1.8 0c.5-.3.5-.8 0-1a2 2 0 0 0-1.8 0c-.5.2-.5.7 0 1Zm7.4 4.1.8.1.7-.1.2-.4c0-.2 0-.3-.2-.4-.2-.2-.5-.2-.7-.2-.3 0-.6 0-.8.2l-.2.4c0 .1 0 .3.2.4ZM4 80.5h.2v-.1h-.4l.1.1Zm7 4.3c.1.2.4.2.6 0 .2 0 .2-.2 0-.3a.7.7 0 0 0-.7 0v.3Zm7 4.3.4.2h.4l.4-.2.1-.3-.1-.2-.4-.2h-.4a1 1 0 0 0-.4.1l-.2.2v.3l.2.1Zm7.1 4.3.7.2c.2 0 .5 0 .7-.2v-.3c0-.1 0-.3-.2-.3l-.5-.2h-.6l-.3.4c0 .2 0 .3.2.4Zm7.1 4.3c.5.2 1.2.2 1.6 0 .5-.3.5-.7 0-1-.4-.2-1.1-.2-1.6 0-.4.3-.4.7 0 1Zm7.1 4.3c.5.3 1.4.3 2 0 .5-.4.5-.9 0-1.2-.6-.3-1.5-.3-2 0s-.5.8 0 1.1Zm7.2 4.2.7.2h.9c.3 0 .5-.2.7-.3l.2-.5c0-.2 0-.4-.2-.5-.2-.1-.4-.3-.7-.3-.3 0-.6-.1-.8 0a2 2 0 0 0-.8.2 1 1 0 0 0-.3.2l-.2.4s0 .2.2.3l.3.3Zm7.2 4.2c.6.4 1.6.4 2.2 0 .6-.3.6-1 0-1.3-.6-.3-1.6-.3-2.2 0-.7.4-.7 1 0 1.3Zm7.2 4.2c.6.4 1.6.4 2.3 0 .6-.4.6-1 0-1.3-.7-.4-1.7-.4-2.3 0-.7.4-.7 1 0 1.3Zm7.2 4.2.9.2h.9c.3 0 .5-.2.7-.4.2-.1.3-.3.3-.5l-.3-.5c-.2-.1-.4-.3-.7-.3h-1c-.2 0-.5 0-.7.2-.2 0-.3.2-.4.3l-.1.3.1.4.3.3Zm7.3 4.2c.6.3 1.6.3 2.2 0 .6-.4.6-1 0-1.3-.6-.3-1.6-.3-2.2 0-.6.3-.6.9 0 1.2Zm7.4 4c.5.4 1.4.4 2 0 .5-.3.5-.7 0-1-.6-.4-1.5-.4-2 0-.5.3-.5.8 0 1Zm7.4 4.2.6.2h.7l.5-.3.2-.4c0-.2 0-.3-.2-.4l-.5-.3a2 2 0 0 0-.7 0c-.2 0-.5 0-.6.2-.3.1-.4.3-.4.5s.1.3.4.5Zm7.4 4.1.7.1.7-.1c.2-.1.3-.3.3-.4 0-.2-.1-.3-.3-.4-.2-.2-.5-.2-.7-.2-.3 0-.6 0-.7.2-.2 0-.3.2-.3.4 0 .1 0 .3.3.4ZM3.9 89h.3v-.2l-.2-.1-.1.1v.1Zm7.1 4.2a.8.8 0 0 0 .6 0l.1-.2v-.2a.8.8 0 0 0-.7 0l-.1.2v.2Zm7 4.3.5.1.5-.1.2-.3c0-.1 0-.2-.2-.3h-.2a1 1 0 0 0-.5 0H18c-.2.1-.2.2-.2.3 0 .1 0 .2.2.3Zm7.2 4.2.4.2h.5l.4-.2.2-.3c0-.1 0-.2-.2-.3a1 1 0 0 0-.4-.2h-.5l-.4.1-.2.2-.1.2v.2l.3.1Zm7.1 4.3.7.2c.3 0 .6 0 .8-.2l.2-.2v-.5l-.2-.2-.8-.1-.7.1c-.2.2-.3.3-.3.5 0 .1 0 .3.3.4Zm7.2 4.2c.2.2.5.2.8.2.3 0 .6 0 .8-.2.2 0 .4-.3.4-.4 0-.2-.2-.4-.4-.5l-.8-.2c-.3 0-.6 0-.8.2-.3.1-.4.3-.4.5 0 .1.1.3.4.4Zm7.2 4.2.6.2h.7l.6-.3.2-.4-.2-.4-.6-.2a2 2 0 0 0-.7 0l-.6.1c-.3.2-.4.4-.4.5 0 .2.1.4.4.5Zm7.2 4.2c.2.2.5.3.9.3l.9-.3c.2-.1.3-.3.3-.5s-.1-.3-.3-.5l-1-.2c-.3 0-.6 0-.8.2-.2.2-.4.3-.4.5s.2.4.4.5Zm7.2 4.2.7.2h.7l.6-.3.2-.4-.2-.4-.6-.3h-.7l-.7.2c-.2.1-.3.3-.3.5s0 .4.3.5Zm7.4 4.2.8.2c.3 0 .6 0 .8-.2.2-.1.4-.3.4-.5s-.2-.4-.4-.5l-.8-.2-.8.2c-.3.2-.4.3-.4.5s.1.3.4.5Zm7.3 4.1.7.2c.3 0 .6 0 .8-.2l.2-.4c0-.2-.1-.3-.3-.4l-.7-.2-.7.1c-.2.2-.3.3-.3.5 0 .1 0 .3.3.4Zm7.3 4.1.7.2c.2 0 .5 0 .6-.2.2 0 .3-.2.3-.3 0-.2-.1-.3-.3-.4l-.6-.2c-.3 0-.5 0-.7.2l-.2.4c0 .1 0 .2.2.3ZM3.9 97.3h.3V97h-.3v.2Zm7.1 4.3h.6l.1-.2v-.1l-.3-.1H11v.1h-.1v.2h.1Zm7.1 4.2c.3.1.6.1.8 0 .3-.1.3-.3 0-.5a.9.9 0 0 0-.8 0c-.2.2-.2.4 0 .5Zm7.2 4.2c.3.2.7.2 1 0 .3-.1.3-.4 0-.5a1 1 0 0 0-1 0c-.3.1-.3.4 0 .5Zm7.1 4.3.5.1h.4l.4-.2.2-.2c0-.1 0-.2-.2-.3l-.3-.2h-.5l-.4.1c-.2 0-.3.2-.3.3 0 .2 0 .3.2.4Zm7.3 4.2.4.1h.5l.4-.2.2-.3s0-.2-.2-.3a1 1 0 0 0-.4-.1h-.9l-.2.2-.1.2v.2l.3.2Zm7.2 4.2c.3.2 1 .2 1.3 0 .3-.2.3-.6 0-.8-.4-.2-1-.2-1.3 0-.4.2-.4.6 0 .8Zm7.2 4.2.5.1h.5l.4-.2.2-.3c0-.1 0-.2-.2-.3a1 1 0 0 0-.4-.2h-.5l-.5.1-.2.4c0 .1 0 .3.2.4Zm7.3 4.1c.4.2.9.2 1.2 0 .3-.2.3-.5 0-.7-.3-.2-.8-.2-1.2 0-.3.2-.3.5 0 .7Zm7.4 4.2h1c.3-.2.3-.5 0-.6-.3-.2-.8-.2-1 0-.3.1-.3.4 0 .6ZM4 105.6c0-.1 0-.1-.1 0Zm7.1 4.3h.4v-.2a.3.3 0 0 0-.4 0v.2Zm7.2 4.2h.5l.1-.2v-.1l-.4-.1h-.2l-.2.2c0 .1 0 .2.2.2Zm7.1 4.2h.2a.8.8 0 0 0 .4 0h.1l.1-.2-.1-.1-.3-.1h-.4l-.1.2.1.2Zm7.3 4.2h.7c.2 0 .2-.3 0-.4a.8.8 0 0 0-.7 0c-.2.1-.2.3 0 .4Zm7.2 4.2c.2.2.6.2.8 0 .2-.1.2-.3 0-.4a.9.9 0 0 0-.8 0c-.2 0-.2.3 0 .4Zm7.3 4.2h.8v-.4l-.3-.1a1 1 0 0 0-.3 0h-.2l-.2.3.2.2Zm7.2 4.1c.2.2.5.2.7 0 .2 0 .2-.2 0-.3a.7.7 0 0 0-.7 0c-.2 0-.2.2 0 .4Zm-36-12.6a.2.2 0 0 0 .2 0v-.1h-.2Zm7.3 4.2a.3.3 0 0 0 .2 0v-.2h-.3v.2Zm7.2 4.2h.3v-.2h-.3v.2Zm7.2 4.2h.3v-.2h-.3v.1Z" opacity=".4"/><path fill="#9CBEE5" d="M40.7 74.3v-.2h14v.4c0 .6-.3 1.2-1 1.7L50.3 78c-1.5.9-4.2.8-6-.2L42 76.4c-1-.6-1.5-1.4-1.4-2Z"/><path fill="#DBE9F7" d="m50.4 77.5 3.2-1.9c1.5-.9 1.3-2.4-.4-3.5l-2.3-1.3c-1.8-1-4.5-1.1-6-.2l-3.2 1.8c-1.6 1-1.4 2.5.4 3.5l2.3 1.3a7 7 0 0 0 6 .3Z"/><path fill="#E6EDF3" d="M46.2 63.4H49l3 10.1c0 1.4-2 2.6-4.4 2.6-2.4 0-4.4-1.2-4.4-2.6l3-10Z"/><path fill="#CFE3F8" d="M47.6 64.2c.8 0 1.4-.3 1.4-.8 0-.4-.6-.8-1.4-.8-.7 0-1.4.4-1.4.8 0 .5.7.8 1.4.8Z"/><path fill="#9CBEE5" d="m43.3 73.5.5-2c0 1.3 1.7 2.3 3.8 2.3 2 0 3.8-1 3.8-2.2v-.1l.6 2c0 1.4-2 2.6-4.4 2.6-2.4 0-4.3-1.2-4.3-2.6Zm1.7-6c0 .8 1.2 1.5 2.6 1.5 1.4 0 2.6-.7 2.6-1.5l.6 2c0 1-1.4 1.9-3.2 1.9-1.7 0-3.1-.8-3.1-1.9l.6-2Zm1.2-4.1c0 .4.7.8 1.4.8.8 0 1.4-.4 1.4-.8l.6 2c0 .7-.9 1.2-2 1.2-1 0-2-.5-2-1.1l.6-2Z"/><path fill="#9EB5CC" d="M47.6 64c.6 0 1.1-.3 1.1-.6 0-.4-.5-.6-1-.6-.7 0-1.2.2-1.2.6 0 .3.5.5 1.1.5Z"/><path fill="#9CBEE5" d="M90.7 44.3v-.2h15v.4c0 .6-.3 1.2-1.2 1.7l-3.4 1.8c-1.6.9-4.5.8-6.4-.2l-2.5-1.4c-1.1-.6-1.6-1.4-1.5-2Z"/><path fill="#DBE9F7" d="m101 47.5 3.5-1.9c1.7-.9 1.5-2.4-.4-3.5l-2.5-1.3a7.6 7.6 0 0 0-6.4-.2l-3.4 1.8c-1.7 1-1.5 2.5.4 3.5l2.5 1.3a8 8 0 0 0 6.4.3Z"/><path fill="#E6EDF3" d="M96.6 33.4h3l3.2 10.1c0 1.4-2.1 2.6-4.7 2.6s-4.7-1.2-4.7-2.6l3.2-10Z"/><path fill="#CFE3F8" d="M98.1 34.2c.8 0 1.5-.3 1.5-.8 0-.4-.7-.8-1.5-.8s-1.5.4-1.5.8c0 .5.7.8 1.5.8Z"/><path fill="#9CBEE5" d="m93.4 43.5.7-2c0 1.3 1.8 2.3 4 2.3s4-1 4-2.2v-.1l.7 2c0 1.4-2.1 2.6-4.7 2.6s-4.7-1.2-4.7-2.6Zm2-6c0 .8 1.2 1.5 2.7 1.5 1.5 0 2.8-.7 2.8-1.5l.6 2c0 1-1.5 1.9-3.4 1.9s-3.4-.8-3.4-1.9l.7-2Zm1.2-4.1c0 .4.7.8 1.5.8s1.5-.4 1.5-.8l.6 2c0 .7-1 1.2-2 1.2-1.3 0-2.2-.5-2.2-1.1l.6-2Z"/><path fill="#9EB5CC" d="M98.1 34c.7 0 1.2-.3 1.2-.6 0-.4-.5-.6-1.2-.6s-1.2.2-1.2.6c0 .3.5.5 1.2.5ZM64.2 81l3.4 2v.8l-11 6.2-3.3-2v-.7L64.1 81Z"/><path fill="#DBE9F7" d="m64.2 81 3.4 2-11 6.2-3.3-2z"/><path fill="#9EB5CC" d="m80.7 90.3 3.4 2v.8l-11 6.2-3.4-2v-.7l11-6.3Z"/><path fill="#DBE9F7" d="m80.7 90.3 3.4 2-11 6.2-3.4-2z"/><path fill="#9EB5CC" d="m58.4 70.9 3.4 2v13.3l-.4.3-3.5-2V71h.5Z"/><path fill="#CFE3F8" d="m58 70.9 3.3 2v13.6l-3.4-2z"/><path fill="#9EB5CC" d="m75.4 80 3.4 2v13.3l-.4.3-3.5-2V80h.5Z"/><path fill="#CFE3F8" d="m75 80 3.3 2v13.6l-3.4-2z"/><path fill="#9EB5CC" d="m57 71.7 22.2 12.5v4h-.5L57.2 75.9l-.6-4.1h.3Z"/><mask id="c" width="23" height="18" x="56" y="71" maskUnits="userSpaceOnUse" style="mask-type:alpha"><path fill="url(#b)" d="M0 0h25.5v4.1H0z" transform="matrix(.8701 .49286 0 1 56.6 71.7)"/></mask><g mask="url(#c)"><path fill="#9CBEE5" d="M50.7 66.3h2.5l4 18.7-2.5.1z"/><path fill="#E6EDF3" d="M53.6 67.6H56l4 18.7h-2.5z"/><path fill="#9CBEE5" d="M56.4 68.9H59l4 18.7h-2.5z"/><path fill="#E6EDF3" d="M59.3 70.1h2.5l4 18.7h-2.5z"/><path fill="#9CBEE5" d="M62 71.4h2.6l4 18.7h-2.5z"/><path fill="#E6EDF3" d="M65 72.6h2.4l4 18.8H69z"/><path fill="#9CBEE5" d="m67.8 74 2.5-.1 4 18.7h-2.5z"/><path fill="#E6EDF3" d="M70.6 75.2H73l4 18.7h-2.5z"/><path fill="#9CBEE5" d="M73.4 76.4H76L80 95l-2.5.1z"/><path fill="#E6EDF3" d="M76.3 77.7h2.5l4 18.7h-2.5z"/></g><path fill="#9EB5CC" d="m110.2 51 3.4 2v.8l-11 6.2-3.3-2v-.7l10.9-6.3Z"/><path fill="#DBE9F7" d="m110.2 51 3.4 2-11 6.2-3.3-2z"/><path fill="#9EB5CC" d="m126.7 60.3 3.4 2v.8l-11 6.2-3.4-2v-.7l11-6.3Z"/><path fill="#DBE9F7" d="m126.7 60.3 3.4 2-11 6.2-3.4-2z"/><path fill="#9EB5CC" d="m104.4 40.9 3.4 2v13.3l-.4.3-3.5-2V41h.5Z"/><path fill="#CFE3F8" d="m104 40.9 3.3 2v13.6l-3.4-2z"/><path fill="#9EB5CC" d="m121.4 50 3.4 2v13.3l-.4.3-3.5-2V50h.5Z"/><path fill="#CFE3F8" d="m121 50 3.3 2v13.6l-3.4-2z"/><path fill="#9EB5CC" d="m103 41.7 22.2 12.5v4h-.5l-21.5-12.4-.6-4.1h.3Z"/><mask id="e" width="23" height="18" x="102" y="41" maskUnits="userSpaceOnUse" style="mask-type:alpha"><path fill="url(#d)" d="M0 0h25.5v4.1H0z" transform="matrix(.8701 .49286 0 1 102.6 41.7)"/></mask><g mask="url(#e)"><path fill="#9CBEE5" d="M96.7 36.3h2.5l4 18.7-2.5.1z"/><path fill="#E6EDF3" d="M99.6 37.6h2.5l4 18.7h-2.5z"/><path fill="#9CBEE5" d="M102.4 38.9h2.5l4 18.7h-2.5z"/><path fill="#E6EDF3" d="M105.3 40.1h2.5l4 18.7h-2.5z"/><path fill="#9CBEE5" d="M108 41.4h2.6l4 18.7h-2.5z"/><path fill="#E6EDF3" d="M111 42.6h2.4l4 18.8H115z"/><path fill="#9CBEE5" d="m113.8 44 2.5-.1 4 18.7h-2.5z"/><path fill="#E6EDF3" d="M116.6 45.2h2.5l4 18.7h-2.5z"/><path fill="#9CBEE5" d="M119.4 46.4h2.5l4 18.7-2.5.1z"/><path fill="#E6EDF3" d="M122.3 47.7h2.5l4 18.7h-2.5z"/></g><path fill="#9EB5CC" d="m92.2 98 3.4 2v.8l-11 6.2-3.3-2v-.7L92.1 98Z"/><path fill="#DBE9F7" d="m92.2 98 3.4 2-11 6.2-3.3-2z"/><path fill="#9EB5CC" d="m108.7 107.3 3.4 2v.8l-11 6.2-3.4-2v-.7l11-6.3Z"/><path fill="#DBE9F7" d="m108.7 107.3 3.4 2-11 6.2-3.4-2z"/><path fill="#9EB5CC" d="m86.4 87.9 3.4 2v13.3l-.4.3-3.5-2V88h.5Z"/><path fill="#CFE3F8" d="m86 87.9 3.3 2v13.6l-3.4-2z"/><path fill="#9EB5CC" d="m103.4 97 3.4 2v13.3l-.4.3-3.5-2V97h.5Z"/><path fill="#CFE3F8" d="m103 97 3.3 2v13.6l-3.4-2z"/><path fill="#9EB5CC" d="m85 88.7 22.2 12.5v4h-.5L85.2 92.9l-.6-4.1h.3Z"/><mask id="g" width="23" height="18" x="84" y="88" maskUnits="userSpaceOnUse" style="mask-type:alpha"><path fill="url(#f)" d="M0 0h25.5v4.1H0z" transform="matrix(.8701 .49286 0 1 84.6 88.7)"/></mask><g mask="url(#g)"><path fill="#9CBEE5" d="M78.7 83.3h2.5l4 18.7-2.5.1z"/><path fill="#E6EDF3" d="M81.6 84.6H84l4 18.7h-2.5z"/><path fill="#9CBEE5" d="M84.4 85.9H87l4 18.7h-2.5z"/><path fill="#E6EDF3" d="M87.3 87.1h2.5l4 18.7h-2.5z"/><path fill="#9CBEE5" d="M90 88.4h2.6l4 18.7h-2.5z"/><path fill="#E6EDF3" d="M93 89.6h2.4l4 18.8H97z"/><path fill="#9CBEE5" d="m95.8 91 2.5-.1 4 18.7h-2.5z"/><path fill="#E6EDF3" d="M98.6 92.2h2.5l4 18.7h-2.5z"/><path fill="#9CBEE5" d="M101.4 93.4h2.5l4 18.7-2.5.1z"/><path fill="#E6EDF3" d="M104.3 94.7h2.5l4 18.7h-2.5z"/></g><path fill="#9EB5CC" d="m137.2 66 3.4 2v.8l-11 6.2-3.3-2v-.7l10.9-6.3Z"/><path fill="#DBE9F7" d="m137.2 66 3.4 2-11 6.2-3.3-2z"/><path fill="#9EB5CC" d="m153.7 75.3 3.4 2v.8l-11 6.2-3.4-2v-.7l11-6.3Z"/><path fill="#DBE9F7" d="m153.7 75.3 3.4 2-11 6.2-3.4-2z"/><path fill="#9EB5CC" d="m131.4 55.9 3.4 2v13.3l-.4.3-3.5-2V56h.5Z"/><path fill="#CFE3F8" d="m131 55.9 3.3 2v13.6l-3.4-2z"/><path fill="#9EB5CC" d="m148.4 65 3.4 2v13.3l-.4.3-3.5-2V65h.5Z"/><path fill="#CFE3F8" d="m148 65 3.3 2v13.6l-3.4-2z"/><path fill="#9EB5CC" d="m130 56.7 22.2 12.5v4h-.5l-21.5-12.4-.6-4.1h.3Z"/><mask id="i" width="23" height="18" x="129" y="56" maskUnits="userSpaceOnUse" style="mask-type:alpha"><path fill="url(#h)" d="M0 0h25.5v4.1H0z" transform="matrix(.8701 .49286 0 1 129.6 56.7)"/></mask><g mask="url(#i)"><path fill="#9CBEE5" d="M123.7 51.3h2.5l4 18.7-2.5.1z"/><path fill="#E6EDF3" d="M126.6 52.6h2.5l4 18.7h-2.5z"/><path fill="#9CBEE5" d="M129.4 53.9h2.5l4 18.7h-2.5z"/><path fill="#E6EDF3" d="M132.3 55.1h2.5l4 18.7h-2.5z"/><path fill="#9CBEE5" d="M135 56.4h2.6l4 18.7h-2.5z"/><path fill="#E6EDF3" d="M138 57.6h2.4l4 18.8H142z"/><path fill="#9CBEE5" d="m140.8 59 2.5-.1 4 18.7h-2.5z"/><path fill="#E6EDF3" d="M143.6 60.2h2.5l4 18.7h-2.5z"/><path fill="#9CBEE5" d="M146.4 61.4h2.5l4 18.7-2.5.1z"/><path fill="#E6EDF3" d="M149.3 62.7h2.5l4 18.7h-2.5z"/></g><path fill="#9CBEE5" d="M112.7 115v-.2h14v.4c0 .7-.3 1.3-1 1.8l-3.3 2c-1.5 1-4.2.8-6-.3l-2.3-1.4c-1-.6-1.5-1.5-1.4-2.3Z"/><path fill="#DBE9F7" d="m122.4 118.4 3.2-2c1.5-1 1.3-2.6-.4-3.7l-2.3-1.4c-1.8-1-4.5-1.2-6-.2l-3.2 2c-1.6.9-1.4 2.5.4 3.6l2.3 1.4c1.8 1.1 4.5 1.2 6 .3Z"/><path fill="#E6EDF3" d="M118.2 103.5h2.8l3 10.7c0 1.5-2 2.7-4.4 2.7-2.4 0-4.4-1.2-4.4-2.7l3-10.7Z"/><path fill="#CFE3F8" d="M119.6 104.3c.8 0 1.4-.4 1.4-.8 0-.5-.6-.9-1.4-.9-.7 0-1.4.4-1.4.9 0 .4.7.8 1.4.8Z"/><path fill="#9CBEE5" d="m115.3 114.2.5-2.1c0 1.3 1.7 2.4 3.8 2.4 2 0 3.8-1 3.8-2.4l.6 2v.1c0 1.5-2 2.7-4.4 2.7-2.4 0-4.3-1.2-4.3-2.7Zm1.7-6.4c0 .9 1.2 1.6 2.6 1.6 1.4 0 2.6-.7 2.6-1.6l.6 2.1c0 1.1-1.4 2-3.2 2-1.7 0-3.1-.9-3.1-2l.6-2.1Zm1.2-4.3c0 .4.7.8 1.4.8.8 0 1.4-.4 1.4-.8l.6 2.1c0 .7-.9 1.2-2 1.2-1 0-2-.5-2-1.2l.6-2.1Z"/><path fill="#9EB5CC" d="M119.6 104c.6 0 1.1-.2 1.1-.6 0-.3-.5-.6-1-.6-.7 0-1.2.3-1.2.6 0 .4.5.6 1.1.6Z"/><path fill="#9CBEE5" d="M157.7 87v-.2h14v.4c0 .7-.3 1.3-1 1.8l-3.3 2c-1.5 1-4.2.8-6-.3l-2.3-1.4c-1-.6-1.5-1.5-1.4-2.3Z"/><path fill="#DBE9F7" d="m167.4 90.4 3.2-2c1.5-1 1.3-2.6-.4-3.7l-2.3-1.4c-1.8-1-4.5-1.2-6-.2l-3.2 2c-1.6.9-1.4 2.5.4 3.6l2.3 1.4c1.8 1.1 4.5 1.2 6 .3Z"/><path fill="#E6EDF3" d="M163.2 75.5h2.8l3 10.7c0 1.5-2 2.7-4.4 2.7-2.4 0-4.4-1.2-4.4-2.7l3-10.7Z"/><path fill="#CFE3F8" d="M164.6 76.3c.8 0 1.4-.4 1.4-.8 0-.5-.6-.9-1.4-.9-.7 0-1.4.4-1.4.9 0 .4.7.8 1.4.8Z"/><path fill="#9CBEE5" d="m160.3 86.2.5-2.1c0 1.3 1.7 2.4 3.8 2.4 2 0 3.8-1 3.8-2.4l.6 2v.1c0 1.5-2 2.7-4.4 2.7-2.4 0-4.3-1.2-4.3-2.7Zm1.7-6.4c0 .9 1.2 1.6 2.6 1.6 1.4 0 2.6-.7 2.6-1.6l.6 2.1c0 1.1-1.4 2-3.2 2-1.7 0-3.1-.9-3.1-2l.6-2.1Zm1.2-4.3c0 .4.7.8 1.4.8.8 0 1.4-.4 1.4-.8l.6 2.1c0 .7-.9 1.2-2 1.2-1 0-2-.5-2-1.2l.6-2.1Z"/><path fill="#9EB5CC" d="M164.6 76c.6 0 1.1-.2 1.1-.6 0-.3-.5-.6-1-.6-.7 0-1.2.3-1.2.6 0 .4.5.6 1.1.6ZM75 52l-3.3 2v.8l11 6.2 3.3-2v-.7L75 52Z"/><path fill="#DBE9F7" d="m75 52-3.3 2 11 6.2 3.3-2z"/><path fill="#9EB5CC" d="m58.6 61.3-3.4 2v.8l11 6.2 3.3-2 .1-.7-11-6.3Z"/><path fill="#DBE9F7" d="m58.6 61.3-3.4 2 11 6.2 3.4-2z"/><path fill="#9EB5CC" d="m80.8 41.9-3.4 2v13.3l.5.3 3.4-2V42h-.5Z"/><path fill="#CFE3F8" d="m81.3 41.9-3.3 2v13.6l3.3-2z"/><path fill="#9EB5CC" d="m63.8 51-3.4 2v13.3l.5.3 3.4-2V51h-.5Z"/><path fill="#CFE3F8" d="M64.3 51 61 53v13.6l3.3-2z"/><path fill="#9EB5CC" d="M82.4 42.7 60 55.2v4h.4L82 46.8l.6-4.1h-.3Z"/><mask id="k" width="23" height="18" x="60" y="42" maskUnits="userSpaceOnUse" style="mask-type:alpha"><path fill="url(#j)" d="M0 0h25.5v4.1H0z" transform="matrix(-.8701 .49286 0 1 82.7 42.7)"/></mask><g mask="url(#k)"><path fill="#9CBEE5" d="M88.6 37.3H86L82 56l2.5.1z"/><path fill="#E6EDF3" d="M85.7 38.6h-2.5l-4 18.7h2.5z"/><path fill="#9CBEE5" d="M82.9 39.9h-2.5l-4 18.7h2.5z"/><path fill="#E6EDF3" d="M80 41.1h-2.5l-4 18.7H76z"/><path fill="#9CBEE5" d="M77.2 42.4h-2.5l-4 18.7h2.5z"/><path fill="#E6EDF3" d="M74.4 43.6h-2.5l-4 18.8h2.5z"/><path fill="#9CBEE5" d="m71.5 45-2.5-.1-4 18.7h2.5z"/><path fill="#E6EDF3" d="M68.7 46.2h-2.5l-4 18.7h2.5z"/><path fill="#9CBEE5" d="M65.9 47.4h-2.5l-4 18.7 2.5.1z"/><path fill="#E6EDF3" d="M63 48.7h-2.5l-4 18.7H59z"/></g><path fill="#9EB5CC" d="M132.6 52c0-2.1-1.6-4.8-3.5-5.9L80.9 18.3c-.8-.5-1.6-.6-2.2-.3l-3 1.2c-.7.3-1.2 1.2-1.1 2.4l.3 45.6c0 2.2 1.5 4.8 3.4 6l48.8 28.4c1 .6 1.9.6 2.5.2l2.4-1.7c.6-.4.9-1.2.9-2.2l-.3-45.8Z"/><path fill="#E6EDF3" d="M129.8 54c0-2.1-1.5-4.8-3.5-6L78 20.2c-2-1.1-3.5-.2-3.5 2v45.4c0 2.2 1.5 5 3.5 6l48.4 28c2 1.1 3.5.2 3.5-2V54.1Z"/><path fill="#00253D" d="M129.8 54c0-2.1-1.5-4.8-3.5-6L78 20.2c-2-1.1-3.5-.2-3.5 2v.5l55.4 32V54Z"/><path fill="#DBE9F7" d="M120.4 46c-.4-.3-.8-.1-.8.4a1.7 1.7 0 0 0 .8 1.4c.5.2.8 0 .8-.5a1.8 1.8 0 0 0-.8-1.4Zm2.8 1.5c-.5-.2-.8 0-.8.5a1.7 1.7 0 0 0 .8 1.4c.4.2.8 0 .8-.5a1.8 1.8 0 0 0-.8-1.4Zm2.8 1.6c-.5-.2-.9 0-.9.5a1.8 1.8 0 0 0 .8 1.4c.5.2.8 0 .8-.5a1.8 1.8 0 0 0-.8-1.4Z"/><path fill="#9EB5CC" fill-rule="evenodd" d="m107.6 49.8-10.4-6-7.4 4.2v12l7.4 12.7 10.6 6.1 7.4-4.2v-12l-7.6-12.8Z" clip-rule="evenodd"/><path fill="#00253D" fill-rule="evenodd" d="m106 51-10.4-6-7.5 4.2v12.1L95.6 74l10.5 6 7.5-4.2V64L106 51Z" clip-rule="evenodd"/><path fill="#fff" fill-rule="evenodd" d="m104.9 52.9-8.5-5-6.1 3.5v9.9l6 10.4 8.7 5 6-3.5v-9.8L105 53Zm-4.3 16.3a3.4 3.4 0 0 1-1.5-2.5c0-1 .7-1.4 1.5-.9.8.5 1.5 1.7 1.5 2.6 0 1-.7 1.3-1.5.8ZM99.5 63l2.3 1.3v-7.9L99.5 55v8Z" clip-rule="evenodd"/><path fill="#9EB5CC" d="m149 93.4-3.3 2v.8l11 6.5 3.3-2v-.9l-11-6.4Z"/><path fill="#DBE9F7" d="m149 93.4-3.3 2 11 6.4 3.3-2z"/><path fill="#9EB5CC" d="m132.6 103-3.4 2v.9l11 6.4 3.4-2v-.8l-11-6.5Z"/><path fill="#DBE9F7" d="m132.6 103-3.3 2 11 6.4 3.3-2z"/><path fill="#9EB5CC" d="m154.8 82.9-3.4 2v13.9l.5.3 3.4-2V82.9h-.5Z"/><path fill="#CFE3F8" d="m155.3 82.9-3.3 2V99l3.3-2z"/><path fill="#9EB5CC" d="m137.8 92.3-3.4 2v13.9l.5.3 3.4-2V92.3h-.5Z"/><path fill="#CFE3F8" d="m138.3 92.3-3.3 2v14.2l3.3-2z"/><path fill="#9EB5CC" d="m156.4 83.7-22.3 13v4.2h.4L156.1 88l.6-4.3h-.3Z"/><mask id="m" width="23" height="18" x="134" y="83" maskUnits="userSpaceOnUse" style="mask-type:alpha"><path fill="url(#l)" d="M0 0h25.7v4.2H0z" transform="matrix(-.86279 .50557 0 1 156.7 83.7)"/></mask><g mask="url(#m)"><path fill="#9CBEE5" d="M162.6 78.2H160l-4 19.3 2.6.1z"/><path fill="#E6EDF3" d="M159.7 79.5h-2.6l-4 19.3 2.7.1z"/><path fill="#9CBEE5" d="M156.9 80.8h-2.6l-4 19.4h2.6z"/><path fill="#E6EDF3" d="M154 82.1h-2.6l-4 19.4h2.7z"/><path fill="#9CBEE5" d="M151.2 83.4h-2.6l-4 19.4h2.6z"/><path fill="#E6EDF3" d="M148.4 84.7h-2.6l-4 19.4h2.6z"/><path fill="#9CBEE5" d="M145.5 86H143l-4 19.4h2.7z"/><path fill="#E6EDF3" d="M142.7 87.3h-2.6l-4 19.4h2.6z"/><path fill="#9CBEE5" d="m139.9 88.7-2.6-.1-4 19.4h2.6z"/><path fill="#E6EDF3" d="m137 90-2.6-.1-4 19.4h2.7z"/></g></g><defs><linearGradient id="b" x1="12.7" x2="12.7" y1="0" y2="4.1" gradientUnits="userSpaceOnUse"><stop stop-color="#D941AE"/><stop offset=".1" stop-color="#D941AE"/><stop offset="1" stop-color="#D941AE"/></linearGradient><linearGradient id="d" x1="12.7" x2="12.7" y1="0" y2="4.1" gradientUnits="userSpaceOnUse"><stop stop-color="#D941AE"/><stop offset=".1" stop-color="#D941AE"/><stop offset="1" stop-color="#D941AE"/></linearGradient><linearGradient id="f" x1="12.7" x2="12.7" y1="0" y2="4.1" gradientUnits="userSpaceOnUse"><stop stop-color="#D941AE"/><stop offset=".1" stop-color="#D941AE"/><stop offset="1" stop-color="#D941AE"/></linearGradient><linearGradient id="h" x1="12.7" x2="12.7" y1="0" y2="4.1" gradientUnits="userSpaceOnUse"><stop stop-color="#D941AE"/><stop offset=".1" stop-color="#D941AE"/><stop offset="1" stop-color="#D941AE"/></linearGradient><linearGradient id="j" x1="12.7" x2="12.7" y1="0" y2="4.1" gradientUnits="userSpaceOnUse"><stop stop-color="#D941AE"/><stop offset=".1" stop-color="#D941AE"/><stop offset="1" stop-color="#D941AE"/></linearGradient><linearGradient id="l" x1="12.8" x2="12.8" y1="0" y2="4.2" gradientUnits="userSpaceOnUse"><stop stop-color="#D941AE"/><stop offset=".1" stop-color="#D941AE"/><stop offset="1" stop-color="#D941AE"/></linearGradient><clipPath id="a"><path fill="#fff" d="M.5 0h210v137H.5z"/></clipPath></defs></svg>