<svg xmlns="http://www.w3.org/2000/svg" width="460" height="300" fill="none"><path stroke="#9EB5CC" stroke-dasharray="0.87 0.87" stroke-linecap="round" stroke-width=".294" d="m203.809 262.855 157.308-94.128M320.798 145.362l14.872-8.549M347.301 160.833l16.427-9.688M315.98 125.054l23.038-13.367"/><path stroke="#9EB5CC" stroke-dasharray="0.87 0.87" stroke-linecap="round" stroke-width=".294" d="M.147-.147h16.48" transform="rotate(-30.503 330.288 -541.506)"/><path stroke="#9EB5CC" stroke-dasharray="0.87 0.87" stroke-linecap="round" stroke-width=".294" d="m153.517 280.212 36.734-23.931M96.116 196.904l107.594 65.95M320.945 145.51l39.616 23.318M251.704 187.614l39.078 23.001M258.814 145.51l39.078 23.002M311.083 122.382l24.734 14.283M318.923 100.324l19.793 11.43M114.925 259.074l38.692 21.069"/><path fill="#BBD0E6" fill-rule="evenodd" d="M130.622 182.551c-1.056-.609-1.056-1.597 0-2.207l.426-.246-.098-1.166 1.835.163 110.677-63.899c1.056-.61 2.767-.61 3.823 0l72.256 41.717 1.111-.383-.057.991.46.266c1.056.609 1.056 1.597 0 2.207l-112.84 65.148c-1.056.61-2.767.61-3.823 0l-73.77-42.591Z" clip-rule="evenodd"/><rect width="134.372" height="90.002" fill="#E6EDF3" rx="2.06" transform="matrix(.86603 -.5 .86603 .5 128.637 178.687)"/><rect width="42.572" height="25.292" x=".255" stroke="#9EB5CC" stroke-width=".294" opacity=".5" rx="1.177" transform="matrix(.86603 -.5 .86603 .5 222.128 186.456)"/><rect width="115.799" height="52.905" x=".255" stroke="#9EB5CC" stroke-width=".294" opacity=".5" rx="1.177" transform="matrix(.86603 -.5 .86603 .5 141.304 175.886)"/><rect width="5.921" height="5.921" fill="#BBD0E6" rx=".524" transform="matrix(.86575 -.50016 .8663 .49984 181.038 165.006)"/><rect width="5.921" height="5.921" fill="#BBD0E6" rx=".524" transform="matrix(.86575 -.50016 .8663 .49984 187.224 161.176)"/><rect width="5.921" height="5.921" fill="#BBD0E6" rx=".524" transform="matrix(.86575 -.50016 .8663 .49984 206.242 150.445)"/><rect width="5.921" height="5.921" fill="#BBD0E6" rx=".524" transform="matrix(.86575 -.50016 .8663 .49984 162.134 175.927)"/><rect width="5.921" height="5.921" fill="#BBD0E6" rx=".524" transform="matrix(.86575 -.50016 .8663 .49984 212.543 146.805)"/><rect width="5.921" height="5.921" fill="#BBD0E6" rx=".524" transform="matrix(.86575 -.50016 .8663 .49984 168.435 172.287)"/><rect width="5.921" height="5.921" fill="#BBD0E6" rx=".524" transform="matrix(.86575 -.50016 .8663 .49984 193.639 157.726)"/><rect width="5.921" height="5.921" fill="#BBD0E6" rx=".524" transform="matrix(.86575 -.50016 .8663 .49984 218.843 143.165)"/><rect width="5.921" height="5.921" fill="#BBD0E6" rx=".524" transform="matrix(.86575 -.50016 .8663 .49984 174.735 168.646)"/><rect width="5.921" height="5.921" fill="#BBD0E6" rx=".524" transform="matrix(.86575 -.50016 .8663 .49984 199.94 154.085)"/><rect width="5.921" height="5.921" fill="#BBD0E6" rx=".524" transform="matrix(.86575 -.50016 .8663 .49984 242.236 152.966)"/><rect width="5.921" height="5.921" fill="#BBD0E6" rx=".524" transform="matrix(.86575 -.50016 .8663 .49984 248.537 149.325)"/><rect width="5.921" height="5.921" fill="#BBD0E6" rx=".524" transform="matrix(.86575 -.50016 .8663 .49984 239.775 146.613)"/><rect width="5.921" height="5.921" fill="#BBD0E6" rx=".524" transform="matrix(.86575 -.50016 .8663 .49984 246.077 142.973)"/><rect width="5.921" height="5.921" fill="#BBD0E6" rx=".524" transform="matrix(.86575 -.50016 .8663 .49984 238.178 139.769)"/><rect width="5.921" height="5.921" fill="#BBD0E6" rx=".524" transform="matrix(.86575 -.50016 .8663 .49984 244.48 136.129)"/><rect width="5.921" height="5.921" fill="#BBD0E6" rx=".524" transform="matrix(.86575 -.50016 .8663 .49984 235.935 156.605)"/><rect width="5.921" height="5.921" fill="#BBD0E6" rx=".524" transform="matrix(.86575 -.50016 .8663 .49984 225.144 139.524)"/><rect width="5.921" height="5.921" fill="#BBD0E6" rx=".524" transform="matrix(.86575 -.50016 .8663 .49984 231.446 135.884)"/><rect width="5.921" height="5.921" fill="#BBD0E6" rx=".524" transform="matrix(.86575 -.50016 .8663 .49984 155.833 179.567)"/><rect width="5.921" height="5.921" fill="#BBD0E6" rx=".524" transform="matrix(.86575 -.50016 .8663 .49984 175.168 176.171)"/><rect width="5.921" height="5.921" fill="#BBD0E6" rx=".524" transform="matrix(.86575 -.50016 .8663 .49984 191.828 182.087)"/><rect width="5.921" height="5.921" fill="#BBD0E6" rx=".524" transform="matrix(.86575 -.50016 .8663 .49984 183.066 179.375)"/><rect width="5.921" height="5.921" fill="#BBD0E6" rx=".524" transform="matrix(.86575 -.50016 .8663 .49984 200.372 161.61)"/><rect width="5.921" height="5.921" fill="#BBD0E6" rx=".524" transform="matrix(.86575 -.50016 .8663 .49984 217.032 167.527)"/><rect width="5.921" height="5.921" fill="#BBD0E6" rx=".524" transform="matrix(.86575 -.50016 .8663 .49984 208.271 164.814)"/><rect width="5.921" height="5.921" fill="#BBD0E6" rx=".524" transform="matrix(.86575 -.50016 .8663 .49984 225.576 147.05)"/><rect width="5.921" height="5.921" fill="#BBD0E6" rx=".524" transform="matrix(.86575 -.50016 .8663 .49984 181.469 172.531)"/><rect width="5.921" height="5.921" fill="#BBD0E6" rx=".524" transform="matrix(.86575 -.50016 .8663 .49984 198.129 178.447)"/><rect width="5.921" height="5.921" fill="#BBD0E6" rx=".524" transform="matrix(.86575 -.50016 .8663 .49984 189.368 175.735)"/><rect width="5.921" height="5.921" fill="#BBD0E6" rx=".524" transform="matrix(.86575 -.50016 .8663 .49984 206.673 157.97)"/><rect width="5.921" height="5.921" fill="#BBD0E6" rx=".524" transform="matrix(.86575 -.50016 .8663 .49984 223.333 163.886)"/><rect width="5.921" height="5.921" fill="#BBD0E6" rx=".524" transform="matrix(.86575 -.50016 .8663 .49984 214.571 161.174)"/><rect width="5.921" height="5.921" fill="#BBD0E6" rx=".524" transform="matrix(.86575 -.50016 .8663 .49984 231.877 143.409)"/><rect width="5.921" height="5.921" fill="#BBD0E6" rx=".524" transform="matrix(.86575 -.50016 .8663 .49984 187.77 168.891)"/><rect width="5.921" height="5.921" fill="#BBD0E6" rx=".524" transform="matrix(.86575 -.50016 .8663 .49984 204.43 174.807)"/><rect width="5.921" height="5.921" fill="#BBD0E6" rx=".524" transform="matrix(.86575 -.50016 .8663 .49984 195.668 172.094)"/><rect width="5.921" height="5.921" fill="#BBD0E6" rx=".524" transform="matrix(.86575 -.50016 .8663 .49984 212.974 154.33)"/><rect width="5.921" height="5.921" fill="#BBD0E6" rx=".524" transform="matrix(.86575 -.50016 .8663 .49984 229.634 160.246)"/><rect width="5.921" height="5.921" fill="#BBD0E6" rx=".524" transform="matrix(.86575 -.50016 .8663 .49984 220.872 157.534)"/><rect width="5.921" height="5.921" fill="#BBD0E6" rx=".524" transform="matrix(.86575 -.50016 .8663 .49984 194.071 165.25)"/><rect width="5.921" height="5.921" fill="#BBD0E6" rx=".524" transform="matrix(.86575 -.50016 .8663 .49984 210.731 171.167)"/><rect width="5.921" height="5.921" fill="#BBD0E6" rx=".524" transform="matrix(.86575 -.50016 .8663 .49984 201.97 168.454)"/><rect width="5.921" height="5.921" fill="#BBD0E6" rx=".524" transform="matrix(.86575 -.50016 .8663 .49984 219.275 150.689)"/><rect width="5.921" height="5.921" fill="#BBD0E6" rx=".524" transform="matrix(.86575 -.50016 .8663 .49984 227.174 153.893)"/><rect width="5.921" height="5.921" fill="#BBD0E6" rx=".524" transform="matrix(.86575 -.50016 .8663 .49984 233.474 150.253)"/><rect width="5.921" height="5.921" fill="#BBD0E6" rx=".524" transform="matrix(.86575 -.50016 .8663 .49984 157.643 169.636)"/><rect width="5.921" height="5.921" fill="#BBD0E6" rx=".524" transform="matrix(.86575 -.50016 .8663 .49984 179.75 156.864)"/><rect width="5.921" height="5.921" fill="#BBD0E6" rx=".524" transform="matrix(.86575 -.50016 .8663 .49984 201.858 144.093)"/><rect width="5.921" height="5.921" fill="#BBD0E6" rx=".524" transform="matrix(.86575 -.50016 .8663 .49984 163.944 165.996)"/><rect width="5.921" height="5.921" fill="#BBD0E6" rx=".524" transform="matrix(.86575 -.50016 .8663 .49984 186.051 153.224)"/><rect width="5.921" height="5.921" fill="#BBD0E6" rx=".524" transform="matrix(.86575 -.50016 .8663 .49984 208.16 140.453)"/><rect width="5.921" height="5.921" fill="#BBD0E6" rx=".524" transform="matrix(.86575 -.50016 .8663 .49984 170.245 162.356)"/><rect width="5.921" height="5.921" fill="#BBD0E6" rx=".524" transform="matrix(.86575 -.50016 .8663 .49984 192.353 149.584)"/><rect width="5.921" height="5.921" fill="#BBD0E6" rx=".524" transform="matrix(.86575 -.50016 .8663 .49984 214.46 136.813)"/><rect width="5.921" height="5.921" fill="#BBD0E6" rx=".524" transform="matrix(.86575 -.50016 .8663 .49984 230.266 127.681)"/><rect width="5.921" height="5.921" fill="#BBD0E6" rx=".524" transform="matrix(.86575 -.50016 .8663 .49984 220.761 133.173)"/><rect width="5.921" height="5.921" fill="#BBD0E6" rx=".524" transform="matrix(.86575 -.50016 .8663 .49984 236.567 124.041)"/><path fill="#BBD0E6" d="m255.394 129.823-3.889 2.247c-.254.146-.381.22-.428.304a.224.224 0 0 0 0 .229c.047.085.175.158.429.305l5.28 3.046c.254.147.381.22.429.305a.226.226 0 0 1 0 .229c-.048.084-.175.158-.429.304l-3.675 2.123c-.254.147-.381.22-.428.305a.224.224 0 0 0 0 .229c.048.085.175.158.429.304l3.677 2.122c.254.147.381.22.528.248.129.024.267.024.396-.001.147-.027.274-.1.528-.247l4.4-2.542 4.614-2.666c.254-.147.381-.22.429-.305a.226.226 0 0 0-.001-.229c-.047-.084-.174-.157-.428-.304l-10.41-6.006c-.254-.147-.381-.22-.527-.247a1.06 1.06 0 0 0-.397 0c-.146.027-.273.1-.527.247Z"/><rect width="13.201" height="5.922" fill="#BBD0E6" rx=".524" transform="matrix(.86575 -.50016 .8663 .49984 237.961 132.12)"/><rect width="13.201" height="5.922" fill="#BBD0E6" rx=".524" transform="matrix(.86575 -.50016 .8663 .49984 162.565 183.452)"/><rect width="14.556" height="5.921" fill="#BBD0E6" rx=".524" transform="matrix(.86575 -.50016 .8663 .49984 169.289 187.334)"/><rect width="16.461" height="5.921" fill="#BBD0E6" rx=".524" transform="matrix(.86575 -.50016 .8663 .49984 175.906 190.974)"/><rect width="17.023" height="5.921" fill="#BBD0E6" rx=".524" transform="matrix(.86575 -.50016 .8663 .49984 254.839 145.685)"/><rect width="9.747" height="5.922" fill="#BBD0E6" rx=".524" transform="matrix(.86575 -.50016 .8663 .49984 182.754 195.103)"/><rect width="9.747" height="5.922" fill="#BBD0E6" rx=".524" transform="matrix(.86575 -.50016 .8663 .49984 248.648 157.035)"/><rect width="9.029" height="5.922" fill="#BBD0E6" rx=".524" transform="matrix(.86575 -.50016 .8663 .49984 258.74 151.204)"/><rect width="9.747" height="5.922" fill="#BBD0E6" rx=".524" transform="matrix(.86575 -.50016 .8663 .49984 192.367 189.551)"/><rect width="9.747" height="5.922" fill="#BBD0E6" rx=".524" transform="matrix(.86575 -.50016 .8663 .49984 201.978 183.997)"/><rect width="9.747" height="5.922" fill="#BBD0E6" rx=".524" transform="matrix(.86575 -.50016 .8663 .49984 267.872 145.929)"/><rect width="5.921" height="5.921" fill="#BBD0E6" rx=".524" transform="matrix(.86586 -.5001 .86647 .49974 148.139 175.127)"/><rect width="41.449" height="5.921" fill="#BBD0E6" rx=".524" transform="matrix(.86575 -.50016 .8663 .49984 211.59 178.444)"/><path fill="#9EB5CC" fill-rule="evenodd" d="M240.721 20.756c2.18-1.263 3.947-.244 3.947 2.275v85.408c0 1.544-1.083 3.423-2.419 4.197l-111.614 64.663c-2.813 1.629-5.093.315-5.093-2.935V89.986c0-1.382.969-3.063 2.164-3.755l113.015-65.475Z" clip-rule="evenodd"/><rect width="134.943" height="90.264" fill="#BBD0E6" rx="2.796" transform="matrix(-.86528 .5013 0 1 244.668 21.07)"/><rect width="130.037" height="81.195" fill="#E6EDF3" rx="2.796" transform="matrix(-.86528 .5013 0 1 242.667 28.423)"/><path fill="#00253D" d="M242.667 27.15c0-1.15-.808-1.616-1.804-1.04L131.952 89.209c-.996.577-1.803 1.978-1.803 3.13v9.665l112.518-65.187V27.15Z"/><ellipse fill="#E6EDF3" rx="1.927" ry="1.932" transform="matrix(-.86528 .5013 0 1 238.419 33.586)"/><ellipse fill="#E6EDF3" rx="1.927" ry="1.932" transform="matrix(-.86527 .5013 0 1 232.835 37.096)"/><ellipse fill="#E6EDF3" rx="1.927" ry="1.932" transform="matrix(-.86527 .5013 0 1 227.247 40.587)"/><path fill="#fff" d="M194.789 95.536a5.583 5.583 0 0 0-2.525 4.383l.084 30.38c0 1.61 1.146 2.256 2.544 1.441l41.02-23.761a5.584 5.584 0 0 0 2.519-4.383l-.084-30.38c0-1.61-1.14-2.256-2.538-1.448l-41.02 23.768Z"/><path fill="#E6EDF3" d="M227.371 81.806v2.535c2.1-1.19 3.788-.194 3.795 2.236a8.296 8.296 0 0 1-1.721 4.713l1.179 1.448a13.023 13.023 0 0 0 2.738-7.434c-.006-3.827-2.686-5.372-5.991-3.498Z"/><path fill="#00253D" d="M227.327 81.838c-3.336 1.94-6.029 6.613-6.022 10.465.006 3.852 2.724 5.39 6.061 3.458a11.296 11.296 0 0 0 3.278-3.025l-1.178-1.448a7.203 7.203 0 0 1-2.107 1.94c-2.125 1.234-3.864.239-3.864-2.205a8.453 8.453 0 0 1 3.832-6.651h.058v-2.566l-.058.032Z"/><path fill="#9CBEE5" d="M217.238 107.185a2.33 2.33 0 0 0-1.063 1.856c0 .647.477.958 1.07.615a2.382 2.382 0 0 0 1.07-1.857c-.007-.679-.484-.957-1.077-.614Z"/><path fill="#E6EDF3" d="M211.544 90.979v2.527c2.126-1.234 3.865-.246 3.865 2.204a8.49 8.49 0 0 1-1.12 3.79 8.455 8.455 0 0 1-2.712 2.868c-1.488.866-2.777.646-3.421-.42l-1.932 2.288c1.011 1.655 3.04 2.01 5.372.646 3.33-1.939 6.029-6.619 6.016-10.465-.013-3.845-2.738-5.37-6.068-3.438Z"/><path fill="#00253D" d="M211.545 90.98c-3.331 1.939-6.03 6.606-6.017 10.459a5.346 5.346 0 0 0 .682 2.799l1.933-2.288a3.315 3.315 0 0 1-.438-1.784 8.463 8.463 0 0 1 3.833-6.659l.007-2.527Z"/><path fill="#9CBEE5" d="m194.925 112.977.006 1.435 6.133-3.556v-1.435l-6.139 3.556ZM194.912 108.904l.007 1.429 6.139-3.556-.007-1.428-6.139 3.555ZM194.905 104.83v1.436l6.14-3.556-.007-1.435-6.133 3.555ZM194.893 100.759l.006 1.435 6.133-3.556-.007-1.435-6.132 3.556ZM194.938 117.047l.006 1.435 6.133-3.555v-1.435l-6.139 3.555ZM234.715 97.054a2.376 2.376 0 0 0-1.064 1.856c0 .647.483.958 1.07.647a2.366 2.366 0 0 0 1.07-1.863c0-.705-.483-.983-1.076-.64Z"/><path fill="#BBD0E6" d="m220.941 105.66.007 1.118 11.003-6.374-.007-1.125-11.003 6.381Z"/><path fill="#9CBEE5" d="M234.733 102.665a2.33 2.33 0 0 0-1.063 1.85c0 .686.477.964 1.07.647a2.384 2.384 0 0 0 1.07-1.856c-.007-.705-.484-.99-1.077-.641Z"/><path fill="#BBD0E6" d="m220.954 111.263.007 1.125 11.003-6.38v-1.119l-11.01 6.374ZM203.485 121.387v1.125l11.003-6.374-.007-1.125-10.996 6.374ZM203.465 115.782l.007 1.119 10.996-6.374v-1.119l-11.003 6.374Z"/><path fill="#9CBEE5" d="M217.25 112.789a2.38 2.38 0 0 0-1.063 1.856c0 .679.483.957 1.07.647a2.369 2.369 0 0 0 1.07-1.863c-.019-.705-.477-.983-1.077-.64Z"/><path fill="#fff" d="M184.313 101.721c1.872-1.077 3.391-.21 3.398 1.943l.086 29.18a7.463 7.463 0 0 1-3.376 5.866l-46.934 27.194c-1.872 1.076-3.391.216-3.398-1.944l-.087-29.18a7.518 7.518 0 0 1 .989-3.338 7.475 7.475 0 0 1 2.388-2.528l46.934-27.193Z"/><path fill="#9CBEE5" d="m144.751 141.377.043 14.326-5.349 3.099-.043-14.318 5.349-3.107Z"/><path fill="#00253D" d="m153.038 130.064.057 20.828-5.349 3.1-.065-20.829 5.357-3.099Z"/><path fill="#9CBEE5" d="m162.498 121.206.072 24.202-5.356 3.099-.072-24.195 5.356-3.106Z"/><path fill="#BBD0E6" d="m172.779 141.931.007 1.279-23.873 13.827-.008-1.271 23.874-13.835Z"/><path fill="#00253D" d="m171.936 119.11.058 20.836-5.356 3.099-.058-20.828 5.356-3.107Z"/><path fill="#9CBEE5" d="m182.167 108.094.072 25.915-5.356 3.107-.072-25.915 5.356-3.107Z"/><path fill="#BBD0E6" d="m144.723 130.352.007 1.149-5.817 3.374v-1.156l5.81-3.367ZM149.345 124.783v1.163l-10.44 6.048v-1.156l10.44-6.055Z"/><path fill="#fff" d="M235.656 45.02c.82-.45 1.486-.087 1.486.806l.062 19.832a2.995 2.995 0 0 1-.433 1.385 3.177 3.177 0 0 1-1.045 1.048l-12.608 6.919c-.82.45-1.486.091-1.486-.805l-.062-19.832c.029-.487.178-.961.434-1.384a3.196 3.196 0 0 1 1.044-1.049l12.608-6.92Z"/><path fill="#9CBEE5" d="M223.943 55.237c.327-.18.593-.033.597.322a1.198 1.198 0 0 1-.174.555c-.103.17-.247.313-.419.42-.328.18-.594.037-.594-.322.011-.196.07-.385.173-.555.102-.17.245-.313.417-.42Z"/><path fill="#BBD0E6" d="M235.933 48.11v.689l-10.548 6.534v-.691l10.548-6.531Z"/><path fill="#9CBEE5" d="M223.959 59.55c.323-.18.593-.037.593.322-.011.195-.07.384-.173.553a1.27 1.27 0 0 1-.416.419c-.332.179-.594.036-.598-.323.011-.195.07-.385.174-.554.103-.169.247-.312.42-.417Z"/><path fill="#BBD0E6" d="m236.086 52.508.004.688-10.689 6.446-.004-.688 10.689-6.446Z"/><path fill="#9CBEE5" d="M223.97 63.667c.324-.18.593-.036.593.323-.011.195-.07.384-.173.554-.102.17-.245.313-.416.42-.332.18-.594.034-.598-.322a1.2 1.2 0 0 1 .174-.555c.103-.17.247-.313.42-.42Z"/><path fill="#00253D" d="M233.134 66.167c.469-.26.85-.051.854.461a1.71 1.71 0 0 1-.248.792 1.811 1.811 0 0 1-.599.599l-6.305 3.469c-.469.26-.85.051-.85-.457.015-.28.1-.552.247-.794s.353-.448.6-.6l6.301-3.47Z"/><path fill="#BBD0E6" d="M235.972 61.228v.688l-10.548 5.964-.004-.692 10.552-5.96ZM235.971 56.983v.688l-10.559 6.089-.004-.688 10.563-6.09Z"/><path fill="#9CBEE5" d="M223.981 67.784c.327-.18.593-.033.593.322a1.173 1.173 0 0 1-.171.556c-.102.169-.246.313-.418.42-.332.179-.594.036-.594-.323.009-.196.067-.387.17-.556.102-.17.246-.314.42-.42Z"/><g fill-rule="evenodd" clip-rule="evenodd" filter="url(#a)"><path fill="#fff" d="m199.764 79.452 16.624-9.64c.118-.069.213-.333.213-.59V65.49c0-.257-.095-.411-.213-.343l-16.624 9.64c-.118.069-.213.333-.213.59v3.732c0 .253.092.405.213.343Z"/><path fill="#9EB5CC" d="m199.764 70.886 16.624-9.642c.118-.069.213-.333.213-.59v-3.732c0-.258-.095-.411-.213-.343l-16.624 9.643c-.118.068-.213.332-.213.59v3.732c0 .252.092.405.213.343Z"/><path fill="#fff" d="m179.16 99.957 16.624-9.64c.118-.068.213-.332.213-.59v-3.731c0-.258-.095-.412-.213-.343l-16.624 9.64c-.118.068-.213.332-.213.59v3.731c0 .253.092.406.213.343ZM179.16 91.388l16.624-9.64c.118-.068.213-.332.213-.59v-3.732c0-.257-.095-.41-.213-.342l-16.624 9.64c-.118.068-.213.332-.213.59v3.731c0 .253.092.406.213.343Z"/><path fill="#9EB5CC" d="m179.16 82.82 16.624-9.64c.118-.069.213-.333.213-.59v-3.732c0-.258-.095-.411-.213-.343l-16.624 9.64c-.118.068-.213.333-.213.59v3.732c0 .253.092.405.213.343Z"/><path fill="#fff" d="m158.557 111.893 16.624-9.64c.118-.068.213-.332.213-.59v-3.731c0-.258-.095-.411-.213-.343l-16.624 9.64c-.118.068-.213.332-.213.59v3.732c0 .252.092.405.213.342ZM158.557 103.325l16.624-9.64c.118-.068.213-.332.213-.59v-3.731c0-.258-.095-.412-.213-.343l-16.624 9.64c-.118.068-.213.332-.213.59v3.731c0 .253.092.406.213.343Z"/><path fill="#9EB5CC" d="m158.557 94.757 16.624-9.64c.118-.068.213-.333.213-.59v-3.732c0-.257-.095-.41-.213-.343l-16.624 9.64c-.118.069-.213.333-.213.59v3.732c0 .253.092.405.213.343Z"/><path fill="#fff" d="m199.764 88.02 16.624-9.64c.118-.068.213-.332.213-.59v-3.732c0-.257-.095-.41-.213-.342l-16.624 9.64c-.118.068-.213.332-.213.59v3.731c0 .253.092.405.213.343Z"/></g><path fill="#9EB5CC" d="M136.107 103.795a3.043 3.043 0 0 0-1.383 2.374l.017 5.552c0 .871.616 1.225 1.384.787l17.248-9.993a3.016 3.016 0 0 0 1.362-2.373V94.59c0-.871-.619-1.222-1.383-.785l-17.245 9.99Z"/><path fill="#fff" d="M136.3 114.753a3.407 3.407 0 0 0-1.576 2.694v6.972c0 .991.704 1.387 1.576.891l16.885-9.782a3.45 3.45 0 0 0 1.55-2.695v-6.971c0-.991-.699-1.392-1.577-.897l-16.858 9.788Z"/><path fill="#CFE3F8" d="m356.76 28.763-14.197 8.22v52.411l14.197-8.22v-52.41Z"/><path fill="#BBD0E6" d="M342.562 36.997v52.402l-12.759-7.388V29.61l6.379-2.22 6.38 9.607Z"/><path fill="#9EB5CC" d="m336.145 79.815-1.895-1.1v4.309l1.895 1.099zM336.145 72.478l-1.895-1.1v4.308l1.895 1.1zM336.145 65.14l-1.895-1.098v4.308l1.895 1.099zM336.145 57.804l-1.895-1.1v4.309l1.895 1.099zM336.145 50.467l-1.895-1.1v4.309l1.895 1.099zM336.145 43.13l-1.895-1.1v4.309l1.895 1.099zM336.145 35.793l-1.895-1.1v4.309l1.895 1.099z"/><path fill="#BBD0E6" d="m349.107 78.486 1.836-1.065v4.174l-1.836 1.065zM349.107 71.376l1.836-1.065v4.174l-1.836 1.065zM349.107 64.265l1.836-1.065v4.174l-1.836 1.065zM349.107 57.155l1.836-1.065v4.174l-1.836 1.065zM349.107 50.045l1.836-1.065v4.174l-1.836 1.065zM349.107 42.934l1.836-1.065v4.174l-1.836 1.065zM349.107 35.825l1.836-1.066v4.174L349.107 40zM353.123 76.142l1.836-1.065v4.174l-1.836 1.065zM353.123 69.032l1.836-1.065v4.174l-1.836 1.065zM353.123 61.922l1.836-1.065v4.174l-1.836 1.065zM353.123 54.811l1.836-1.065v4.174l-1.836 1.065zM353.123 47.701l1.836-1.065v4.174l-1.836 1.065zM353.123 40.592l1.836-1.065v4.174l-1.836 1.065zM353.123 33.481l1.836-1.065v4.174l-1.836 1.065zM345.245 80.752l1.836-1.065v4.174l-1.836 1.065zM345.245 73.642l1.836-1.065v4.174l-1.836 1.065zM345.245 66.531l1.836-1.065v4.174l-1.836 1.066zM345.245 59.42l1.836-1.064v4.174l-1.836 1.065zM345.245 52.312l1.836-1.065v4.174l-1.836 1.065zM345.245 45.201l1.836-1.065v4.174l-1.836 1.065zM345.245 38.09l1.836-1.064V41.2l-1.836 1.065z"/><path fill="#E6EDF3" d="m349.033 19.586-12.852 7.8 6.374 9.607 14.205-8.23-7.727-9.177Z"/><path fill="#DBE9F7" d="m343.54 21.38-13.738 8.23 6.335-2.157 12.898-7.869-5.495 1.796Z"/><path fill="#BBD0E6" d="M63.645 112.03 84.7 124.323v78.385l-21.055-12.293V112.03Z"/><path fill="#CFE3F8" d="M84.701 124.344v78.372l18.923-11.049v-78.371l-9.462-3.321-9.46 14.369Z"/><path fill="#BBD0E6" d="m94.218 188.39 2.81-1.652v6.434l-2.81 1.652zM94.218 177.417l2.81-1.652v6.434l-2.81 1.652zM94.218 166.444l2.81-1.652v6.434l-2.81 1.652zM94.218 155.471l2.81-1.652v6.434l-2.81 1.652zM94.218 144.498l2.81-1.652v6.434l-2.81 1.652zM94.218 133.525l2.81-1.652v6.434l-2.81 1.652zM94.217 122.552l2.81-1.652v6.434l-2.81 1.652z"/><path fill="#9EB5CC" d="m74.994 186.402-2.724-1.6v6.234l2.724 1.601zM74.994 175.768l-2.724-1.6v6.234l2.724 1.601zM74.994 165.134l-2.724-1.6v6.234l2.724 1.601zM74.994 154.5l-2.724-1.6v6.234l2.724 1.601zM74.994 143.866l-2.724-1.6v6.234l2.724 1.601zM74.994 133.232l-2.724-1.6v6.234l2.724 1.601zM74.994 122.598l-2.724-1.6v6.234l2.724 1.601zM69.038 182.898l-2.723-1.6v6.234l2.723 1.601zM69.038 172.263l-2.723-1.6v6.234l2.723 1.601zM69.038 161.63l-2.723-1.6v6.234l2.723 1.601zM69.038 150.996l-2.723-1.6v6.234l2.723 1.601zM69.038 140.362l-2.723-1.6v6.234l2.723 1.601zM69.038 129.73l-2.723-1.6v6.234l2.723 1.601zM69.038 119.095l-2.723-1.6v6.234l2.723 1.601zM80.722 189.792l-2.724-1.6v6.234l2.724 1.601zM80.722 179.158l-2.724-1.6v6.234l2.724 1.601zM80.722 168.524l-2.724-1.6v6.234l2.724 1.601zM80.722 157.889l-2.724-1.6v6.234l2.724 1.601zM80.722 147.257l-2.724-1.6v6.234l2.724 1.601zM80.722 136.623l-2.724-1.6v6.234l2.724 1.601zM80.722 125.988l-2.724-1.6v6.234l2.724 1.601z"/><path fill="#DBE9F7" d="m75.104 98.306 19.061 11.665-9.454 14.368-21.066-12.309 11.46-13.724Z"/><path fill="#E6EDF3" d="m83.251 100.988 20.374 12.309-9.396-3.226-19.128-11.768 8.15 2.685Z"/><path fill="#CFE3F8" d="M321.098 47.528 297.843 60.87v68.444l23.255-13.344V47.528Z"/><path fill="#E6EDF3" d="m297.847 34.185-23.255 13.343 23.255 13.343 23.255-13.343z"/><path fill="#CFE3F8" d="m315.605 37.412-17.76 10.19v10.192l17.76-10.19V37.411Z"/><path fill="#E6EDF3" d="m297.844 27.201-17.76 10.19 17.76 10.191 17.76-10.19z"/><path fill="#BBD0E6" d="m297.846 47.603-17.76-10.19v10.19l17.76 10.19v-10.19ZM297.844 39.912l-7.332-4.207v1.387l7.332 4.207v-1.387Z"/><path fill="#CFE3F8" d="m305.143 35.705-7.332 4.207v1.386l7.332-4.206v-1.387Z"/><path fill="#E6EDF3" d="m297.844 31.498-7.332 4.207 7.332 4.207 7.332-4.207z"/><path fill="#BBD0E6" d="m297.844 60.86-23.255-13.343v68.454l23.255 13.344V60.861ZM312.801 113.648l-3.329 1.903v5.69l3.329-1.903zM312.801 103.972l-3.329 1.903v5.69l3.329-1.903zM312.801 94.295l-3.329 1.903v5.69l3.329-1.903zM312.801 84.619l-3.329 1.903v5.69l3.329-1.903zM312.801 74.942l-3.329 1.904v5.69l3.329-1.904zM312.801 65.265l-3.329 1.904v5.69l3.329-1.904zM312.801 55.588l-3.329 1.904v5.693l3.329-1.904z"/><path fill="#9EB5CC" d="m286.216 115.552-3.329-1.903v5.69l3.329 1.903zM286.217 105.876l-3.329-1.903v5.69l3.329 1.903zM286.216 96.199l-3.329-1.903v5.69l3.329 1.903zM286.216 86.522l-3.329-1.903v5.69l3.329 1.903zM286.216 76.846l-3.329-1.904v5.69l3.329 1.904zM286.217 67.17l-3.329-1.904v5.69l3.329 1.903zM286.217 57.493l-3.329-1.904v5.693l3.329 1.904z"/><path fill="#BBD0E6" d="M346.891 67.945 382.68 87.7v72.771l-35.789-19.756v-72.77Z"/><path fill="#E6EDF3" d="m372.376 53.88 36.001 19.874-25.481 14.066-36.002-19.873z"/><path fill="#CFE3F8" d="m382.732 81.603 16.059-8.885v2.09l-16.059 8.88v-2.085Z"/><path fill="#BBD0E6" d="m355.015 66.313 27.724 15.303v2.058L355.015 68.37v-2.057Z"/><path fill="#E6EDF3" d="m371.135 57.454 27.642 15.258-16.037 8.882-27.723-15.243 16.118-8.897Z"/><path fill="#CFE3F8" d="m382.677 87.689 25.701-14.187v72.782l-25.701 14.187V87.689Z"/><path fill="#9EB5CC" d="m348.978 133.324 31.595 17.291v6.192l-31.595-17.291zM348.978 123.037l31.595 17.291v6.192l-31.595-17.291zM348.978 112.748l31.595 17.291v6.192l-31.595-17.291zM348.978 102.459l31.595 17.291v6.192l-31.595-17.291zM348.978 92.17l31.595 17.292v6.192l-31.595-17.291zM348.978 81.883l31.595 17.29v6.193l-31.595-17.291zM348.978 71.594l31.595 17.291v6.192l-31.595-17.291z"/><path fill="#BBD0E6" d="m384.789 150.628 21.487-11.723v6.18L384.79 156.81zM384.789 140.341l21.487-11.723v6.18l-21.487 11.724zM384.789 130.052l21.487-11.723v6.18l-21.487 11.724zM384.789 119.763l21.487-11.723v6.18l-21.487 11.724zM384.789 109.474l21.487-11.723v6.18l-21.487 11.724zM384.789 99.186l21.487-11.724v6.181l-21.487 11.724zM384.789 88.898l21.487-11.724v6.181L384.79 95.08z"/><path fill="#CFE3F8" d="m175.215 215.418-19.068 10.85v39.968l19.068-10.851v-39.967Z"/><path fill="#E6EDF3" d="m161.637 207.694-19.181 10.915 13.576 7.725 19.18-10.915z"/><path fill="#BBD0E6" d="m156.119 222.92-8.555-4.88v1.147l8.555 4.878v-1.145Z"/><path fill="#CFE3F8" d="m170.887 214.522-14.771 8.405v1.131l14.771-8.406v-1.13Z"/><path fill="#E6EDF3" d="m162.298 209.656-14.727 8.38 8.544 4.879 14.77-8.372-8.587-4.887Z"/><path fill="#BBD0E6" d="m156.148 226.262-13.693-7.791v39.973l13.693 7.792v-39.974ZM174.103 251.326l-16.833 9.555v3.343l16.833-9.555zM174.103 245.675l-16.833 9.555v3.343l16.833-9.555zM174.103 240.025l-16.833 9.555v3.343l16.833-9.555zM174.103 234.374l-16.833 9.555v3.343l16.833-9.555zM174.103 228.723l-16.833 9.555v3.343l16.833-9.555zM174.103 223.073l-16.833 9.555v3.343l16.833-9.555zM174.102 217.423l-16.833 9.555v3.343l16.833-9.555z"/><path fill="#9EB5CC" d="m155.024 260.881-11.448-6.49v3.343l11.448 6.49zM155.024 255.23l-11.448-6.49v3.343l11.448 6.49zM155.024 249.58l-11.448-6.49v3.343l11.448 6.49zM155.024 243.929l-11.448-6.49v3.343l11.448 6.49zM155.024 238.278l-11.448-6.49v3.343l11.448 6.49zM155.024 232.628l-11.448-6.49v3.343l11.448 6.49zM155.024 226.978l-11.448-6.49v3.343l11.448 6.49z"/><path fill="#CFE3F8" d="m123.481 209.409-15.042 8.679v44.516l15.042-8.679v-44.516Z"/><path fill="#E6EDF3" d="m108.441 200.731-15.042 8.678 15.042 8.679 15.042-8.679z"/><path fill="#CFE3F8" d="m119.928 202.83-11.488 6.628v6.629l11.488-6.628v-6.629Z"/><path fill="#E6EDF3" d="m108.439 196.189-11.488 6.628 11.488 6.628 11.488-6.628z"/><path fill="#BBD0E6" d="m108.44 209.458-11.487-6.628v6.628l11.487 6.628v-6.628ZM108.439 204.456l-4.742-2.736v.902l4.742 2.736v-.902Z"/><path fill="#CFE3F8" d="m113.16 201.72-4.742 2.736v.902l4.742-2.736v-.902Z"/><path fill="#E6EDF3" d="m108.439 198.984-4.742 2.736 4.742 2.736 4.742-2.736z"/><path fill="#BBD0E6" d="m108.439 218.081-15.042-8.678v44.522l15.042 8.679v-44.523ZM118.114 252.415l-2.153 1.242v3.697l2.153-1.242zM118.114 246.121l-2.153 1.242v3.697l2.153-1.242zM118.114 239.827l-2.153 1.242v3.697l2.153-1.242zM118.114 233.534l-2.153 1.242v3.697l2.153-1.242zM118.114 227.24l-2.153 1.242v3.697l2.153-1.242zM118.114 220.946l-2.153 1.242v3.697l2.153-1.242zM118.114 214.652l-2.153 1.242v3.7l2.153-1.243z"/><path fill="#9EB5CC" d="m100.918 253.657-2.153-1.242v3.697l2.153 1.242zM100.918 247.364l-2.153-1.242v3.697l2.153 1.242zM100.918 241.069l-2.153-1.242v3.697l2.153 1.242zM100.918 234.776l-2.153-1.242v3.697l2.153 1.242zM100.918 228.482l-2.153-1.242v3.697l2.153 1.242zM100.918 222.188l-2.153-1.242v3.697l2.153 1.242zM100.918 215.895l-2.153-1.242v3.7l2.153 1.241z"/><rect width="1.583" height="8.133" x="393.984" y="158.887" fill="url(#b)" rx=".494" transform="rotate(90 393.984 158.887)"/><rect width="1.586" height="8.118" x="385.852" y="152.352" fill="#00253D" rx=".494"/><ellipse cx="386.645" cy="147.41" fill="url(#c)" rx="5.988" ry="5.977"/><rect width="2.058" height="10.456" x="83.658" y="207.346" fill="url(#d)" rx=".494" transform="rotate(90 83.658 207.346)"/><rect width="2.039" height="6.18" x="73.202" y="203.224" fill="#00253D" rx=".494"/><ellipse cx="74.221" cy="196.799" fill="url(#e)" rx="7.698" ry="7.77"/><rect width=".995" height="11.468" x="127.446" y="267.995" fill="url(#f)" rx=".498" transform="rotate(90 127.446 267.995)"/><rect width="1.118" height="10.209" x="115.768" y="258.781" fill="#00253D" rx=".545"/><path fill="url(#g)" fill-rule="evenodd" d="m122.035 261.718-5.711-8.808-5.744 8.858h.003c-.176.28-.272.579-.272.888 0 1.646 2.693 2.979 6.015 2.979 3.321 0 6.014-1.333 6.014-2.979a1.67 1.67 0 0 0-.305-.938Z" clip-rule="evenodd"/><path fill="url(#h)" fill-opacity=".2" fill-rule="evenodd" d="m122.035 261.718-5.711-8.808-5.744 8.858h.003c-.176.28-.272.579-.272.888 0 1.646 2.693 2.979 6.015 2.979 3.321 0 6.014-1.333 6.014-2.979a1.67 1.67 0 0 0-.305-.938Z" clip-rule="evenodd"/><path fill="url(#i)" fill-rule="evenodd" d="m121.471 259.265-5.144-7.931-5.143 7.931h.001a1.487 1.487 0 0 0-.243.796c0 1.473 2.411 2.667 5.385 2.667 2.974 0 5.386-1.194 5.386-2.667 0-.277-.086-.544-.244-.796h.002Z" clip-rule="evenodd"/><path fill="url(#j)" fill-opacity=".2" fill-rule="evenodd" d="m121.471 259.265-5.144-7.931-5.143 7.931h.001a1.487 1.487 0 0 0-.243.796c0 1.473 2.411 2.667 5.385 2.667 2.974 0 5.386-1.194 5.386-2.667 0-.277-.086-.544-.244-.796h.002Z" clip-rule="evenodd"/><path fill="url(#k)" fill-rule="evenodd" d="m120.635 256.597-4.309-6.645-4.276 6.594a1.263 1.263 0 0 0-.238.717c0 1.235 2.021 2.235 4.513 2.235s4.512-1 4.512-2.235c0-.232-.072-.456-.204-.666h.002Z" clip-rule="evenodd"/><path fill="url(#l)" fill-opacity=".2" fill-rule="evenodd" d="m120.635 256.597-4.309-6.645-4.276 6.594a1.263 1.263 0 0 0-.238.717c0 1.235 2.021 2.235 4.513 2.235s4.512-1 4.512-2.235c0-.232-.072-.456-.204-.666h.002Z" clip-rule="evenodd"/><rect width=".995" height="10.194" x="277.85" y="119.494" fill="url(#m)" rx=".498" transform="rotate(90 277.85 119.494)"/><rect width=".994" height="10.209" x="267.47" y="110.28" fill="#00253D" rx=".497"/><path fill="url(#n)" fill-rule="evenodd" d="m273.041 113.217-5.077-8.807-5.106 8.857h.003c-.157.28-.242.579-.242.889 0 1.645 2.394 2.979 5.346 2.979 2.953 0 5.346-1.334 5.346-2.979 0-.328-.095-.644-.27-.939Z" clip-rule="evenodd"/><path fill="url(#o)" fill-opacity=".2" fill-rule="evenodd" d="m273.041 113.217-5.077-8.807-5.106 8.857h.003c-.157.28-.242.579-.242.889 0 1.645 2.394 2.979 5.346 2.979 2.953 0 5.346-1.334 5.346-2.979 0-.328-.095-.644-.27-.939Z" clip-rule="evenodd"/><path fill="url(#p)" fill-rule="evenodd" d="m272.539 110.765-4.572-7.931-4.572 7.931h.001a1.611 1.611 0 0 0-.217.795c0 1.473 2.144 2.667 4.788 2.667 2.643 0 4.787-1.194 4.787-2.667 0-.277-.076-.544-.217-.795h.002Z" clip-rule="evenodd"/><path fill="url(#q)" fill-opacity=".2" fill-rule="evenodd" d="m272.539 110.765-4.572-7.931-4.572 7.931h.001a1.611 1.611 0 0 0-.217.795c0 1.473 2.144 2.667 4.788 2.667 2.643 0 4.787-1.194 4.787-2.667 0-.277-.076-.544-.217-.795h.002Z" clip-rule="evenodd"/><path fill="url(#r)" fill-rule="evenodd" d="m271.796 108.096-3.831-6.645-3.801 6.595a1.367 1.367 0 0 0-.211.716c0 1.235 1.796 2.235 4.011 2.235s4.011-1 4.011-2.235c0-.232-.063-.455-.181-.666h.002Z" clip-rule="evenodd"/><path fill="url(#s)" fill-opacity=".2" fill-rule="evenodd" d="m271.796 108.096-3.831-6.645-3.801 6.595a1.367 1.367 0 0 0-.211.716c0 1.235 1.796 2.235 4.011 2.235s4.011-1 4.011-2.235c0-.232-.063-.455-.181-.666h.002Z" clip-rule="evenodd"/><rect width="1.18" height="6.06" x="280.165" y="123.374" fill="url(#t)" rx=".59" transform="rotate(90 280.165 123.374)"/><rect width="1.182" height="3.542" x="274.105" y="121.012" fill="#00253D" rx=".591"/><ellipse cx="274.696" cy="117.328" fill="url(#u)" rx="4.462" ry="4.454"/><path fill="url(#v)" d="M350.292 227.531h11.419v37.828h-11.419z" opacity=".3" transform="rotate(90 350.292 227.531)"/><path fill="#E6EDF3" d="m287.139 217.788 7.228-4.111c4.908-2.792 11.677-3.463 15.129-1.498 3.452 1.966 2.272 5.819-2.636 8.604l-7.228 4.111c-4.909 2.792-11.677 3.463-15.129 1.498-3.452-1.966-2.272-5.819 2.636-8.604Z" opacity=".15" style="mix-blend-mode:multiply"/><path fill="#00253D" d="M297.692 221.196s.285.5 1.853-.148c1.567-.647 2.003-1.42 2.003-1.42s-.404-3.096-1.378-2.316c-.966.78-2.486 3.884-2.486 3.884h.008Z"/><path fill="#9CBEE5" d="M300.534 194.824s-.245 1.178-.269 2.121c1.124 2.886 1.599 11.701 1.362 15.203 0 0-1.544.601-3.056-.32 0 0-2.137-8.502-3.364-14.001-.444-1.997 1.33-3.783 3.364-3.386l1.956.383h.007Z"/><path fill="#00253D" d="M289.586 224.199s.292.5 1.852-.148c1.568-.647 2.003-1.42 2.003-1.42s-.404-3.096-1.378-2.316c-.965.78-2.485 3.884-2.485 3.884h.008Z"/><path fill="url(#w)" d="M293.512 213.365c-.023 1.622-.071 2.862.562 3.736.626.866.681 1.459.681 1.459s-1.86.257-2.802 1.521c-.942 1.263-.895 2.527-1.774 2.73-.878.211-2.343-.78-2.343-.78s.926-.039 1.29-1.186c.365-1.146 1.299-3.596 1.33-4.243.032-.648 0-3.136 0-3.136l3.064-.101h-.008Z"/><path fill="#00253D" d="M293.536 217.522c-.807.047-2.05.944-2.462 1.865-.412.92-1.101 2.223-1.623 2.511-.523.289-1.457-.132-2.256-.14-.792 0-1.362.359-1.402.928 0 0 2.55 1.194 3.31 1.545.76.358 1.409.366 2.01-1.194.602-1.56.824-2.441 1.307-1.381.475 1.061.673 3.456.673 3.456s.649.234.966-.398c0 0-.024-1.123.118-2.09.135-.96 1.022-2.169.958-3.331-.063-1.154-.704-1.841-1.583-1.786l-.016.015ZM292.277 198.209l1.457-.016s1.021.539.997 1.482c1.077 1.74-.681 8.823-1.195 15.656 0 0-1.298 1.107-3.064.21 0 0-1.108-11.404-1.369-14.001"/><path fill="#9CBEE5" d="m332.51 207.991-18.026-10.258c-1.117-.631-2.922-.631-4.03 0l-18.026 10.258c-1.117.632-1.117 1.661 0 2.293l18.026 10.258c1.116.631 2.921.631 4.03 0l18.026-10.258c1.116-.632 1.116-1.661 0-2.293Z"/><path fill="#fff" d="M312.465 198.045c.617 0 1.203.133 1.623.367l18.026 10.257c.325.188.436.367.436.468 0 .102-.119.289-.436.469l-18.026 10.257c-.412.234-1.006.367-1.623.367-.618 0-1.204-.133-1.623-.367l-18.026-10.257c-.325-.188-.436-.367-.436-.469 0-.101.119-.288.436-.468l18.026-10.257c.412-.234 1.005-.367 1.623-.367Zm0-.78c-.728 0-1.457.156-2.019.476l-18.026 10.258c-1.117.631-1.117 1.661 0 2.293l18.026 10.257c.554.32 1.283.476 2.019.476.736 0 1.457-.156 2.019-.476l18.026-10.257c1.116-.632 1.116-1.662 0-2.293l-18.026-10.258c-.555-.32-1.283-.476-2.019-.476Z"/><path fill="#E6EDF3" d="M333.349 227.07c-.008.476-.325.843-.831 1.147l-18.027 10.258c-.522.296-1.187.46-2.018.475v-17.933c.791 0 1.456-.163 2.018-.475l18.027-10.258c.451-.25.831-.632.831-1.147v17.933Z"/><path fill="#CFE3F8" d="M291.588 227.07c.008.476.325.843.832 1.147l18.026 10.258c.523.296 1.188.46 2.019.475v-17.933c-.792 0-1.465-.163-2.019-.475l-18.026-10.258c-.452-.25-.832-.632-.832-1.147v17.933Z"/><path fill="#00253D" d="M307.01 174.496s-1.813-1.038-1.631-2.59c.182-1.552 2.589-5.351 6.888-3.51 4.029.866-5.257 6.1-5.257 6.1Z"/><path fill="url(#x)" d="M316.368 181.805c-2.059-.125-1.892-.289-2.059-1.007-.055-.257-.174-2.043-.174-2.043.182-.187.515-.749.515-.749 1.346-.819 2.312-2.2 2.494-3.869.3-2.855-1.805-5.414-4.703-5.718-2.723-.281-4.734 1.607-5.272 4.197-.285 1.279-.586 3.892.221 5.991.459 1.185.879 2.012 1.971 1.973.206 0 .594-.07 1.077-.187.04.39.087.959.063 1.49-.031.514.064.78-.965 1.404-1.03.624 1.559 1.911 3.245 1.786 1.687-.125 3.595-1.131 4.109-2.207.578-1.202.459-1.007-.514-1.061h-.008Z"/><path fill="url(#y)" d="m315.259 177.569-1.773.094-1.932-.031-.593-.687s-.127 2.192-.729 2.73a5.086 5.086 0 0 1-1.401.835c.158.047.332.078.53.07.206 0 .594-.07 1.077-.187.04.39.087.96.063 1.49-.031.515.064.78-.965 1.404-1.03.624 1.559 1.911 3.245 1.786 1.687-.125 3.595-1.131 4.109-2.207.578-1.201.459-1.006-.514-1.061-2.059-.125-1.893-.289-2.059-1.006-.055-.258-.174-2.044-.174-2.044.182-.187.515-.749.515-.749.213-.132.411-.281.609-.437h-.008Z"/><path fill="#9CBEE5" d="M300.534 194.823c1.9.687 14.084 5.43 14.084 5.43s-.507 8.97-3.246 7.519l-12.5-7.098-3.428-2.231c-.293-2.925 3-4.368 5.09-3.62Z"/><path fill="#00253D" d="M289.103 201.54c-.293-2.926 2.359-4.587 4.441-3.838 1.9.678 13.3 5.444 13.3 5.444l13.324-1.318c1.116 5.897-3.594 8.237-7.101 9.883-2.407 1.131-6.69.858-9.429-.593l-11.828-7.987"/><path fill="#9EB5CC" d="M287.068 197.733c0 .312.166.6.443.764l8.352 4.751a.899.899 0 0 0 .887 0l11.709-6.662a.865.865 0 0 0 .443-.757v-.062l-21.842 1.974.008-.008Z"/><path fill="#9CBEE5" d="m287.511 198.497 8.352 4.751a.899.899 0 0 0 .444.117v-5.632h-9.239c0 .312.166.6.443.764Z"/><path fill="#9CBEE5" d="m295.61 203.107.253.141a.899.899 0 0 0 .887 0l.253-.141v-.554h-1.401v.554h.008Z"/><path fill="#DBE9F7" d="M295.998 202.819a.64.64 0 0 0 .626 0l12.168-6.919c.158-.086.158-.234 0-.32l-8.962-5.101-12.762 7.254 8.93 5.078v.008Z"/><path fill="#ADD6FF" d="m288.548 197.865-.316-.179c-.056-.031-.056-.078 0-.109l11.328-6.443a.206.206 0 0 1 .19 0l.317.179c.056.031.056.078 0 .109l-11.329 6.443a.2.2 0 0 1-.19 0Z"/><path fill="#9CBEE5" d="m303.788 197.741-.055.031-3.903 2.215-2.146-1.217-.055-.031 3.958-2.254 2.201 1.256Z"/><path fill="#E6EDF3" d="m303.733 197.772-3.903 2.215-2.146-1.217 3.903-2.215 2.146 1.217Z"/><path fill="#9CBEE5" d="m304.548 194.067-11.25 6.396a.206.206 0 0 1-.19 0l-3.99-2.27c-.055-.031-.055-.078 0-.109l11.242-6.396a.206.206 0 0 1 .19 0l3.998 2.277c.056.032.056.078 0 .11v-.008ZM289.111 198.076h.008l-.016.008.008-.008Z"/><path fill="#ADD6FF" d="m304.54 194.067-11.249 6.388a.208.208 0 0 1-.191 0l-3.99-2.27 11.242-6.396a.206.206 0 0 1 .19 0l3.998 2.278ZM287.068 197.733l12.762-7.262v-9.891l-.095-.218-.103-.055a.884.884 0 0 0-.879 0l-11.685 6.654a.878.878 0 0 0-.443.748v9.275c.079.484.166.593.443.749Z"/><path fill="#ADD6FF" d="m288.24 188.154 11.59-7.239v-.327l-.095-.219-.103-.054a.884.884 0 0 0-.879 0l-11.685 6.645a.872.872 0 0 0-.333.344l1.505.85Z"/><path fill="#DBE9F7" d="m299.537 180.362-12.255 6.973a.415.415 0 0 0-.214.367v10.039l12.762-7.262v-9.946a.194.194 0 0 0-.293-.164v-.007Z"/><path fill="#DBE9F7" d="m299.537 180.362-12.255 6.973a.415.415 0 0 0-.214.367v10.039l12.762-7.262v-9.946a.194.194 0 0 0-.293-.164v-.007Z"/><path fill="#ADD6FF" d="m299.537 180.362-1.417.811-.444.25c0 2.48-.229 8.829-10.458 14.727v1.505l12.612-7.176v-9.946a.194.194 0 0 0-.293-.164v-.007Z" opacity=".2" style="mix-blend-mode:multiply"/><path fill="#9EB5CC" d="M287.068 197.733v-.359l12.762-7.254v.359l-12.762 7.254Z" opacity=".2" style="mix-blend-mode:multiply"/><path fill="#00253D" d="M299.497 189.948v-9.064l-.158.086v8.9l.158.078ZM299.339 180.97v8.9l-11.859 6.732v-8.877l11.859-6.755Z"/><path fill="#00253D" d="m299.497 189.948-12.017 6.833v-.179l11.859-6.732.158.078Z"/><path fill="url(#z)" d="m299.497 180.878-1.678.951c-.064 2.738-.847 8.737-10.189 14.229v.616l11.867-6.732v-9.064Z" opacity=".5"/><path fill="#CFE3F8" d="M314.444 181.454c.38.468.483.756-.578 1.201-1.821.757-3.555-.055-3.555-.055s-1.638.843-2.984 1.771c-3.278 2.247-4.061 5.921-.752 7.262.198 1.467 1.156 3.409 1.219 4.267-.182 2.605-.942 3.362-1.536 9.29 1.322 1.521 4.473 2.34 7.339 1.513 3.657-1.053 5.613-3.713 6.579-4.89-.531-3.635-2.692-5.983-2.668-7.028.095-3.971 1.488-6.444 1.116-10.125-.214-2.106-.998-2.941-2.217-3.222-.617-.093-1.543-.015-1.955.016h-.008Z"/><path fill="url(#A)" d="M290.203 195.175c.586.335 1.211.452 2.003.982.697.468.989.656 1.757.812.832.171 2.771 0 5.479-.39 2.699-.39 4.259-1.521 5.114-2.769 1.868-2.723 1.694-5.921 2.407-8.339.498-1.701 1.916-2.067 2.699-1.373.61.538 1.33 2.738.697 5.975-.491 2.504-1.963 5.905-4.109 7.473-1.369 1.006-3.372 1.786-4.908 2.075-2.502.476-4.513.515-6.951.639-.665.032-1.148.219-2.415.437-1.258.211-2.771.156-3.768-.21-1.005-.375-1.306-.663-1.314-.897-.016-.297.245-.398.72-.281.475.117 1.251.39 2.304.32 0 0-1.053-.211-1.678-.39a6.332 6.332 0 0 1-1.576-.687c-.467-.296-.499-1.108-.016-.998.491.109.832.319 1.758.569a6.73 6.73 0 0 0 1.504.234s-.99-.328-1.765-.749c-.776-.429-1.006-.756-1.148-.99-.143-.227-.008-.695.57-.484.522.187 1.1.655 2.161.866.768.156 1.33.156 1.251.023-.079-.132-.539-.195-1.069-.616-.507-.406-.76-1.092-.515-1.357.254-.265.206-.211.8.125h.008Z"/><path fill="#00253D" d="M315.228 178.186c1.322-1.194 1.741-2.372 1.916-4.049.3-2.855-1.805-5.413-4.703-5.717-1.876-.195-3.848.468-4.79 2.777 0 0 .143.312.642.405 0 0-.135.609.285 1.077.308.335.601.881.657 1.482.039.491-.048 1.209.095 1.731.182.648.902.601.902.601s.048-1.076.159-2.106c.324-.726 1.638-.889 1.884.047.221.85.008 1.373-.301 1.989-.23.46-.633.702-1.006.522 0 1.28.483 1.857 1.631 2.177 1.148.319 1.251-.102 1.845-.398.356-.172.792-.546.792-.546l-.008.008Z"/><path fill="#00253D" d="M310.961 176.953v12.215s1.543 1.264 3.887.156c2.343-1.108 2.319-1.544 2.319-2.769v-13.042s-2.675 3.128-4.607 3.767c-1.496.515-1.607-.335-1.607-.335l.008.008Z"/><path fill="#CFE3F8" d="M308.784 183.731c.926.071 1.876.648 2.003 4.532.118 3.885-2.217 7.575-4.125 9.205s-5.763 2.792-9.508 2.652c0 0-1.33-1.225-.222-3.214 0 0 2.732-.312 4.481-.998 1.75-.687 3.254-1.724 4.299-5.102 1.045-3.377.459-6.95 3.072-7.067v-.008Z"/><rect width="2.505" height="32.648" x="357.901" y="188.915" fill="url(#B)" opacity=".3" rx=".837" transform="rotate(90 357.901 188.915)"/><rect width="3.167" height="32.811" x="365.482" y="193.176" fill="url(#C)" opacity=".3" rx=".837" transform="rotate(90 365.482 193.176)"/><path fill="#00253D" d="M330.395 187.692c.242.698-.077 1.283-.274 1.874-.394 1.157-.299 2.704-.299 2.704-.076.138-.572.176-.712-.038 0 0 .064-2.553-.623-2.345l1.908-2.195Z"/><path fill="url(#D)" d="M324.562 191.666c.712-1.013 1.838-4.257 2.067-5.024.096-.321.35-.975.337-1.604-.032-1.125-.381-4.263-.381-4.263h2.735l-.045 4.075c.019.622.038.792.223 1.251.14.358.49 1.226.611 1.597.133.478.368.987-.414 1.61-.782.622-1.253.981-1.762 1.609-.509.629-.477 1.459-1.297 2.195-.827.736-2.386.17-2.685-.082-.42-.358-.273-.679.611-1.364Z"/><path fill="#00253D" d="M324.677 192.514c1.736.422 2.086.195 2.588-1.741.382-1.484.725-2.547 1.387-3.119.789-.686.846-1.075.852-1.56.172-.012.261.114.369.491.255.861.579.886.585 1.496.013.617-.407 1.145-.871 1.447-.763.49-.973.71-1.323 1.439-.42.856-.331 1.799-.617 2.597-1.209.925-2.506 1.535-4.453.642-.368-.975-.687-1.421 1.374-2.547-.375.428-.54.686.115.849l-.006.006ZM335.045 188.791c.178.453.509.969.413 2.157-.095 1.189-.356.943-.273 2.528.051.975.521 2.22 0 2.962-.904.886-3.276.767-3.772.295-.128-.415-.248-.824-.178-1.207.063-.327.604-.679.687-1.006.063-.264.152-.579.241-1.025.287-1.415.617-4.71.617-4.71h2.258l.007.006Z"/><path fill="url(#E)" d="M333.2 195.042c.496.025 1.088-.176 1.088-.176.171-.088.292-.327.33-.604.115-.748-.139-1.66.198-2.697.337-1.038.407-1.66.229-2.773-.172-1.113-.032-2.798-.032-2.798l-2.309-.051s.095 1.874.083 2.842c-.013.975-.204 4.018-.408 5.024-.101.504-.184.698-.127.906 0 0 .197.289.942.333l.006-.006Z"/><path fill="#00253D" d="M329.434 125.114c.516-.824 4.472-1.364 5.776 1.949.496 1.258.42 4.465.833 6.483.414 2.019 1.387 3.163 1.737 4.798.349 1.635-.223 4.382-4.211 4.867-3.988.484-7.061-.9-8.002-2.157-.941-1.258-.961-3.93.019-5.364.98-1.433 1.724-2.603 1.698-4.47l2.15-6.106Z"/><path fill="url(#F)" d="M309.576 147.185c.515.176 1.03.132 1.736.433.624.265 1.037.415 1.667.503.623.082 2.506-.528 4.166-1.358 1.953-.974 4.027-2.848 4.809-3.779 1.692-2.006 3.549-5.061 4.122-6.168.687-1.327 1.571-1.547 2.411-1.446.985.113 1.412.691.4 2.483-1.011 1.792-3.072 4.999-5.037 7.018-.955.974-2.513 2.439-5.019 3.703-1.749.887-3.282 1.384-5.184 1.861-.522.132-.872.353-1.832.717-.961.365-2.156.554-3.009.409-.846-.138-1.132-.327-1.176-.503-.058-.226.127-.352.521-.333.394.019 1.043.119 1.87-.101 0 0-.865 0-1.386-.05a5.084 5.084 0 0 1-1.349-.302c-.413-.164-.572-.799-.172-.792.401.012.706.125 1.476.182.7.05 1.221-.044 1.221-.044s-.833-.107-1.507-.327c-.674-.22-.91-.446-1.056-.604-.146-.157-.115-.553.375-.471.445.069.973.346 1.838.352.63 0 1.075-.082.993-.176-.083-.094-.452-.069-.935-.321-.465-.239-.776-.748-.617-.993.159-.246.178-.069.693.107h-.019Z"/><path fill="#00253D" d="M329.491 125.159s-1.412-1.195-3.104.509c-1.081 1.088-1.03 3.2-.788 4.131.241.931 1.113 2.05 1.863 2.119.745.069 2.036-6.759 2.036-6.759h-.007Z"/><path fill="url(#G)" fill-rule="evenodd" d="M326.985 128.504c.337-2.107 1.877-3.697 4.071-3.572 2.341.139 4.122 2.119 3.988 4.433a4.089 4.089 0 0 1-.244 1.169c.533.959-.352 2.307-1.104 2.271-.413-.026-.515-.233-.515-.233s-.197 3.282-.134 3.521c.031.127.398.253.788.386.342.117.703.24.866.375.35.289-1.806 3.616-2.9 4.106-1.094.491-4.485-.767-4.72-2.433-.216-1.535.973-2.729 1.425-3.144.186-.039.441-.03.643-.023.13.004.237.007.292-.002l.025-.4a1.803 1.803 0 0 1-.153.01c-.591.006-1.1-.541-1.653-1.446-1.152-1.887-.859-3.974-.675-5.018Z" clip-rule="evenodd"/><path fill="#00253D" d="M327.145 127.195c.935-1.905 2.805-2.571 4.598-2.219 1.54.302 3.092 1.458 3.512 2.954.252.904 0 2.106-.442 2.598 0 .195-.052-.827-.814-.315 0 0-.328.103-.786.221-.102.094-.045.742-.102 1.106 0 0-.56.038-.541-.654 0-.188.039-.503.039-.654-.007-.503.012-.842-.28-1.276-.128-.189-.185-.396-.261-.635-.185-.591-.617-1.101-1.209-1.295-.559-.189-1.329-.139-2.169.786-.846-1.34-1.259-.893-1.545-.617Z"/><path fill="#E6EDF3" d="M333.531 147.053c-.229.427-.274 1.037.483 2.125s2.29 3.301 2.57 5.112c-.611.635-1.476 1.937-4.103 2.339-3.778.579-6.59-1.069-7.48-2.031 0 0 .051-1.565.725-4.395.401-1.704.63-2.314.789-3.641.165-1.326 7.016.491 7.016.491Z"/><path fill="#DBE9F7" d="M333.702 148.429c.427.711.783 1.327 1.591 2.434.776 1.062 2.283 3.395 1.921 7.476-.236 2.666-1.565 14.028-1.565 14.028s.674 1.949.884 4.377c.21 2.427-1.501 10.576-1.501 10.576s-.407.377-1.234.358c-.821-.019-1.082-.44-1.082-.44s-.305-4.54-.47-6.898c-.159-2.358-.592-6.105-.713-7.042-.12-.937-.426-2.572-.572-4.402-.146-1.836-.846-11.142-.846-11.142l-.095 1.742s-.09 2.829-.503 6.326c-.413 3.496-.553 5.042-.553 5.042s.712 1.296.807 2.258c.096.962-.445 11.004-.445 11.004s-.343.559-1.272.653c-.948.101-1.189-.176-1.189-.176s-1.495-10.525-1.673-11.601c-.178-1.075-.331-1.603-.535-4.98-.21-3.376-.133-10.708.21-13.368.344-2.66 1.336-6.527 1.336-6.527s1.253.648 2.99.73c1.736.088 4.516-.434 4.516-.434l-.007.006Z"/><path fill="#BBD0E6" d="M326.178 154.605s.388.867 1.456 1.836c1.069.968 2.487 1.308 2.487 1.308l-.095 1.741s-.089 2.83-.503 6.326a622.61 622.61 0 0 0-.458 4.049l.121-11.45c-2.627-1.163-3.008-3.817-3.008-3.817v.007Z"/><path fill="#9EB5CC" d="M333.391 147.461s-2.424.717-4.166.56c-1.934-.17-2.545-.698-2.767-1.05 0 0-.293.679-.261 1.163.839.962 1.914 1.189 3.466 1.182 1.769 0 3.753-.66 4.04-.886 0 0-.236-.541-.306-.969h-.006Z"/><path fill="#E6EDF3" d="M333.639 136.414c.935.144 1.997.635 2.143 1.138.172.591.541 3.364-.267 5.477-.808 2.112-1.749 3.54-2.213 4.451 0 0-3.531 1.082-6.787-.918 0 0-.325-1.716-.337-2.93-3.003-2.59-.439-5.785 2.105-8.262.248-.038.674-.025.916-.013 0 0-1.501 3.804-.693 4.163 1.176.515 4.051-2.509 5.133-3.106Z"/><path fill="url(#H)" d="M332.755 159.415c.445-.308.712-.748 1.374-1.132.585-.34.954-.585 1.386-1.038.433-.452 1.043-2.32 1.336-4.131.35-2.138.032-4.892-.267-6.067-.649-2.534-2.055-5.81-2.627-6.923-.681-1.333-.477-2.258.235-2.78.795-.591 1.552-.333 2.271 1.138.903 1.849 2.284 5.395 2.78 8.156.241 1.339.521 3.446.082 6.193-.305 1.918-.795 3.44-1.526 5.244-.197.491-.223.906-.49 1.887s-.814 2.05-1.431 2.647c-.611.597-.929.717-1.107.648-.223-.088-.216-.315.032-.617.248-.301.712-.767 1.018-1.553 0 0-.509.692-.853 1.082-.343.39-.731.71-1.037.905-.375.239-.992-.012-.744-.327.242-.314.515-.49 1.018-1.069.452-.528.681-1.006.681-1.006s-.573.604-1.152 1.013c-.579.415-.903.465-1.119.49-.216.025-.522-.232-.166-.578.318-.315.853-.573 1.368-1.264.369-.503.566-.906.439-.893-.127.013-.325.321-.814.56-.471.232-1.069.182-1.177-.088-.108-.271.051-.183.496-.491l-.006-.006Z"/><rect width="4.27" height="31.217" x="280.382" y="250.303" fill="url(#I)" opacity=".3" rx=".837" transform="rotate(90 280.382 250.303)"/><rect width="4.697" height="32.38" x="289.038" y="244.125" fill="url(#J)" opacity=".3" rx=".837" transform="rotate(90 289.038 244.125)"/><path fill="url(#K)" d="m234.523 189.769-.253-.582s-.107-1.851-.091-2.111c.017-.26-.738-.92-.829-.998-.091-.078-.572-.619-.572-.619a15.498 15.498 0 0 0-1.443-1.818c-.32-.223-.436.185-.162.824.21.54.388 1.09.535 1.65 0 0-1.273.664-1.423.957a4.536 4.536 0 0 0 .187 1.987c.137.128.282-.111.282-.111a1.207 1.207 0 0 0 .784.92l.539 1.191 2.446-1.29Z"/><path fill="url(#L)" d="m262.376 203.56-1.381 1.613-2.273-1.968 2.128-1.939 1.526 2.294Z"/><path fill="#00253D" d="M261.07 183.991s1.323.462 3.367 2.928c2.045 2.466 5.839 6.78 5.743 8.813-.095 2.033-7.617 8.536-8.206 8.631-.589.095-2.177-1.934-1.97-2.887.208-.952 4.284-5.583 4.433-5.773.15-.19-4.723-4.248-4.723-4.248l1.356-7.464ZM253.353 249.412a15.91 15.91 0 0 1 .361 3.076c-.037 1.237-1.198 2.062-2.55 2.161-1.352.099-2.405-1.118-5.466-2.639-3.197-1.592-4.324-2.619-3.955-4.73.29-1.671 4.146-.87 7.02-.182a12.885 12.885 0 0 1 4.59 2.314ZM261.464 243.597s.697 2.19.655 3.415c-.041 1.224-.734 2.474-2.073 2.577-1.34.103-2.965-.281-4.064-3.501-.601-1.761-2.807-4.582-.381-6.037 1.459-.875 1.658 2.061 4.499 2.762 2.538.611 1.364.784 1.364.784Z"/><path fill="#BBD0E6" d="M252.943 223.683c.286.734 2.401 14.594 3.246 20.462.457 2.231 5.715 2.594 5.947.763 0 0 .46-13.477-.734-19.382l-.025-9.184c.432-2.87.432-5.789 0-8.66l-4.552-.358-6.822 3.802 2.94 12.557Z"/><path fill="#BBD0E6" d="M257.33 211.757c-.278 1.237-.452 3.591-1.526 5.22-.17.252-.324.512-.469.767-.029.12-.46 1.72-.991 3.868-.531 2.149-.091 6.574-.551 8.867.253 2.725 0 17.876 0 19.138-.465 1.716-6.291 1.996-6.888-.907 0 0-.037-14.475-.792-18.273a16.492 16.492 0 0 1-.265-2.193c-.141-2.33-.415-6.574-.473-8.347-.153-3.452-.253-7.835-.133-9.138l7.278 1.587 4.81-.589Z"/><path fill="#00253D" d="M244.952 210.755c0 .969.415 4.004 4.25 4.68 3.836.677 7.236-1.352 7.236-1.352l.49-6.186 1.09 5.159s3.293-2.169 3.653-3.142c.361-.974.295-2.842-.456-6.652-.75-3.81-.161-7.514.975-12.194 1.136-4.681-.096-6.842-1.265-7.122-1.169-.28-3.782.573-3.782.573s-4.333.697-5.183 1.497c-.85.8-4.561 3.534-4.561 3.534l-1.933 4.149.249 3.13.174 2.218c.144 1.785.13 3.579-.041 5.361a32.64 32.64 0 0 1-.241 1.922c-.323 2.029-.655 4.186-.655 4.425Z"/><path fill="url(#M)" d="M247.735 176.939a45.493 45.493 0 0 0 .17 5.501c.261 1.914 2.488 1.695 2.488 1.695l.194 3.171s3.587.268 4.902-1.934l-.228-2.264s2.832-2.915 1.957-6.033c-.875-3.117-3.504-3.983-5.449-3.967-1.945.017-3.96 1.155-4.034 3.831Z"/><path fill="#00253D" d="M247.697 177.253s.091 1.002.759 1.237c.668.235.659.181.659.181v1.307l.705.24s.075-1.134.585-1.237c.51-.104.692 1.513.327 1.95a.725.725 0 0 1-.742.313s.693 2.631 2.074 3.097c1.38.466 2.977-.296 3.649-.861.414-.355.601-.759 1.107-1.803.298-.622 1.024-1.649 1.136-2.536.294-2.412-.717-2.647-.717-2.647s.468-1.386-1.103-2.998c-1.572-1.613-4.296-1.827-5.856-.936-1.559.89-2.84 1.237-3.408 1.08-.568-.157-.535 1.163.128 1.534 0 0-1.148 0-1.053.371.096.372.419 1.852 1.75 1.708Z"/><path fill="#E6EDF3" d="M249.646 187.847s.332-1.67.452-1.905c.12-.235.585-.363 2.708-.726s2.728-1.303 3.118-1.435c.39-.132 1.215.738 1.215.738s-.887 2.062-3.732 2.627c-2.844.565-3.761.701-3.761.701Z"/><path fill="#00253D" d="M239.45 196.585s6.763-6.936 8.455-7.253c1.691-.318 2.902 2.029 2.28 4.713-.622 2.685-4.146 4.978-6.336 6.755-2.189 1.777-4.089 2.614-5.71 2.421-1.621-.194-6.485-10.829-6.299-11.63.257-1.101 3.015-2.272 3.367-1.422l4.243 6.416Z"/><path fill="#9EB5CC" fill-rule="evenodd" d="M114.86 195.216c-1.687 2.412-4.26 4.623-6.587 5.893-4.95 2.429-11.271-.288-11.271-6.31 0-6.022 4.292-13.692 9.736-16.664 5.444-2.972 12.227-1.274 12.227 4.748 0 2.575-1.012 7.023-2.361 9.624l4.024 2.53c.428.24.778.991.351 1.697-.428.707-1.904.735-2.331.496l-3.788-2.014Zm-14.851-1.393c0-4.683 3.433-10.354 7.667-12.666 4.234-2.311 7.667-.388 7.667 4.296 0 2.285-.817 4.804-2.146 7.054a2.721 2.721 0 0 0-.202.335c-1.379 2.222-3.254 4.149-5.319 5.277-4.234 2.311-7.667.388-7.667-4.296Z" clip-rule="evenodd"/><ellipse fill="#E6EDF3" opacity=".3" rx="9.257" ry="8.871" transform="matrix(.87773 -.47915 0 1 109.479 189.715)"/><path fill="#9CBEE5" d="m108.902 191.796.314-.507v-.203c0-.672.232-1.028.743-1.738l.488-.685c.558-.774 1.29-1.905 1.29-2.742 0-1.383-1.614-1.605-3.066-.812-1.685.92-2.206 2.514-2.206 3.871l.49.21.46-.546c0-.913.43-1.846 1.487-2.423.941-.514 1.406-.171 1.406.603-.012.59-.221 1.097-.604 1.636l-.372.52c-.662.933-1.046 1.535-1.046 2.613l.616.203Zm-.616 2.716.385.189.707-.685.581-1.395-.39-.103-1.283.676v1.318Z"/><path fill="#00253D" d="m108.845 191.797.929-.508v-.203c0-.672.233-1.027.744-1.738l.488-.685c.558-.774.883-1.586.883-2.423 0-1.383-.976-1.763-2.428-.97-1.685.919-2.487 2.562-2.487 3.92l.999-.546c0-.913.43-1.846 1.488-2.423.941-.514 1.406-.171 1.406.603-.012.59-.221 1.097-.605 1.636l-.371.52c-.663.933-1.046 1.535-1.046 2.614v.203Zm-.163 2.905 1.255-.685v-1.396l-1.255.685v1.396Z"/><path fill="#00253D" fill-rule="evenodd" d="M115.762 194.841c-1.709 2.425-3.876 4.501-6.234 5.788-5.515 3.011-9.987.57-9.987-5.452s4.472-13.344 9.987-16.355c5.516-3.011 9.987-.57 9.987 5.451 0 2.575-.817 5.387-2.184 7.998l4.078 2.227c.434.236.434 1.003 0 1.713-.433.71-1.136 1.093-1.569.857l-4.078-2.227Zm-14.001-.875c0-4.684 3.477-10.379 7.767-12.721 4.29-2.342 7.768-.444 7.768 4.24 0 2.285-.828 4.81-2.174 7.07a2.744 2.744 0 0 0-.205.336c-1.397 2.232-3.296 4.172-5.389 5.315-4.29 2.342-7.767.443-7.767-4.24Z" clip-rule="evenodd"/><path stroke="#fff" stroke-width=".254" d="M117.105 185.517c0 4.77-3.459 10.529-7.729 12.86-4.271 2.332-7.73.349-7.73-4.422 0-4.77 3.459-10.529 7.73-12.861 4.27-2.331 7.729-.348 7.729 4.423Z"/><path fill="#00253D" fill-rule="evenodd" d="M102.087 178.276c-.149.191-.474.203-.724.027l-1.821-1.273c-.252-.176-.335-.473-.186-.664.148-.191.472-.203.724-.028l1.82 1.273c.251.176.335.474.187.665M100.351 183.283c-.054.229-.354.357-.67.287l-4.88-1.151c-.317-.07-.529-.311-.475-.54.054-.228.354-.356.67-.286l4.88 1.151c.316.069.529.311.475.539ZM110.328 175.045a.458.458 0 0 1-.291-.593l1.079-3.529a.49.49 0 0 1 .609-.299.459.459 0 0 1 .291.594c-.249.697-.83 2.831-1.079 3.528a.489.489 0 0 1-.609.299ZM111.894 170.086a.452.452 0 0 1-.289-.581l.24-.832a.476.476 0 0 1 .601-.282c.245.082.354.336.289.58-.176.655-.027.157-.24.833a.479.479 0 0 1-.601.282ZM105.906 175.337a.42.42 0 0 1-.277.374.5.5 0 0 1-.627-.231l-2.339-5.013a.414.414 0 0 1 .236-.57.5.5 0 0 1 .627.231l2.338 5.012a.401.401 0 0 1 .042.197ZM117.809 174.077a.49.49 0 0 1-.07.083l-1.359 1.249a.488.488 0 0 1-.661-.014.419.419 0 0 1-.002-.62l1.359-1.25a.489.489 0 0 1 .66.014c.156.149.18.371.073.538" clip-rule="evenodd" opacity=".8"/><defs><linearGradient id="b" x1="394.776" x2="394.776" y1="158.887" y2="167.02" gradientUnits="userSpaceOnUse"><stop stop-color="#DBDFF7" stop-opacity="0"/><stop offset=".995" stop-color="#DBDFF7"/></linearGradient><linearGradient id="d" x1="84.687" x2="84.687" y1="207.346" y2="217.802" gradientUnits="userSpaceOnUse"><stop stop-color="#DBDFF7" stop-opacity="0"/><stop offset=".995" stop-color="#DBDFF7"/></linearGradient><linearGradient id="f" x1="127.944" x2="127.944" y1="267.995" y2="279.463" gradientUnits="userSpaceOnUse"><stop stop-color="#DBDFF7" stop-opacity="0"/><stop offset=".995" stop-color="#DBDFF7"/></linearGradient><linearGradient id="m" x1="278.348" x2="278.348" y1="119.494" y2="129.688" gradientUnits="userSpaceOnUse"><stop stop-color="#DBDFF7" stop-opacity="0"/><stop offset=".995" stop-color="#DBDFF7"/></linearGradient><linearGradient id="t" x1="280.755" x2="280.755" y1="123.374" y2="129.435" gradientUnits="userSpaceOnUse"><stop stop-color="#DBDFF7" stop-opacity="0"/><stop offset=".995" stop-color="#DBDFF7"/></linearGradient><linearGradient id="v" x1="356.002" x2="356.002" y1="227.531" y2="265.358" gradientUnits="userSpaceOnUse"><stop stop-color="#DBDFF7" stop-opacity="0"/><stop offset=".995" stop-color="#DBDFF7"/></linearGradient><linearGradient id="w" x1="291.296" x2="291.296" y1="213.365" y2="222.84" gradientUnits="userSpaceOnUse"><stop stop-color="#fff"/><stop offset="1" stop-color="#4698EA"/></linearGradient><linearGradient id="x" x1="312.054" x2="312.054" y1="168.392" y2="185.081" gradientUnits="userSpaceOnUse"><stop stop-color="#fff"/><stop offset="1" stop-color="#4698EA"/></linearGradient><linearGradient id="y" x1="313.035" x2="313.035" y1="176.945" y2="185.082" gradientUnits="userSpaceOnUse"><stop stop-color="#fff"/><stop offset="1" stop-color="#4698EA"/></linearGradient><linearGradient id="z" x1="293.564" x2="293.564" y1="180.878" y2="196.674" gradientUnits="userSpaceOnUse"><stop stop-color="#fff"/><stop offset="1" stop-color="#4698EA"/></linearGradient><linearGradient id="A" x1="298.452" x2="298.452" y1="183.766" y2="200.82" gradientUnits="userSpaceOnUse"><stop stop-color="#fff"/><stop offset="1" stop-color="#4698EA"/></linearGradient><linearGradient id="B" x1="359.154" x2="359.154" y1="188.915" y2="221.563" gradientUnits="userSpaceOnUse"><stop stop-color="#DBDFF7" stop-opacity="0"/><stop offset=".995" stop-color="#DBDFF7"/></linearGradient><linearGradient id="C" x1="367.065" x2="367.065" y1="193.176" y2="225.986" gradientUnits="userSpaceOnUse"><stop stop-color="#DBDFF7" stop-opacity="0"/><stop offset=".995" stop-color="#DBDFF7"/></linearGradient><linearGradient id="D" x1="326.987" x2="326.987" y1="180.775" y2="193.476" gradientUnits="userSpaceOnUse"><stop stop-color="#fff"/><stop offset="1" stop-color="#4698EA"/></linearGradient><linearGradient id="E" x1="333.687" x2="333.687" y1="185.943" y2="195.048" gradientUnits="userSpaceOnUse"><stop stop-color="#fff"/><stop offset="1" stop-color="#4698EA"/></linearGradient><linearGradient id="F" x1="318.175" x2="318.175" y1="135.348" y2="151.61" gradientUnits="userSpaceOnUse"><stop stop-color="#fff"/><stop offset="1" stop-color="#4698EA"/></linearGradient><linearGradient id="G" x1="330.931" x2="330.931" y1="124.925" y2="141.067" gradientUnits="userSpaceOnUse"><stop stop-color="#fff"/><stop offset="1" stop-color="#4698EA"/></linearGradient><linearGradient id="H" x1="335.894" x2="335.894" y1="137.05" y2="163.274" gradientUnits="userSpaceOnUse"><stop stop-color="#fff"/><stop offset="1" stop-color="#4698EA"/></linearGradient><linearGradient id="I" x1="282.517" x2="282.517" y1="250.303" y2="281.52" gradientUnits="userSpaceOnUse"><stop stop-color="#DBDFF7" stop-opacity="0"/><stop offset=".995" stop-color="#DBDFF7"/></linearGradient><linearGradient id="J" x1="291.386" x2="291.386" y1="244.125" y2="276.505" gradientUnits="userSpaceOnUse"><stop stop-color="#DBDFF7" stop-opacity="0"/><stop offset=".995" stop-color="#DBDFF7"/></linearGradient><linearGradient id="K" x1="232.386" x2="232.386" y1="183.579" y2="191.059" gradientUnits="userSpaceOnUse"><stop stop-color="#fff"/><stop offset="1" stop-color="#4698EA"/></linearGradient><linearGradient id="L" x1="262.376" x2="258.726" y1="203.221" y2="203.221" gradientUnits="userSpaceOnUse"><stop stop-color="#D5E6F9"/><stop offset="1" stop-color="#EEEFFF"/></linearGradient><linearGradient id="M" x1="252.55" x2="252.55" y1="173.108" y2="187.317" gradientUnits="userSpaceOnUse"><stop stop-color="#fff"/><stop offset="1" stop-color="#4698EA"/></linearGradient><radialGradient id="c" cx="0" cy="0" r="1" gradientTransform="matrix(1.42506 7.1652 -7.17673 1.42736 385.22 146.221)" gradientUnits="userSpaceOnUse"><stop stop-color="#A5CBFA"/><stop offset="1" stop-color="#2C497B"/></radialGradient><radialGradient id="e" cx="0" cy="0" r="1" gradientTransform="rotate(78.872 -82.507 141.635) scale(9.49324 9.41186)" gradientUnits="userSpaceOnUse"><stop stop-color="#A5CBFA"/><stop offset="1" stop-color="#2C497B"/></radialGradient><radialGradient id="g" cx="0" cy="0" r="1" gradientTransform="matrix(9.91678 -3.6778 2.8843 7.77723 111.801 264.357)" gradientUnits="userSpaceOnUse"><stop stop-color="#769BE5"/><stop offset="1" stop-color="#2C497B"/></radialGradient><radialGradient id="h" cx="0" cy="0" r="1" gradientTransform="rotate(-170.365 71.043 124.57) scale(9.25064 9.41544)" gradientUnits="userSpaceOnUse"><stop stop-color="#0E1729"/><stop offset="1" stop-color="#80AAFF"/></radialGradient><radialGradient id="i" cx="0" cy="0" r="1" gradientTransform="matrix(8.87984 -3.29305 2.58246 6.9637 112.275 261.584)" gradientUnits="userSpaceOnUse"><stop stop-color="#769BE5"/><stop offset="1" stop-color="#2C497B"/></radialGradient><radialGradient id="j" cx="0" cy="0" r="1" gradientTransform="rotate(-170.365 70.745 123.466) scale(8.28332 8.43044)" gradientUnits="userSpaceOnUse"><stop stop-color="#0E1729"/><stop offset="1" stop-color="#80AAFF"/></radialGradient><radialGradient id="k" cx="0" cy="0" r="1" gradientTransform="matrix(8.55709 -1.65024 1.26582 6.56377 111.812 257.43)" gradientUnits="userSpaceOnUse"><stop stop-color="#769BE5"/><stop offset="1" stop-color="#2C497B"/></radialGradient><radialGradient id="l" cx="0" cy="0" r="1" gradientTransform="matrix(-2.9322 -3.25779 3.77417 -3.39697 119.257 254.725)" gradientUnits="userSpaceOnUse"><stop stop-color="#0E1729"/><stop offset="1" stop-color="#80AAFF"/></radialGradient><radialGradient id="n" cx="0" cy="0" r="1" gradientTransform="rotate(-22.647 421.254 -601.115) scale(9.5514 8.16477)" gradientUnits="userSpaceOnUse"><stop stop-color="#769BE5"/><stop offset="1" stop-color="#2C497B"/></radialGradient><radialGradient id="o" cx="0" cy="0" r="1" gradientTransform="rotate(-169.187 140.961 42.541) scale(8.25332 9.3806)" gradientUnits="userSpaceOnUse"><stop stop-color="#0E1729"/><stop offset="1" stop-color="#80AAFF"/></radialGradient><radialGradient id="p" cx="0" cy="0" r="1" gradientTransform="rotate(-22.646 414.555 -603.588) scale(8.55257 7.31066)" gradientUnits="userSpaceOnUse"><stop stop-color="#769BE5"/><stop offset="1" stop-color="#2C497B"/></radialGradient><radialGradient id="q" cx="0" cy="0" r="1" gradientTransform="rotate(-169.188 140.674 41.439) scale(7.39028 8.39925)" gradientUnits="userSpaceOnUse"><stop stop-color="#0E1729"/><stop offset="1" stop-color="#80AAFF"/></radialGradient><radialGradient id="r" cx="0" cy="0" r="1" gradientTransform="matrix(7.6063 -1.65024 1.41062 6.50184 263.953 108.93)" gradientUnits="userSpaceOnUse"><stop stop-color="#769BE5"/><stop offset="1" stop-color="#2C497B"/></radialGradient><radialGradient id="s" cx="0" cy="0" r="1" gradientTransform="matrix(-2.60636 -3.25782 3.70262 -2.96222 270.571 106.224)" gradientUnits="userSpaceOnUse"><stop stop-color="#0E1729"/><stop offset="1" stop-color="#80AAFF"/></radialGradient><radialGradient id="u" cx="0" cy="0" r="1" gradientTransform="rotate(78.751 65.876 224.93) scale(5.44395 5.4527)" gradientUnits="userSpaceOnUse"><stop stop-color="#A5CBFA"/><stop offset="1" stop-color="#2C497B"/></radialGradient><filter id="a" width="65.614" height="62.701" x="154.665" y="54.209" color-interpolation-filters="sRGB" filterUnits="userSpaceOnUse"><feFlood flood-opacity="0" result="BackgroundImageFix"/><feColorMatrix in="SourceAlpha" result="hardAlpha" values="0 0 0 0 0 0 0 0 0 0 0 0 0 0 0 0 0 0 127 0"/><feOffset dy="1.324"/><feGaussianBlur stdDeviation="1.839"/><feColorMatrix values="0 0 0 0 0.172116 0 0 0 0 0.224928 0 0 0 0 0.401945 0 0 0 0.160921 0"/><feBlend in2="BackgroundImageFix" result="effect1_dropShadow_9913_198343"/><feBlend in="SourceGraphic" in2="effect1_dropShadow_9913_198343" result="shape"/></filter></defs></svg>